<svg xmlns="http://www.w3.org/2000/svg" width="800" height="800" viewBox="0 0 800 800">
  <rect width="800" height="800" fill="#1b1e24"/>
  <text x="24" y="790" fill="#7b828d" font-family="monospace" font-size="13">agrostid · cleaned base · 16 islands</text>
  <path d="M267.3,38.7L267.3,35.1L267.3,31.4L267.3,27.7L267.3,24L263.6,24L259.9,24L256.2,24L252.5,24L248.9,24L245.2,24L241.5,24L237.8,24L234.1,24L230.4,24L226.7,24L223.1,24L223.1,27.7L223.1,31.4L223.1,35.1L223.1,38.7L223.1,42.4L223.1,46.1L223.1,49.8L223.1,53.5L223.1,57.2L223.1,60.9L223.1,64.5L223.1,68.2L223.1,71.9L223.1,75.6L223.1,79.3L223.1,83L223.1,86.7L223.1,90.4L219.4,90.4L215.7,90.4L212,90.4L208.3,90.4L204.6,90.4L200.9,90.4L197.3,90.4L193.6,90.4L189.9,90.4L186.2,90.4L182.5,90.4L178.8,90.4L175.1,90.4L171.5,90.4L167.8,90.4L167.8,94L167.8,97.7L167.8,101.4L167.8,105.1L167.8,108.8L167.8,112.5L167.8,116.2L167.8,119.8L167.8,123.5L167.8,127.2L167.8,130.9L167.8,134.6L171.5,134.6L175.1,134.6L178.8,134.6L182.5,134.6L186.2,134.6L189.9,134.6L193.6,134.6L197.3,134.6L200.9,134.6L204.6,134.6L208.3,134.6L212,134.6L215.7,134.6L219.4,134.6L223.1,134.6L226.7,134.6L230.4,134.6L234.1,134.6L237.8,134.6L241.5,134.6L245.2,134.6L248.9,134.6L252.5,134.6L256.2,134.6L259.9,134.6L263.6,134.6L267.3,134.6L271,134.6L274.7,134.6L278.4,134.6L282,134.6L285.7,134.6L289.4,134.6L293.1,134.6L296.8,134.6L300.5,134.6L304.2,134.6L307.8,134.6L311.5,134.6L315.2,134.6L318.9,134.6L322.6,134.6L322.6,130.9L322.6,127.2L322.6,123.5L322.6,119.8L322.6,116.2L322.6,112.5L322.6,108.8L322.6,105.1L322.6,101.4L322.6,97.7L322.6,94L322.6,90.4L318.9,90.4L315.2,90.4L311.5,90.4L307.8,90.4L304.2,90.4L300.5,90.4L296.8,90.4L293.1,90.4L289.4,90.4L285.7,90.4L282,90.4L278.4,90.4L274.7,90.4L271,90.4L267.3,90.4L267.3,86.7L267.3,83L267.3,79.3L267.3,75.6L267.3,71.9L267.3,68.2L267.3,64.5L267.3,60.9L267.3,57.2L267.3,53.5L267.3,49.8L267.3,46.1L267.3,42.4L267.3,38.7Z" fill-rule="evenodd" fill="#9aa0a8" fill-opacity="0.85" stroke="#cfd5de" stroke-width="1"/>
  <path d="M322.6,680.2L322.6,676.5L322.6,672.8L322.6,669.1L322.6,665.4L318.9,665.4L315.2,665.4L311.5,665.4L307.8,665.4L304.2,665.4L300.5,665.4L296.8,665.4L293.1,665.4L289.4,665.4L285.7,665.4L282,665.4L278.4,665.4L274.7,665.4L271,665.4L267.3,665.4L263.6,665.4L259.9,665.4L256.2,665.4L252.5,665.4L248.9,665.4L245.2,665.4L241.5,665.4L237.8,665.4L234.1,665.4L230.4,665.4L226.7,665.4L223.1,665.4L219.4,665.4L215.7,665.4L212,665.4L208.3,665.4L204.6,665.4L200.9,665.4L197.3,665.4L193.6,665.4L189.9,665.4L186.2,665.4L182.5,665.4L178.8,665.4L175.1,665.4L171.5,665.4L167.8,665.4L167.8,669.1L167.8,672.8L167.8,676.5L167.8,680.2L167.8,683.8L167.8,687.5L167.8,691.2L167.8,694.9L167.8,698.6L167.8,702.3L167.8,706L167.8,709.6L171.5,709.6L175.1,709.6L178.8,709.6L182.5,709.6L186.2,709.6L189.9,709.6L193.6,709.6L197.3,709.6L200.9,709.6L204.6,709.6L208.3,709.6L212,709.6L215.7,709.6L219.4,709.6L223.1,709.6L223.1,713.3L223.1,717L223.1,720.7L223.1,724.4L223.1,728.1L223.1,731.8L223.1,735.5L223.1,739.1L223.1,742.8L223.1,746.5L223.1,750.2L223.1,753.9L223.1,757.6L223.1,761.3L223.1,764.9L223.1,768.6L223.1,772.3L223.1,776L226.7,776L230.4,776L234.1,776L237.8,776L241.5,776L245.2,776L248.9,776L252.5,776L256.2,776L259.9,776L263.6,776L267.3,776L267.3,772.3L267.3,768.6L267.3,764.9L267.3,761.3L267.3,757.6L267.3,753.9L267.3,750.2L267.3,746.5L267.3,742.8L267.3,739.1L267.3,735.5L267.3,731.8L267.3,728.1L267.3,724.4L267.3,720.7L267.3,717L267.3,713.3L267.3,709.6L271,709.6L274.7,709.6L278.4,709.6L282,709.6L285.7,709.6L289.4,709.6L293.1,709.6L296.8,709.6L300.5,709.6L304.2,709.6L307.8,709.6L311.5,709.6L315.2,709.6L318.9,709.6L322.6,709.6L322.6,706L322.6,702.3L322.6,698.6L322.6,694.9L322.6,691.2L322.6,687.5L322.6,683.8L322.6,680.2Z" fill-rule="evenodd" fill="#9aa0a8" fill-opacity="0.85" stroke="#cfd5de" stroke-width="1"/>
  <path d="M127.2,156.7L123.5,156.7L119.8,156.7L116.2,156.7L112.5,156.7L108.8,156.7L105.1,156.7L101.4,156.7L97.7,156.7L94,156.7L90.4,156.7L86.7,156.7L83,156.7L79.3,156.7L75.6,156.7L71.9,156.7L68.2,156.7L64.5,156.7L60.9,156.7L57.2,156.7L53.5,156.7L49.8,156.7L46.1,156.7L42.4,156.7L38.7,156.7L35.1,156.7L31.4,156.7L27.7,156.7L24,156.7L24,160.4L24,164.1L24,167.8L24,171.5L24,175.1L24,178.8L24,182.5L24,186.2L24,189.9L24,193.6L24,197.3L24,200.9L27.7,200.9L31.4,200.9L35.1,200.9L38.7,200.9L42.4,200.9L46.1,200.9L49.8,200.9L53.5,200.9L57.2,200.9L60.9,200.9L64.5,200.9L68.2,200.9L71.9,200.9L75.6,200.9L79.3,200.9L83,200.9L86.7,200.9L90.4,200.9L94,200.9L97.7,200.9L101.4,200.9L105.1,200.9L108.8,200.9L112.5,200.9L116.2,200.9L119.8,200.9L123.5,200.9L127.2,200.9L130.9,200.9L134.6,200.9L138.3,200.9L142,200.9L145.6,200.9L149.3,200.9L153,200.9L156.7,200.9L160.4,200.9L164.1,200.9L167.8,200.9L171.5,200.9L175.1,200.9L178.8,200.9L182.5,200.9L186.2,200.9L189.9,200.9L193.6,200.9L197.3,200.9L200.9,200.9L204.6,200.9L208.3,200.9L212,200.9L212,197.3L212,193.6L212,189.9L212,186.2L212,182.5L212,178.8L212,175.1L212,171.5L212,167.8L212,164.1L212,160.4L212,156.7L208.3,156.7L204.6,156.7L200.9,156.7L197.3,156.7L193.6,156.7L189.9,156.7L186.2,156.7L182.5,156.7L178.8,156.7L175.1,156.7L171.5,156.7L167.8,156.7L164.1,156.7L160.4,156.7L156.7,156.7L153,156.7L149.3,156.7L145.6,156.7L142,156.7L138.3,156.7L134.6,156.7L130.9,156.7L127.2,156.7Z" fill-rule="evenodd" fill="#9aa0a8" fill-opacity="0.85" stroke="#cfd5de" stroke-width="1"/>
  <path d="M127.2,599.1L123.5,599.1L119.8,599.1L116.2,599.1L112.5,599.1L108.8,599.1L105.1,599.1L101.4,599.1L97.7,599.1L94,599.1L90.4,599.1L86.7,599.1L83,599.1L79.3,599.1L75.6,599.1L71.9,599.1L68.2,599.1L64.5,599.1L60.9,599.1L57.2,599.1L53.5,599.1L49.8,599.1L46.1,599.1L42.4,599.1L38.7,599.1L35.1,599.1L31.4,599.1L27.7,599.1L24,599.1L24,602.7L24,606.4L24,610.1L24,613.8L24,617.5L24,621.2L24,624.9L24,628.5L24,632.2L24,635.9L24,639.6L24,643.3L27.7,643.3L31.4,643.3L35.1,643.3L38.7,643.3L42.4,643.3L46.1,643.3L49.8,643.3L53.5,643.3L57.2,643.3L60.9,643.3L64.5,643.3L68.2,643.3L71.9,643.3L75.6,643.3L79.3,643.3L83,643.3L86.7,643.3L90.4,643.3L94,643.3L97.7,643.3L101.4,643.3L105.1,643.3L108.8,643.3L112.5,643.3L116.2,643.3L119.8,643.3L123.5,643.3L127.2,643.3L130.9,643.3L134.6,643.3L138.3,643.3L142,643.3L145.6,643.3L149.3,643.3L153,643.3L156.7,643.3L160.4,643.3L164.1,643.3L167.8,643.3L171.5,643.3L175.1,643.3L178.8,643.3L182.5,643.3L186.2,643.3L189.9,643.3L193.6,643.3L197.3,643.3L200.9,643.3L204.6,643.3L208.3,643.3L212,643.3L212,639.6L212,635.9L212,632.2L212,628.5L212,624.9L212,621.2L212,617.5L212,613.8L212,610.1L212,606.4L212,602.7L212,599.1L208.3,599.1L204.6,599.1L200.9,599.1L197.3,599.1L193.6,599.1L189.9,599.1L186.2,599.1L182.5,599.1L178.8,599.1L175.1,599.1L171.5,599.1L167.8,599.1L164.1,599.1L160.4,599.1L156.7,599.1L153,599.1L149.3,599.1L145.6,599.1L142,599.1L138.3,599.1L134.6,599.1L130.9,599.1L127.2,599.1Z" fill-rule="evenodd" fill="#9aa0a8" fill-opacity="0.85" stroke="#cfd5de" stroke-width="1"/>
  <path d="M381.6,156.7L377.9,156.7L374.2,156.7L370.5,156.7L366.8,156.7L363.1,156.7L359.5,156.7L355.8,156.7L352.1,156.7L348.4,156.7L344.7,156.7L341,156.7L337.3,156.7L333.6,156.7L330,156.7L326.3,156.7L322.6,156.7L318.9,156.7L315.2,156.7L311.5,156.7L307.8,156.7L304.2,156.7L300.5,156.7L296.8,156.7L293.1,156.7L289.4,156.7L285.7,156.7L282,156.7L278.4,156.7L278.4,160.4L278.4,164.1L278.4,167.8L278.4,171.5L278.4,175.1L278.4,178.8L278.4,182.5L278.4,186.2L278.4,189.9L278.4,193.6L278.4,197.3L278.4,200.9L282,200.9L285.7,200.9L289.4,200.9L293.1,200.9L296.8,200.9L300.5,200.9L304.2,200.9L307.8,200.9L311.5,200.9L315.2,200.9L318.9,200.9L322.6,200.9L326.3,200.9L330,200.9L333.6,200.9L337.3,200.9L341,200.9L344.7,200.9L348.4,200.9L352.1,200.9L355.8,200.9L359.5,200.9L363.1,200.9L366.8,200.9L370.5,200.9L374.2,200.9L377.9,200.9L381.6,200.9L385.3,200.9L388.9,200.9L392.6,200.9L396.3,200.9L400,200.9L403.7,200.9L407.4,200.9L411.1,200.9L414.7,200.9L418.4,200.9L422.1,200.9L425.8,200.9L429.5,200.9L433.2,200.9L436.9,200.9L440.5,200.9L444.2,200.9L447.9,200.9L451.6,200.9L455.3,200.9L459,200.9L462.7,200.9L466.4,200.9L466.4,197.3L466.4,193.6L466.4,189.9L466.4,186.2L466.4,182.5L466.4,178.8L466.4,175.1L466.4,171.5L466.4,167.8L466.4,164.1L466.4,160.4L466.4,156.7L462.7,156.7L459,156.7L455.3,156.7L451.6,156.7L447.9,156.7L444.2,156.7L440.5,156.7L436.9,156.7L433.2,156.7L429.5,156.7L425.8,156.7L422.1,156.7L418.4,156.7L414.7,156.7L411.1,156.7L407.4,156.7L403.7,156.7L400,156.7L396.3,156.7L392.6,156.7L388.9,156.7L385.3,156.7L381.6,156.7Z" fill-rule="evenodd" fill="#9aa0a8" fill-opacity="0.85" stroke="#cfd5de" stroke-width="1"/>
  <path d="M381.6,599.1L377.9,599.1L374.2,599.1L370.5,599.1L366.8,599.1L363.1,599.1L359.5,599.1L355.8,599.1L352.1,599.1L348.4,599.1L344.7,599.1L341,599.1L337.3,599.1L333.6,599.1L330,599.1L326.3,599.1L322.6,599.1L318.9,599.1L315.2,599.1L311.5,599.1L307.8,599.1L304.2,599.1L300.5,599.1L296.8,599.1L293.1,599.1L289.4,599.1L285.7,599.1L282,599.1L278.4,599.1L278.4,602.7L278.4,606.4L278.4,610.1L278.4,613.8L278.4,617.5L278.4,621.2L278.4,624.9L278.4,628.5L278.4,632.2L278.4,635.9L278.4,639.6L278.4,643.3L282,643.3L285.7,643.3L289.4,643.3L293.1,643.3L296.8,643.3L300.5,643.3L304.2,643.3L307.8,643.3L311.5,643.3L315.2,643.3L318.9,643.3L322.6,643.3L326.3,643.3L330,643.3L333.6,643.3L337.3,643.3L341,643.3L344.7,643.3L348.4,643.3L352.1,643.3L355.8,643.3L359.5,643.3L363.1,643.3L366.8,643.3L370.5,643.3L374.2,643.3L377.9,643.3L381.6,643.3L385.3,643.3L388.9,643.3L392.6,643.3L396.3,643.3L400,643.3L403.7,643.3L407.4,643.3L411.1,643.3L414.7,643.3L418.4,643.3L422.1,643.3L425.8,643.3L429.5,643.3L433.2,643.3L436.9,643.3L440.5,643.3L444.2,643.3L447.9,643.3L451.6,643.3L455.3,643.3L459,643.3L462.7,643.3L466.4,643.3L466.4,639.6L466.4,635.9L466.4,632.2L466.4,628.5L466.4,624.9L466.4,621.2L466.4,617.5L466.4,613.8L466.4,610.1L466.4,606.4L466.4,602.7L466.4,599.1L462.7,599.1L459,599.1L455.3,599.1L451.6,599.1L447.9,599.1L444.2,599.1L440.5,599.1L436.9,599.1L433.2,599.1L429.5,599.1L425.8,599.1L422.1,599.1L418.4,599.1L414.7,599.1L411.1,599.1L407.4,599.1L403.7,599.1L400,599.1L396.3,599.1L392.6,599.1L388.9,599.1L385.3,599.1L381.6,599.1Z" fill-rule="evenodd" fill="#9aa0a8" fill-opacity="0.85" stroke="#cfd5de" stroke-width="1"/>
  <path d="M252.5,333.6L248.9,333.6L245.2,333.6L241.5,333.6L237.8,333.6L234.1,333.6L230.4,333.6L226.7,333.6L223.1,333.6L223.1,337.3L223.1,341L223.1,344.7L223.1,348.4L223.1,352.1L223.1,355.8L223.1,359.5L223.1,363.1L223.1,366.8L223.1,370.5L223.1,374.2L223.1,377.9L223.1,381.6L223.1,385.3L223.1,388.9L223.1,392.6L223.1,396.3L223.1,400L223.1,403.7L223.1,407.4L223.1,411.1L223.1,414.7L223.1,418.4L223.1,422.1L223.1,425.8L223.1,429.5L223.1,433.2L223.1,436.9L223.1,440.5L223.1,444.2L223.1,447.9L223.1,451.6L223.1,455.3L223.1,459L223.1,462.7L223.1,466.4L226.7,466.4L230.4,466.4L234.1,466.4L237.8,466.4L241.5,466.4L245.2,466.4L248.9,466.4L252.5,466.4L256.2,466.4L259.9,466.4L263.6,466.4L267.3,466.4L267.3,462.7L267.3,459L267.3,455.3L267.3,451.6L267.3,447.9L267.3,444.2L267.3,440.5L267.3,436.9L267.3,433.2L267.3,429.5L267.3,425.8L267.3,422.1L267.3,418.4L267.3,414.7L267.3,411.1L267.3,407.4L267.3,403.7L267.3,400L267.3,396.3L267.3,392.6L267.3,388.9L267.3,385.3L267.3,381.6L267.3,377.9L267.3,374.2L267.3,370.5L267.3,366.8L267.3,363.1L267.3,359.5L267.3,355.8L267.3,352.1L267.3,348.4L267.3,344.7L267.3,341L267.3,337.3L267.3,333.6L263.6,333.6L259.9,333.6L256.2,333.6L252.5,333.6Z" fill-rule="evenodd" fill="#9aa0a8" fill-opacity="0.85" stroke="#cfd5de" stroke-width="1"/>
  <path d="M116.2,245.2L116.2,248.9L116.2,252.5L116.2,256.2L116.2,259.9L116.2,263.6L116.2,267.3L116.2,271L119.8,271L123.5,271L127.2,271L130.9,271L134.6,271L138.3,271L142,271L145.6,271L145.6,274.7L145.6,278.4L145.6,282L145.6,285.7L145.6,289.4L145.6,293.1L145.6,296.8L145.6,300.5L145.6,304.2L145.6,307.8L145.6,311.5L145.6,315.2L145.6,318.9L145.6,322.6L145.6,326.3L145.6,330L145.6,333.6L149.3,333.6L153,333.6L156.7,333.6L160.4,333.6L164.1,333.6L167.8,333.6L171.5,333.6L175.1,333.6L178.8,333.6L182.5,333.6L186.2,333.6L189.9,333.6L193.6,333.6L197.3,333.6L200.9,333.6L200.9,330L200.9,326.3L200.9,322.6L200.9,318.9L200.9,315.2L200.9,311.5L200.9,307.8L200.9,304.2L200.9,300.5L200.9,296.8L200.9,293.1L200.9,289.4L200.9,285.7L200.9,282L200.9,278.4L200.9,274.7L200.9,271L200.9,267.3L200.9,263.6L200.9,259.9L200.9,256.2L200.9,252.5L200.9,248.9L200.9,245.2L197.3,245.2L193.6,245.2L189.9,245.2L186.2,245.2L182.5,245.2L178.8,245.2L175.1,245.2L171.5,245.2L167.8,245.2L164.1,245.2L160.4,245.2L156.7,245.2L153,245.2L149.3,245.2L145.6,245.2L142,245.2L138.3,245.2L134.6,245.2L130.9,245.2L127.2,245.2L123.5,245.2L119.8,245.2L116.2,245.2Z" fill-rule="evenodd" fill="#9aa0a8" fill-opacity="0.85" stroke="#cfd5de" stroke-width="1"/>
  <path d="M182.5,466.4L178.8,466.4L175.1,466.4L171.5,466.4L167.8,466.4L164.1,466.4L160.4,466.4L156.7,466.4L153,466.4L149.3,466.4L145.6,466.4L145.6,470L145.6,473.7L145.6,477.4L145.6,481.1L145.6,484.8L145.6,488.5L145.6,492.2L145.6,495.8L145.6,499.5L145.6,503.2L145.6,506.9L145.6,510.6L145.6,514.3L145.6,518L145.6,521.6L145.6,525.3L145.6,529L142,529L138.3,529L134.6,529L130.9,529L127.2,529L123.5,529L119.8,529L116.2,529L116.2,532.7L116.2,536.4L116.2,540.1L116.2,543.8L116.2,547.5L116.2,551.1L116.2,554.8L119.8,554.8L123.5,554.8L127.2,554.8L130.9,554.8L134.6,554.8L138.3,554.8L142,554.8L145.6,554.8L149.3,554.8L153,554.8L156.7,554.8L160.4,554.8L164.1,554.8L167.8,554.8L171.5,554.8L175.1,554.8L178.8,554.8L182.5,554.8L186.2,554.8L189.9,554.8L193.6,554.8L197.3,554.8L200.9,554.8L200.9,551.1L200.9,547.5L200.9,543.8L200.9,540.1L200.9,536.4L200.9,532.7L200.9,529L200.9,525.3L200.9,521.6L200.9,518L200.9,514.3L200.9,510.6L200.9,506.9L200.9,503.2L200.9,499.5L200.9,495.8L200.9,492.2L200.9,488.5L200.9,484.8L200.9,481.1L200.9,477.4L200.9,473.7L200.9,470L200.9,466.4L197.3,466.4L193.6,466.4L189.9,466.4L186.2,466.4L182.5,466.4Z" fill-rule="evenodd" fill="#9aa0a8" fill-opacity="0.85" stroke="#cfd5de" stroke-width="1"/>
  <path d="M300.5,245.2L296.8,245.2L293.1,245.2L289.4,245.2L289.4,248.9L289.4,252.5L289.4,256.2L289.4,259.9L289.4,263.6L289.4,267.3L289.4,271L289.4,274.7L289.4,278.4L289.4,282L289.4,285.7L289.4,289.4L289.4,293.1L289.4,296.8L289.4,300.5L289.4,304.2L289.4,307.8L289.4,311.5L289.4,315.2L289.4,318.9L289.4,322.6L289.4,326.3L289.4,330L289.4,333.6L293.1,333.6L296.8,333.6L300.5,333.6L304.2,333.6L307.8,333.6L311.5,333.6L315.2,333.6L318.9,333.6L322.6,333.6L326.3,333.6L330,333.6L333.6,333.6L337.3,333.6L341,333.6L344.7,333.6L344.7,330L344.7,326.3L344.7,322.6L344.7,318.9L344.7,315.2L344.7,311.5L344.7,307.8L344.7,304.2L344.7,300.5L344.7,296.8L344.7,293.1L344.7,289.4L344.7,285.7L344.7,282L344.7,278.4L344.7,274.7L344.7,271L348.4,271L352.1,271L355.8,271L359.5,271L363.1,271L366.8,271L370.5,271L374.2,271L374.2,267.3L374.2,263.6L374.2,259.9L374.2,256.2L374.2,252.5L374.2,248.9L374.2,245.2L370.5,245.2L366.8,245.2L363.1,245.2L359.5,245.2L355.8,245.2L352.1,245.2L348.4,245.2L344.7,245.2L341,245.2L337.3,245.2L333.6,245.2L330,245.2L326.3,245.2L322.6,245.2L318.9,245.2L315.2,245.2L311.5,245.2L307.8,245.2L304.2,245.2L300.5,245.2Z" fill-rule="evenodd" fill="#9aa0a8" fill-opacity="0.85" stroke="#cfd5de" stroke-width="1"/>
  <path d="M300.5,466.4L296.8,466.4L293.1,466.4L289.4,466.4L289.4,470L289.4,473.7L289.4,477.4L289.4,481.1L289.4,484.8L289.4,488.5L289.4,492.2L289.4,495.8L289.4,499.5L289.4,503.2L289.4,506.9L289.4,510.6L289.4,514.3L289.4,518L289.4,521.6L289.4,525.3L289.4,529L289.4,532.7L289.4,536.4L289.4,540.1L289.4,543.8L289.4,547.5L289.4,551.1L289.4,554.8L293.1,554.8L296.8,554.8L300.5,554.8L304.2,554.8L307.8,554.8L311.5,554.8L315.2,554.8L318.9,554.8L322.6,554.8L326.3,554.8L330,554.8L333.6,554.8L337.3,554.8L341,554.8L344.7,554.8L348.4,554.8L352.1,554.8L355.8,554.8L359.5,554.8L363.1,554.8L366.8,554.8L370.5,554.8L374.2,554.8L374.2,551.1L374.2,547.5L374.2,543.8L374.2,540.1L374.2,536.4L374.2,532.7L374.2,529L370.5,529L366.8,529L363.1,529L359.5,529L355.8,529L352.1,529L348.4,529L344.7,529L344.7,525.3L344.7,521.6L344.7,518L344.7,514.3L344.7,510.6L344.7,506.9L344.7,503.2L344.7,499.5L344.7,495.8L344.7,492.2L344.7,488.5L344.7,484.8L344.7,481.1L344.7,477.4L344.7,473.7L344.7,470L344.7,466.4L341,466.4L337.3,466.4L333.6,466.4L330,466.4L326.3,466.4L322.6,466.4L318.9,466.4L315.2,466.4L311.5,466.4L307.8,466.4L304.2,466.4L300.5,466.4Z" fill-rule="evenodd" fill="#9aa0a8" fill-opacity="0.85" stroke="#cfd5de" stroke-width="1"/>
  <path d="M123.5,377.9L123.5,381.6L123.5,385.3L123.5,388.9L123.5,392.6L123.5,396.3L123.5,400L123.5,403.7L123.5,407.4L123.5,411.1L123.5,414.7L123.5,418.4L123.5,422.1L127.2,422.1L130.9,422.1L134.6,422.1L138.3,422.1L142,422.1L145.6,422.1L149.3,422.1L153,422.1L156.7,422.1L160.4,422.1L164.1,422.1L167.8,422.1L171.5,422.1L175.1,422.1L178.8,422.1L182.5,422.1L186.2,422.1L189.9,422.1L193.6,422.1L197.3,422.1L200.9,422.1L200.9,418.4L200.9,414.7L200.9,411.1L200.9,407.4L200.9,403.7L200.9,400L200.9,396.3L200.9,392.6L200.9,388.9L200.9,385.3L200.9,381.6L200.9,377.9L197.3,377.9L193.6,377.9L189.9,377.9L186.2,377.9L182.5,377.9L178.8,377.9L175.1,377.9L171.5,377.9L167.8,377.9L164.1,377.9L160.4,377.9L156.7,377.9L153,377.9L149.3,377.9L145.6,377.9L142,377.9L138.3,377.9L134.6,377.9L130.9,377.9L127.2,377.9L123.5,377.9Z" fill-rule="evenodd" fill="#9aa0a8" fill-opacity="0.85" stroke="#cfd5de" stroke-width="1"/>
  <path d="M289.4,377.9L289.4,381.6L289.4,385.3L289.4,388.9L289.4,392.6L289.4,396.3L289.4,400L289.4,403.7L289.4,407.4L289.4,411.1L289.4,414.7L289.4,418.4L289.4,422.1L293.1,422.1L296.8,422.1L300.5,422.1L304.2,422.1L307.8,422.1L311.5,422.1L315.2,422.1L318.9,422.1L322.6,422.1L326.3,422.1L330,422.1L333.6,422.1L337.3,422.1L341,422.1L344.7,422.1L348.4,422.1L352.1,422.1L355.8,422.1L359.5,422.1L363.1,422.1L366.8,422.1L366.8,418.4L366.8,414.7L366.8,411.1L366.8,407.4L366.8,403.7L366.8,400L366.8,396.3L366.8,392.6L366.8,388.9L366.8,385.3L366.8,381.6L366.8,377.9L363.1,377.9L359.5,377.9L355.8,377.9L352.1,377.9L348.4,377.9L344.7,377.9L341,377.9L337.3,377.9L333.6,377.9L330,377.9L326.3,377.9L322.6,377.9L318.9,377.9L315.2,377.9L311.5,377.9L307.8,377.9L304.2,377.9L300.5,377.9L296.8,377.9L293.1,377.9L289.4,377.9Z" fill-rule="evenodd" fill="#9aa0a8" fill-opacity="0.85" stroke="#cfd5de" stroke-width="1"/>
  <path d="M35.1,377.9L35.1,381.6L35.1,385.3L35.1,388.9L35.1,392.6L35.1,396.3L35.1,400L35.1,403.7L35.1,407.4L35.1,411.1L35.1,414.7L35.1,418.4L35.1,422.1L38.7,422.1L42.4,422.1L46.1,422.1L49.8,422.1L53.5,422.1L57.2,422.1L60.9,422.1L64.5,422.1L68.2,422.1L71.9,422.1L75.6,422.1L79.3,422.1L79.3,418.4L79.3,414.7L79.3,411.1L79.3,407.4L79.3,403.7L79.3,400L79.3,396.3L79.3,392.6L79.3,388.9L79.3,385.3L79.3,381.6L79.3,377.9L75.6,377.9L71.9,377.9L68.2,377.9L64.5,377.9L60.9,377.9L57.2,377.9L53.5,377.9L49.8,377.9L46.1,377.9L42.4,377.9L38.7,377.9L35.1,377.9Z" fill-rule="evenodd" fill="#9aa0a8" fill-opacity="0.85" stroke="#cfd5de" stroke-width="1"/>
  <path d="M223.1,245.2L223.1,248.9L223.1,252.5L223.1,256.2L223.1,259.9L223.1,263.6L223.1,267.3L223.1,271L223.1,274.7L223.1,278.4L223.1,282L223.1,285.7L223.1,289.4L226.7,289.4L230.4,289.4L234.1,289.4L237.8,289.4L241.5,289.4L245.2,289.4L248.9,289.4L252.5,289.4L256.2,289.4L259.9,289.4L263.6,289.4L267.3,289.4L267.3,285.7L267.3,282L267.3,278.4L267.3,274.7L267.3,271L267.3,267.3L267.3,263.6L267.3,259.9L267.3,256.2L267.3,252.5L267.3,248.9L267.3,245.2L263.6,245.2L259.9,245.2L256.2,245.2L252.5,245.2L248.9,245.2L245.2,245.2L241.5,245.2L237.8,245.2L234.1,245.2L230.4,245.2L226.7,245.2L223.1,245.2Z" fill-rule="evenodd" fill="#9aa0a8" fill-opacity="0.85" stroke="#cfd5de" stroke-width="1"/>
  <path d="M223.1,510.6L223.1,514.3L223.1,518L223.1,521.6L223.1,525.3L223.1,529L223.1,532.7L223.1,536.4L223.1,540.1L223.1,543.8L223.1,547.5L223.1,551.1L223.1,554.8L226.7,554.8L230.4,554.8L234.1,554.8L237.8,554.8L241.5,554.8L245.2,554.8L248.9,554.8L252.5,554.8L256.2,554.8L259.9,554.8L263.6,554.8L267.3,554.8L267.3,551.1L267.3,547.5L267.3,543.8L267.3,540.1L267.3,536.4L267.3,532.7L267.3,529L267.3,525.3L267.3,521.6L267.3,518L267.3,514.3L267.3,510.6L263.6,510.6L259.9,510.6L256.2,510.6L252.5,510.6L248.9,510.6L245.2,510.6L241.5,510.6L237.8,510.6L234.1,510.6L230.4,510.6L226.7,510.6L223.1,510.6Z" fill-rule="evenodd" fill="#9aa0a8" fill-opacity="0.85" stroke="#cfd5de" stroke-width="1"/>
</svg>
