<svg xmlns="http://www.w3.org/2000/svg" width="800" height="800" viewBox="0 0 800 800">
  <rect width="800" height="800" fill="#1b1e24"/>
  <text x="24" y="790" fill="#7b828d" font-family="monospace" font-size="13">annealing_iv · cleaned base · 12 islands</text>
  <path d="M33.8,265.9L33.8,269.2L33.8,272.5L33.8,275.8L33.8,279L33.8,282.3L33.8,285.6L33.8,288.8L33.8,292.1L33.8,295.4L33.8,298.6L33.8,301.9L33.8,305.2L33.8,308.5L33.8,311.7L33.8,315L33.8,318.3L33.8,321.5L33.8,324.8L33.8,328.1L30.5,328.1L30.5,331.3L27.3,331.3L27.3,334.6L24,334.6L24,337.9L27.3,337.9L30.5,337.9L33.8,337.9L33.8,341.1L37.1,341.1L40.3,341.1L43.6,341.1L46.9,341.1L46.9,344.4L50.2,344.4L53.4,344.4L56.7,344.4L60,344.4L60,347.7L63.2,347.7L66.5,347.7L69.8,347.7L73,347.7L76.3,347.7L76.3,351L79.6,351L82.9,351L86.1,351L89.4,351L89.4,354.2L92.7,354.2L95.9,354.2L99.2,354.2L102.5,354.2L102.5,357.5L105.7,357.5L109,357.5L112.3,357.5L115.5,357.5L118.8,357.5L118.8,360.8L122.1,360.8L125.4,360.8L128.6,360.8L131.9,360.8L131.9,364L135.2,364L138.4,364L141.7,364L145,364L145,367.3L148.2,367.3L151.5,367.3L154.8,367.3L154.8,370.6L158.1,370.6L161.3,370.6L161.3,373.8L164.6,373.8L164.6,377.1L167.9,377.1L171.1,377.1L171.1,380.4L174.4,380.4L174.4,383.7L177.7,383.7L180.9,383.7L180.9,386.9L177.7,386.9L177.7,390.2L174.4,390.2L174.4,393.5L171.1,393.5L171.1,396.7L167.9,396.7L167.9,400L164.6,400L164.6,403.3L161.3,403.3L161.3,406.5L158.1,406.5L158.1,409.8L154.8,409.8L154.8,413.1L151.5,413.1L151.5,416.3L151.5,419.6L148.2,419.6L148.2,422.9L148.2,426.2L148.2,429.4L148.2,432.7L145,432.7L145,436L145,439.2L145,442.5L145,445.8L141.7,445.8L141.7,449L138.4,449L135.2,449L135.2,445.8L131.9,445.8L128.6,445.8L128.6,442.5L125.4,442.5L122.1,442.5L122.1,439.2L118.8,439.2L115.5,439.2L115.5,436L112.3,436L109,436L109,432.7L105.7,432.7L102.5,432.7L102.5,436L99.2,436L95.9,436L95.9,439.2L92.7,439.2L92.7,442.5L89.4,442.5L86.1,442.5L86.1,445.8L82.9,445.8L82.9,449L79.6,449L76.3,449L76.3,452.3L73,452.3L73,455.6L73,458.9L73,462.1L76.3,462.1L76.3,465.4L76.3,468.7L76.3,471.9L76.3,475.2L79.6,475.2L79.6,478.5L79.6,481.7L79.6,485L79.6,488.3L82.9,488.3L82.9,491.5L82.9,494.8L86.1,494.8L86.1,498.1L89.4,498.1L92.7,498.1L92.7,501.4L95.9,501.4L99.2,501.4L99.2,504.6L102.5,504.6L105.7,504.6L105.7,507.9L109,507.9L112.3,507.9L112.3,511.2L115.5,511.2L115.5,514.4L118.8,514.4L122.1,514.4L122.1,517.7L125.4,517.7L128.6,517.7L128.6,521L131.9,521L135.2,521L135.2,524.2L138.4,524.2L141.7,524.2L141.7,527.5L145,527.5L145,530.8L148.2,530.8L151.5,530.8L151.5,534.1L154.8,534.1L158.1,534.1L158.1,537.3L161.3,537.3L164.6,537.3L164.6,540.6L167.9,540.6L171.1,540.6L171.1,543.9L174.4,543.9L174.4,540.6L174.4,537.3L174.4,534.1L177.7,534.1L177.7,530.8L177.7,527.5L177.7,524.2L177.7,521L180.9,521L180.9,517.7L180.9,514.4L180.9,511.2L180.9,507.9L184.2,507.9L184.2,504.6L184.2,501.4L187.5,501.4L190.7,501.4L190.7,498.1L194,498.1L197.3,498.1L197.3,494.8L200.6,494.8L200.6,491.5L203.8,491.5L207.1,491.5L207.1,488.3L210.4,488.3L213.6,488.3L213.6,485L216.9,485L216.9,481.7L220.2,481.7L223.4,481.7L223.4,478.5L226.7,478.5L230,478.5L230,475.2L233.3,475.2L236.5,475.2L236.5,478.5L239.8,478.5L243.1,478.5L243.1,481.7L246.3,481.7L249.6,481.7L249.6,485L252.9,485L252.9,481.7L252.9,478.5L252.9,475.2L252.9,471.9L252.9,468.7L252.9,465.4L252.9,462.1L252.9,458.9L252.9,455.6L249.6,455.6L249.6,452.3L249.6,449L249.6,445.8L249.6,442.5L249.6,439.2L249.6,436L249.6,432.7L249.6,429.4L249.6,426.2L249.6,422.9L249.6,419.6L246.3,419.6L246.3,416.3L246.3,413.1L246.3,409.8L246.3,406.5L246.3,403.3L246.3,400L246.3,396.7L246.3,393.5L246.3,390.2L246.3,386.9L246.3,383.7L243.1,383.7L243.1,380.4L243.1,377.1L243.1,373.8L243.1,370.6L243.1,367.3L243.1,364L239.8,364L236.5,364L236.5,360.8L233.3,360.8L230,360.8L226.7,360.8L226.7,357.5L223.4,357.5L220.2,357.5L216.9,357.5L216.9,354.2L213.6,354.2L210.4,354.2L207.1,354.2L207.1,357.5L203.8,357.5L200.6,357.5L200.6,360.8L197.3,360.8L194,360.8L190.7,360.8L190.7,357.5L190.7,354.2L190.7,351L187.5,351L187.5,347.7L187.5,344.4L187.5,341.1L184.2,341.1L184.2,337.9L184.2,334.6L184.2,331.3L180.9,331.3L180.9,328.1L180.9,324.8L180.9,321.5L177.7,321.5L177.7,318.3L177.7,315L177.7,311.7L174.4,311.7L174.4,308.5L174.4,305.2L171.1,305.2L167.9,305.2L164.6,305.2L164.6,301.9L161.3,301.9L158.1,301.9L154.8,301.9L151.5,301.9L148.2,301.9L148.2,298.6L145,298.6L141.7,298.6L138.4,298.6L135.2,298.6L131.9,298.6L131.9,295.4L128.6,295.4L125.4,295.4L122.1,295.4L118.8,295.4L115.5,295.4L115.5,292.1L112.3,292.1L109,292.1L105.7,292.1L102.5,292.1L99.2,292.1L99.2,288.8L95.9,288.8L92.7,288.8L89.4,288.8L86.1,288.8L82.9,288.8L82.9,285.6L79.6,285.6L76.3,285.6L73,285.6L73,282.3L69.8,282.3L66.5,282.3L66.5,279L63.2,279L60,279L60,275.8L56.7,275.8L53.4,275.8L53.4,272.5L50.2,272.5L46.9,272.5L46.9,269.2L43.6,269.2L40.3,269.2L40.3,265.9L37.1,265.9L33.8,265.9ZM207.1,406.5L210.4,406.5L213.6,406.5L213.6,409.8L216.9,409.8L216.9,413.1L220.2,413.1L220.2,416.3L220.2,419.6L216.9,419.6L216.9,422.9L216.9,426.2L216.9,429.4L213.6,429.4L213.6,432.7L213.6,436L213.6,439.2L210.4,439.2L210.4,442.5L210.4,445.8L207.1,445.8L207.1,449L203.8,449L203.8,452.3L200.6,452.3L200.6,455.6L197.3,455.6L197.3,458.9L194,458.9L194,462.1L190.7,462.1L187.5,462.1L184.2,462.1L180.9,462.1L177.7,462.1L174.4,462.1L171.1,462.1L171.1,458.9L167.9,458.9L167.9,455.6L164.6,455.6L164.6,452.3L167.9,452.3L167.9,449L171.1,449L171.1,445.8L174.4,445.8L174.4,442.5L177.7,442.5L177.7,439.2L180.9,439.2L180.9,436L184.2,436L184.2,432.7L184.2,429.4L187.5,429.4L187.5,426.2L187.5,422.9L190.7,422.9L190.7,419.6L190.7,416.3L194,416.3L194,413.1L197.3,413.1L200.6,413.1L200.6,409.8L203.8,409.8L207.1,409.8L207.1,406.5Z" fill-rule="evenodd" fill="#9aa0a8" fill-opacity="0.85" stroke="#cfd5de" stroke-width="1"/>
  <path d="M534.1,37.1L534.1,33.8L530.8,33.8L527.5,33.8L524.2,33.8L521,33.8L517.7,33.8L514.4,33.8L511.2,33.8L507.9,33.8L504.6,33.8L501.4,33.8L498.1,33.8L494.8,33.8L491.5,33.8L488.3,33.8L485,33.8L481.7,33.8L478.5,33.8L475.2,33.8L471.9,33.8L471.9,30.5L468.7,30.5L468.7,27.3L465.4,27.3L465.4,24L462.1,24L462.1,27.3L462.1,30.5L462.1,33.8L458.9,33.8L458.9,37.1L458.9,40.3L458.9,43.6L458.9,46.9L455.6,46.9L455.6,50.2L455.6,53.4L455.6,56.7L455.6,60L452.3,60L452.3,63.2L452.3,66.5L452.3,69.8L452.3,73L452.3,76.3L449,76.3L449,79.6L449,82.9L449,86.1L449,89.4L445.8,89.4L445.8,92.7L445.8,95.9L445.8,99.2L445.8,102.5L442.5,102.5L442.5,105.7L442.5,109L442.5,112.3L442.5,115.5L442.5,118.8L439.2,118.8L439.2,122.1L439.2,125.4L439.2,128.6L439.2,131.9L436,131.9L436,135.2L436,138.4L436,141.7L436,145L432.7,145L432.7,148.2L432.7,151.5L432.7,154.8L429.4,154.8L429.4,158.1L429.4,161.3L426.2,161.3L426.2,164.6L422.9,164.6L422.9,167.9L422.9,171.1L419.6,171.1L419.6,174.4L416.3,174.4L416.3,177.7L416.3,180.9L413.1,180.9L413.1,177.7L409.8,177.7L409.8,174.4L406.5,174.4L406.5,171.1L403.3,171.1L403.3,167.9L400,167.9L400,164.6L396.7,164.6L396.7,161.3L393.5,161.3L393.5,158.1L390.2,158.1L390.2,154.8L386.9,154.8L386.9,151.5L383.7,151.5L380.4,151.5L380.4,148.2L377.1,148.2L373.8,148.2L370.6,148.2L367.3,148.2L367.3,145L364,145L360.8,145L357.5,145L354.2,145L354.2,141.7L351,141.7L351,138.4L351,135.2L354.2,135.2L354.2,131.9L354.2,128.6L357.5,128.6L357.5,125.4L357.5,122.1L360.8,122.1L360.8,118.8L360.8,115.5L364,115.5L364,112.3L364,109L367.3,109L367.3,105.7L367.3,102.5L364,102.5L364,99.2L364,95.9L360.8,95.9L360.8,92.7L357.5,92.7L357.5,89.4L357.5,86.1L354.2,86.1L354.2,82.9L351,82.9L351,79.6L351,76.3L347.7,76.3L347.7,73L344.4,73L341.1,73L337.9,73L337.9,76.3L334.6,76.3L331.3,76.3L328.1,76.3L324.8,76.3L324.8,79.6L321.5,79.6L318.3,79.6L315,79.6L311.7,79.6L311.7,82.9L308.5,82.9L305.2,82.9L305.2,86.1L301.9,86.1L301.9,89.4L301.9,92.7L298.6,92.7L298.6,95.9L298.6,99.2L295.4,99.2L295.4,102.5L295.4,105.7L292.1,105.7L292.1,109L292.1,112.3L288.8,112.3L288.8,115.5L285.6,115.5L285.6,118.8L285.6,122.1L282.3,122.1L282.3,125.4L282.3,128.6L279,128.6L279,131.9L279,135.2L275.8,135.2L275.8,138.4L275.8,141.7L272.5,141.7L272.5,145L269.2,145L269.2,148.2L269.2,151.5L265.9,151.5L265.9,154.8L265.9,158.1L262.7,158.1L262.7,161.3L262.7,164.6L259.4,164.6L259.4,167.9L259.4,171.1L256.1,171.1L256.1,174.4L259.4,174.4L262.7,174.4L265.9,174.4L265.9,177.7L269.2,177.7L272.5,177.7L275.8,177.7L279,177.7L279,180.9L282.3,180.9L285.6,180.9L288.8,180.9L292.1,180.9L292.1,184.2L295.4,184.2L298.6,184.2L298.6,187.5L298.6,190.7L301.9,190.7L301.9,194L301.9,197.3L305.2,197.3L305.2,200.6L308.5,200.6L308.5,203.8L308.5,207.1L311.7,207.1L311.7,210.4L311.7,213.6L315,213.6L315,216.9L318.3,216.9L318.3,220.2L318.3,223.4L321.5,223.4L321.5,226.7L321.5,230L324.8,230L324.8,233.3L324.8,236.5L321.5,236.5L321.5,239.8L321.5,243.1L318.3,243.1L318.3,246.3L318.3,249.6L315,249.6L315,252.9L318.3,252.9L321.5,252.9L324.8,252.9L328.1,252.9L331.3,252.9L334.6,252.9L337.9,252.9L341.1,252.9L344.4,252.9L344.4,249.6L347.7,249.6L351,249.6L354.2,249.6L357.5,249.6L360.8,249.6L364,249.6L367.3,249.6L370.6,249.6L373.8,249.6L377.1,249.6L380.4,249.6L380.4,246.3L383.7,246.3L386.9,246.3L390.2,246.3L393.5,246.3L396.7,246.3L400,246.3L403.3,246.3L406.5,246.3L409.8,246.3L413.1,246.3L416.3,246.3L416.3,243.1L419.6,243.1L422.9,243.1L426.2,243.1L429.4,243.1L432.7,243.1L436,243.1L436,239.8L436,236.5L439.2,236.5L439.2,233.3L439.2,230L439.2,226.7L442.5,226.7L442.5,223.4L442.5,220.2L442.5,216.9L445.8,216.9L445.8,213.6L445.8,210.4L445.8,207.1L442.5,207.1L442.5,203.8L442.5,200.6L439.2,200.6L439.2,197.3L439.2,194L439.2,190.7L442.5,190.7L445.8,190.7L449,190.7L449,187.5L452.3,187.5L455.6,187.5L458.9,187.5L458.9,184.2L462.1,184.2L465.4,184.2L468.7,184.2L468.7,180.9L471.9,180.9L475.2,180.9L478.5,180.9L478.5,177.7L481.7,177.7L485,177.7L488.3,177.7L488.3,174.4L491.5,174.4L494.8,174.4L494.8,171.1L494.8,167.9L494.8,164.6L498.1,164.6L498.1,161.3L498.1,158.1L498.1,154.8L498.1,151.5L498.1,148.2L501.4,148.2L501.4,145L501.4,141.7L501.4,138.4L501.4,135.2L501.4,131.9L504.6,131.9L504.6,128.6L504.6,125.4L504.6,122.1L504.6,118.8L504.6,115.5L507.9,115.5L507.9,112.3L507.9,109L507.9,105.7L507.9,102.5L507.9,99.2L511.2,99.2L511.2,95.9L511.2,92.7L511.2,89.4L511.2,86.1L511.2,82.9L514.4,82.9L514.4,79.6L514.4,76.3L514.4,73L517.7,73L517.7,69.8L517.7,66.5L521,66.5L521,63.2L521,60L524.2,60L524.2,56.7L524.2,53.4L527.5,53.4L527.5,50.2L527.5,46.9L530.8,46.9L530.8,43.6L530.8,40.3L534.1,40.3L534.1,37.1ZM360.8,213.6L360.8,210.4L357.5,210.4L354.2,210.4L354.2,207.1L351,207.1L351,203.8L347.7,203.8L347.7,200.6L344.4,200.6L344.4,197.3L341.1,197.3L341.1,194L337.9,194L337.9,190.7L337.9,187.5L337.9,184.2L337.9,180.9L337.9,177.7L337.9,174.4L337.9,171.1L341.1,171.1L341.1,167.9L344.4,167.9L344.4,164.6L347.7,164.6L347.7,167.9L351,167.9L351,171.1L354.2,171.1L354.2,174.4L357.5,174.4L357.5,177.7L360.8,177.7L360.8,180.9L364,180.9L364,184.2L367.3,184.2L370.6,184.2L370.6,187.5L373.8,187.5L377.1,187.5L377.1,190.7L380.4,190.7L383.7,190.7L383.7,194L386.9,194L386.9,197.3L386.9,200.6L390.2,200.6L390.2,203.8L390.2,207.1L393.5,207.1L393.5,210.4L393.5,213.6L390.2,213.6L390.2,216.9L386.9,216.9L386.9,220.2L383.7,220.2L380.4,220.2L380.4,216.9L377.1,216.9L373.8,216.9L370.6,216.9L370.6,213.6L367.3,213.6L364,213.6L360.8,213.6Z" fill-rule="evenodd" fill="#9aa0a8" fill-opacity="0.85" stroke="#cfd5de" stroke-width="1"/>
  <path d="M455.6,547.1L455.6,550.4L452.3,550.4L449,550.4L445.8,550.4L442.5,550.4L439.2,550.4L436,550.4L432.7,550.4L429.4,550.4L426.2,550.4L422.9,550.4L419.6,550.4L419.6,553.7L416.3,553.7L413.1,553.7L409.8,553.7L406.5,553.7L403.3,553.7L400,553.7L396.7,553.7L393.5,553.7L390.2,553.7L386.9,553.7L383.7,553.7L383.7,556.9L380.4,556.9L377.1,556.9L373.8,556.9L370.6,556.9L367.3,556.9L364,556.9L364,560.2L364,563.5L360.8,563.5L360.8,566.7L360.8,570L360.8,573.3L357.5,573.3L357.5,576.6L357.5,579.8L357.5,583.1L354.2,583.1L354.2,586.4L354.2,589.6L354.2,592.9L357.5,592.9L357.5,596.2L357.5,599.4L360.8,599.4L360.8,602.7L360.8,606L360.8,609.3L357.5,609.3L354.2,609.3L351,609.3L351,612.5L347.7,612.5L344.4,612.5L341.1,612.5L341.1,615.8L337.9,615.8L334.6,615.8L331.3,615.8L331.3,619.1L328.1,619.1L324.8,619.1L321.5,619.1L321.5,622.3L318.3,622.3L315,622.3L311.7,622.3L311.7,625.6L308.5,625.6L305.2,625.6L305.2,628.9L305.2,632.1L305.2,635.4L301.9,635.4L301.9,638.7L301.9,641.9L301.9,645.2L301.9,648.5L301.9,651.8L298.6,651.8L298.6,655L298.6,658.3L298.6,661.6L298.6,664.8L298.6,668.1L295.4,668.1L295.4,671.4L295.4,674.6L295.4,677.9L295.4,681.2L295.4,684.5L292.1,684.5L292.1,687.7L292.1,691L292.1,694.3L292.1,697.5L292.1,700.8L288.8,700.8L288.8,704.1L288.8,707.3L288.8,710.6L288.8,713.9L288.8,717.1L285.6,717.1L285.6,720.4L285.6,723.7L285.6,727L282.3,727L282.3,730.2L282.3,733.5L279,733.5L279,736.8L279,740L275.8,740L275.8,743.3L275.8,746.6L272.5,746.6L272.5,749.8L272.5,753.1L269.2,753.1L269.2,756.4L269.2,759.7L265.9,759.7L265.9,762.9L265.9,766.2L269.2,766.2L272.5,766.2L275.8,766.2L279,766.2L282.3,766.2L285.6,766.2L288.8,766.2L292.1,766.2L295.4,766.2L298.6,766.2L301.9,766.2L305.2,766.2L308.5,766.2L311.7,766.2L315,766.2L318.3,766.2L321.5,766.2L324.8,766.2L328.1,766.2L328.1,769.5L331.3,769.5L331.3,772.7L334.6,772.7L334.6,776L337.9,776L337.9,772.7L337.9,769.5L337.9,766.2L341.1,766.2L341.1,762.9L341.1,759.7L341.1,756.4L341.1,753.1L344.4,753.1L344.4,749.8L344.4,746.6L344.4,743.3L344.4,740L347.7,740L347.7,736.8L347.7,733.5L347.7,730.2L347.7,727L347.7,723.7L351,723.7L351,720.4L351,717.1L351,713.9L351,710.6L354.2,710.6L354.2,707.3L354.2,704.1L354.2,700.8L354.2,697.5L357.5,697.5L357.5,694.3L357.5,691L357.5,687.7L357.5,684.5L357.5,681.2L360.8,681.2L360.8,677.9L360.8,674.6L360.8,671.4L360.8,668.1L364,668.1L364,664.8L364,661.6L364,658.3L364,655L367.3,655L367.3,651.8L367.3,648.5L367.3,645.2L370.6,645.2L370.6,641.9L370.6,638.7L373.8,638.7L373.8,635.4L377.1,635.4L377.1,632.1L377.1,628.9L380.4,628.9L380.4,625.6L383.7,625.6L383.7,622.3L383.7,619.1L386.9,619.1L386.9,622.3L390.2,622.3L390.2,625.6L393.5,625.6L393.5,628.9L396.7,628.9L396.7,632.1L400,632.1L400,635.4L403.3,635.4L403.3,638.7L406.5,638.7L406.5,641.9L409.8,641.9L409.8,645.2L413.1,645.2L413.1,648.5L416.3,648.5L419.6,648.5L419.6,651.8L422.9,651.8L426.2,651.8L429.4,651.8L432.7,651.8L432.7,655L436,655L439.2,655L442.5,655L445.8,655L445.8,658.3L449,658.3L449,661.6L449,664.8L445.8,664.8L445.8,668.1L445.8,671.4L442.5,671.4L442.5,674.6L442.5,677.9L439.2,677.9L439.2,681.2L439.2,684.5L436,684.5L436,687.7L436,691L432.7,691L432.7,694.3L432.7,697.5L436,697.5L436,700.8L436,704.1L439.2,704.1L439.2,707.3L442.5,707.3L442.5,710.6L442.5,713.9L445.8,713.9L445.8,717.1L449,717.1L449,720.4L449,723.7L452.3,723.7L452.3,727L455.6,727L458.9,727L462.1,727L462.1,723.7L465.4,723.7L468.7,723.7L471.9,723.7L475.2,723.7L475.2,720.4L478.5,720.4L481.7,720.4L485,720.4L488.3,720.4L488.3,717.1L491.5,717.1L494.8,717.1L494.8,713.9L498.1,713.9L498.1,710.6L498.1,707.3L501.4,707.3L501.4,704.1L501.4,700.8L504.6,700.8L504.6,697.5L504.6,694.3L507.9,694.3L507.9,691L507.9,687.7L511.2,687.7L511.2,684.5L514.4,684.5L514.4,681.2L514.4,677.9L517.7,677.9L517.7,674.6L517.7,671.4L521,671.4L521,668.1L521,664.8L524.2,664.8L524.2,661.6L524.2,658.3L527.5,658.3L527.5,655L530.8,655L530.8,651.8L530.8,648.5L534.1,648.5L534.1,645.2L534.1,641.9L537.3,641.9L537.3,638.7L537.3,635.4L540.6,635.4L540.6,632.1L540.6,628.9L543.9,628.9L543.9,625.6L540.6,625.6L537.3,625.6L534.1,625.6L534.1,622.3L530.8,622.3L527.5,622.3L524.2,622.3L521,622.3L521,619.1L517.7,619.1L514.4,619.1L511.2,619.1L507.9,619.1L507.9,615.8L504.6,615.8L501.4,615.8L501.4,612.5L501.4,609.3L498.1,609.3L498.1,606L498.1,602.7L494.8,602.7L494.8,599.4L491.5,599.4L491.5,596.2L491.5,592.9L488.3,592.9L488.3,589.6L488.3,586.4L485,586.4L485,583.1L481.7,583.1L481.7,579.8L481.7,576.6L478.5,576.6L478.5,573.3L478.5,570L475.2,570L475.2,566.7L475.2,563.5L478.5,563.5L478.5,560.2L478.5,556.9L481.7,556.9L481.7,553.7L481.7,550.4L485,550.4L485,547.1L481.7,547.1L478.5,547.1L475.2,547.1L471.9,547.1L468.7,547.1L465.4,547.1L462.1,547.1L458.9,547.1L455.6,547.1ZM419.6,579.8L419.6,583.1L422.9,583.1L426.2,583.1L429.4,583.1L429.4,586.4L432.7,586.4L436,586.4L439.2,586.4L439.2,589.6L442.5,589.6L445.8,589.6L445.8,592.9L449,592.9L449,596.2L452.3,596.2L452.3,599.4L455.6,599.4L455.6,602.7L458.9,602.7L458.9,606L462.1,606L462.1,609.3L462.1,612.5L462.1,615.8L462.1,619.1L462.1,622.3L462.1,625.6L462.1,628.9L458.9,628.9L458.9,632.1L455.6,632.1L455.6,635.4L452.3,635.4L452.3,632.1L449,632.1L449,628.9L445.8,628.9L445.8,625.6L442.5,625.6L442.5,622.3L439.2,622.3L439.2,619.1L436,619.1L436,615.8L432.7,615.8L429.4,615.8L429.4,612.5L426.2,612.5L422.9,612.5L422.9,609.3L419.6,609.3L416.3,609.3L416.3,606L413.1,606L413.1,602.7L413.1,599.4L409.8,599.4L409.8,596.2L409.8,592.9L406.5,592.9L406.5,589.6L406.5,586.4L409.8,586.4L409.8,583.1L413.1,583.1L413.1,579.8L416.3,579.8L419.6,579.8Z" fill-rule="evenodd" fill="#9aa0a8" fill-opacity="0.85" stroke="#cfd5de" stroke-width="1"/>
  <path d="M641.9,265.9L641.9,262.7L638.7,262.7L635.4,262.7L635.4,259.4L632.1,259.4L628.9,259.4L628.9,256.1L625.6,256.1L625.6,259.4L625.6,262.7L625.6,265.9L622.3,265.9L622.3,269.2L622.3,272.5L622.3,275.8L622.3,279L619.1,279L619.1,282.3L619.1,285.6L619.1,288.8L619.1,292.1L615.8,292.1L615.8,295.4L615.8,298.6L612.5,298.6L609.3,298.6L609.3,301.9L606,301.9L602.7,301.9L602.7,305.2L599.4,305.2L599.4,308.5L596.2,308.5L592.9,308.5L592.9,311.7L589.6,311.7L586.4,311.7L586.4,315L583.1,315L583.1,318.3L579.8,318.3L576.6,318.3L576.6,321.5L573.3,321.5L570,321.5L570,324.8L566.7,324.8L563.5,324.8L563.5,321.5L560.2,321.5L556.9,321.5L556.9,318.3L553.7,318.3L550.4,318.3L550.4,315L547.1,315L547.1,318.3L547.1,321.5L547.1,324.8L547.1,328.1L547.1,331.3L547.1,334.6L547.1,337.9L547.1,341.1L547.1,344.4L550.4,344.4L550.4,347.7L550.4,351L550.4,354.2L550.4,357.5L550.4,360.8L550.4,364L550.4,367.3L550.4,370.6L550.4,373.8L550.4,377.1L550.4,380.4L553.7,380.4L553.7,383.7L553.7,386.9L553.7,390.2L553.7,393.5L553.7,396.7L553.7,400L553.7,403.3L553.7,406.5L553.7,409.8L553.7,413.1L553.7,416.3L556.9,416.3L556.9,419.6L556.9,422.9L556.9,426.2L556.9,429.4L556.9,432.7L556.9,436L560.2,436L563.5,436L563.5,439.2L566.7,439.2L570,439.2L573.3,439.2L573.3,442.5L576.6,442.5L579.8,442.5L583.1,442.5L583.1,445.8L586.4,445.8L589.6,445.8L592.9,445.8L592.9,442.5L596.2,442.5L599.4,442.5L599.4,439.2L602.7,439.2L606,439.2L609.3,439.2L609.3,442.5L609.3,445.8L609.3,449L612.5,449L612.5,452.3L612.5,455.6L612.5,458.9L615.8,458.9L615.8,462.1L615.8,465.4L615.8,468.7L619.1,468.7L619.1,471.9L619.1,475.2L619.1,478.5L622.3,478.5L622.3,481.7L622.3,485L622.3,488.3L625.6,488.3L625.6,491.5L625.6,494.8L628.9,494.8L632.1,494.8L635.4,494.8L635.4,498.1L638.7,498.1L641.9,498.1L645.2,498.1L648.5,498.1L651.8,498.1L651.8,501.4L655,501.4L658.3,501.4L661.6,501.4L664.8,501.4L668.1,501.4L668.1,504.6L671.4,504.6L674.6,504.6L677.9,504.6L681.2,504.6L684.5,504.6L684.5,507.9L687.7,507.9L691,507.9L694.3,507.9L697.5,507.9L700.8,507.9L700.8,511.2L704.1,511.2L707.3,511.2L710.6,511.2L713.9,511.2L717.1,511.2L717.1,514.4L720.4,514.4L723.7,514.4L727,514.4L727,517.7L730.2,517.7L733.5,517.7L733.5,521L736.8,521L740,521L740,524.2L743.3,524.2L746.6,524.2L746.6,527.5L749.8,527.5L753.1,527.5L753.1,530.8L756.4,530.8L759.7,530.8L759.7,534.1L762.9,534.1L766.2,534.1L766.2,530.8L766.2,527.5L766.2,524.2L766.2,521L766.2,517.7L766.2,514.4L766.2,511.2L766.2,507.9L766.2,504.6L766.2,501.4L766.2,498.1L766.2,494.8L766.2,491.5L766.2,488.3L766.2,485L766.2,481.7L766.2,478.5L766.2,475.2L766.2,471.9L769.5,471.9L769.5,468.7L772.7,468.7L772.7,465.4L776,465.4L776,462.1L772.7,462.1L769.5,462.1L766.2,462.1L766.2,458.9L762.9,458.9L759.7,458.9L756.4,458.9L753.1,458.9L753.1,455.6L749.8,455.6L746.6,455.6L743.3,455.6L740,455.6L740,452.3L736.8,452.3L733.5,452.3L730.2,452.3L727,452.3L723.7,452.3L723.7,449L720.4,449L717.1,449L713.9,449L710.6,449L710.6,445.8L707.3,445.8L704.1,445.8L700.8,445.8L697.5,445.8L697.5,442.5L694.3,442.5L691,442.5L687.7,442.5L684.5,442.5L681.2,442.5L681.2,439.2L677.9,439.2L674.6,439.2L671.4,439.2L668.1,439.2L668.1,436L664.8,436L661.6,436L658.3,436L655,436L655,432.7L651.8,432.7L648.5,432.7L645.2,432.7L645.2,429.4L641.9,429.4L638.7,429.4L638.7,426.2L635.4,426.2L635.4,422.9L632.1,422.9L628.9,422.9L628.9,419.6L625.6,419.6L625.6,416.3L622.3,416.3L619.1,416.3L619.1,413.1L622.3,413.1L622.3,409.8L625.6,409.8L625.6,406.5L628.9,406.5L628.9,403.3L632.1,403.3L632.1,400L635.4,400L635.4,396.7L638.7,396.7L638.7,393.5L641.9,393.5L641.9,390.2L645.2,390.2L645.2,386.9L648.5,386.9L648.5,383.7L648.5,380.4L651.8,380.4L651.8,377.1L651.8,373.8L651.8,370.6L651.8,367.3L655,367.3L655,364L655,360.8L655,357.5L655,354.2L658.3,354.2L658.3,351L661.6,351L664.8,351L664.8,354.2L668.1,354.2L671.4,354.2L671.4,357.5L674.6,357.5L677.9,357.5L677.9,360.8L681.2,360.8L684.5,360.8L684.5,364L687.7,364L691,364L691,367.3L694.3,367.3L697.5,367.3L697.5,364L700.8,364L704.1,364L704.1,360.8L707.3,360.8L707.3,357.5L710.6,357.5L713.9,357.5L713.9,354.2L717.1,354.2L717.1,351L720.4,351L723.7,351L723.7,347.7L727,347.7L727,344.4L727,341.1L727,337.9L723.7,337.9L723.7,334.6L723.7,331.3L723.7,328.1L723.7,324.8L720.4,324.8L720.4,321.5L720.4,318.3L720.4,315L720.4,311.7L717.1,311.7L717.1,308.5L717.1,305.2L713.9,305.2L713.9,301.9L710.6,301.9L707.3,301.9L707.3,298.6L704.1,298.6L700.8,298.6L700.8,295.4L697.5,295.4L694.3,295.4L694.3,292.1L691,292.1L687.7,292.1L687.7,288.8L684.5,288.8L684.5,285.6L681.2,285.6L677.9,285.6L677.9,282.3L674.6,282.3L671.4,282.3L671.4,279L668.1,279L664.8,279L664.8,275.8L661.6,275.8L658.3,275.8L658.3,272.5L655,272.5L655,269.2L651.8,269.2L648.5,269.2L648.5,265.9L645.2,265.9L641.9,265.9ZM632.1,341.1L632.1,344.4L635.4,344.4L635.4,347.7L632.1,347.7L632.1,351L628.9,351L628.9,354.2L625.6,354.2L625.6,357.5L622.3,357.5L622.3,360.8L619.1,360.8L619.1,364L615.8,364L615.8,367.3L615.8,370.6L612.5,370.6L612.5,373.8L612.5,377.1L609.3,377.1L609.3,380.4L609.3,383.7L606,383.7L606,386.9L602.7,386.9L599.4,386.9L599.4,390.2L596.2,390.2L592.9,390.2L592.9,393.5L589.6,393.5L586.4,393.5L586.4,390.2L583.1,390.2L583.1,386.9L579.8,386.9L579.8,383.7L579.8,380.4L583.1,380.4L583.1,377.1L583.1,373.8L583.1,370.6L586.4,370.6L586.4,367.3L586.4,364L586.4,360.8L589.6,360.8L589.6,357.5L589.6,354.2L592.9,354.2L592.9,351L596.2,351L596.2,347.7L599.4,347.7L599.4,344.4L602.7,344.4L602.7,341.1L606,341.1L606,337.9L609.3,337.9L612.5,337.9L615.8,337.9L619.1,337.9L622.3,337.9L625.6,337.9L628.9,337.9L628.9,341.1L632.1,341.1Z" fill-rule="evenodd" fill="#9aa0a8" fill-opacity="0.85" stroke="#cfd5de" stroke-width="1"/>
  <path d="M236.5,249.6L236.5,252.9L236.5,256.1L239.8,256.1L239.8,259.4L239.8,262.7L243.1,262.7L243.1,265.9L243.1,269.2L243.1,272.5L246.3,272.5L246.3,275.8L246.3,279L249.6,279L249.6,282.3L249.6,285.6L249.6,288.8L252.9,288.8L252.9,292.1L252.9,295.4L256.1,295.4L256.1,298.6L256.1,301.9L252.9,301.9L252.9,305.2L249.6,305.2L249.6,308.5L246.3,308.5L246.3,311.7L249.6,311.7L249.6,315L252.9,315L256.1,315L256.1,318.3L259.4,318.3L259.4,321.5L262.7,321.5L265.9,321.5L265.9,324.8L269.2,324.8L269.2,328.1L272.5,328.1L275.8,328.1L275.8,331.3L279,331.3L279,328.1L282.3,328.1L285.6,328.1L285.6,324.8L288.8,324.8L288.8,321.5L292.1,321.5L295.4,321.5L295.4,318.3L298.6,318.3L298.6,315L301.9,315L305.2,315L305.2,311.7L308.5,311.7L311.7,311.7L311.7,315L315,315L318.3,315L321.5,315L321.5,318.3L324.8,318.3L328.1,318.3L331.3,318.3L331.3,321.5L334.6,321.5L337.9,321.5L337.9,318.3L337.9,315L341.1,315L341.1,311.7L341.1,308.5L341.1,305.2L344.4,305.2L344.4,301.9L344.4,298.6L344.4,295.4L347.7,295.4L347.7,292.1L347.7,288.8L344.4,288.8L341.1,288.8L337.9,288.8L334.6,288.8L331.3,288.8L328.1,288.8L324.8,288.8L321.5,288.8L318.3,288.8L315,288.8L311.7,288.8L308.5,288.8L305.2,288.8L301.9,288.8L298.6,288.8L298.6,285.6L298.6,282.3L298.6,279L295.4,279L295.4,275.8L292.1,275.8L292.1,272.5L288.8,272.5L288.8,269.2L285.6,269.2L285.6,265.9L282.3,265.9L282.3,262.7L279,262.7L279,259.4L275.8,259.4L272.5,259.4L272.5,256.1L269.2,256.1L265.9,256.1L262.7,256.1L259.4,256.1L259.4,252.9L256.1,252.9L252.9,252.9L249.6,252.9L246.3,252.9L246.3,249.6L243.1,249.6L239.8,249.6L236.5,249.6Z" fill-rule="evenodd" fill="#9aa0a8" fill-opacity="0.85" stroke="#cfd5de" stroke-width="1"/>
  <path d="M288.8,452.3L288.8,455.6L288.8,458.9L288.8,462.1L288.8,465.4L288.8,468.7L288.8,471.9L288.8,475.2L288.8,478.5L288.8,481.7L288.8,485L288.8,488.3L288.8,491.5L288.8,494.8L288.8,498.1L288.8,501.4L285.6,501.4L282.3,501.4L279,501.4L279,504.6L275.8,504.6L275.8,507.9L272.5,507.9L272.5,511.2L269.2,511.2L269.2,514.4L265.9,514.4L265.9,517.7L262.7,517.7L262.7,521L259.4,521L259.4,524.2L259.4,527.5L256.1,527.5L256.1,530.8L256.1,534.1L256.1,537.3L256.1,540.6L252.9,540.6L252.9,543.9L252.9,547.1L252.9,550.4L252.9,553.7L249.6,553.7L249.6,556.9L249.6,560.2L249.6,563.5L252.9,563.5L256.1,563.5L256.1,560.2L259.4,560.2L262.7,560.2L262.7,556.9L265.9,556.9L269.2,556.9L272.5,556.9L272.5,553.7L275.8,553.7L279,553.7L279,550.4L282.3,550.4L285.6,550.4L288.8,550.4L288.8,547.1L292.1,547.1L295.4,547.1L295.4,543.9L298.6,543.9L301.9,543.9L301.9,547.1L305.2,547.1L305.2,550.4L308.5,550.4L308.5,553.7L311.7,553.7L311.7,550.4L315,550.4L315,547.1L315,543.9L318.3,543.9L318.3,540.6L321.5,540.6L321.5,537.3L321.5,534.1L324.8,534.1L324.8,530.8L328.1,530.8L328.1,527.5L328.1,524.2L331.3,524.2L331.3,521L328.1,521L328.1,517.7L328.1,514.4L324.8,514.4L324.8,511.2L321.5,511.2L321.5,507.9L321.5,504.6L318.3,504.6L318.3,501.4L315,501.4L315,498.1L315,494.8L311.7,494.8L311.7,491.5L311.7,488.3L315,488.3L315,485L315,481.7L315,478.5L318.3,478.5L318.3,475.2L318.3,471.9L318.3,468.7L321.5,468.7L321.5,465.4L321.5,462.1L318.3,462.1L315,462.1L315,458.9L311.7,458.9L308.5,458.9L305.2,458.9L305.2,455.6L301.9,455.6L298.6,455.6L295.4,455.6L295.4,452.3L292.1,452.3L288.8,452.3Z" fill-rule="evenodd" fill="#9aa0a8" fill-opacity="0.85" stroke="#cfd5de" stroke-width="1"/>
  <path d="M462.1,478.5L462.1,481.7L462.1,485L458.9,485L458.9,488.3L458.9,491.5L458.9,494.8L455.6,494.8L455.6,498.1L455.6,501.4L455.6,504.6L452.3,504.6L452.3,507.9L452.3,511.2L455.6,511.2L458.9,511.2L462.1,511.2L465.4,511.2L468.7,511.2L471.9,511.2L475.2,511.2L478.5,511.2L481.7,511.2L485,511.2L488.3,511.2L491.5,511.2L494.8,511.2L498.1,511.2L501.4,511.2L501.4,514.4L501.4,517.7L501.4,521L504.6,521L504.6,524.2L507.9,524.2L507.9,527.5L511.2,527.5L511.2,530.8L514.4,530.8L514.4,534.1L517.7,534.1L517.7,537.3L521,537.3L521,540.6L524.2,540.6L527.5,540.6L527.5,543.9L530.8,543.9L534.1,543.9L537.3,543.9L540.6,543.9L540.6,547.1L543.9,547.1L547.1,547.1L550.4,547.1L553.7,547.1L553.7,550.4L556.9,550.4L560.2,550.4L563.5,550.4L563.5,547.1L563.5,543.9L560.2,543.9L560.2,540.6L560.2,537.3L556.9,537.3L556.9,534.1L556.9,530.8L556.9,527.5L553.7,527.5L553.7,524.2L553.7,521L550.4,521L550.4,517.7L550.4,514.4L550.4,511.2L547.1,511.2L547.1,507.9L547.1,504.6L543.9,504.6L543.9,501.4L543.9,498.1L547.1,498.1L547.1,494.8L550.4,494.8L550.4,491.5L553.7,491.5L553.7,488.3L550.4,488.3L550.4,485L547.1,485L543.9,485L543.9,481.7L540.6,481.7L540.6,478.5L537.3,478.5L534.1,478.5L534.1,475.2L530.8,475.2L530.8,471.9L527.5,471.9L524.2,471.9L524.2,468.7L521,468.7L521,471.9L517.7,471.9L514.4,471.9L514.4,475.2L511.2,475.2L511.2,478.5L507.9,478.5L504.6,478.5L504.6,481.7L501.4,481.7L501.4,485L498.1,485L494.8,485L494.8,488.3L491.5,488.3L488.3,488.3L488.3,485L485,485L481.7,485L478.5,485L478.5,481.7L475.2,481.7L471.9,481.7L468.7,481.7L468.7,478.5L465.4,478.5L462.1,478.5Z" fill-rule="evenodd" fill="#9aa0a8" fill-opacity="0.85" stroke="#cfd5de" stroke-width="1"/>
  <path d="M543.9,236.5L543.9,239.8L540.6,239.8L537.3,239.8L537.3,243.1L534.1,243.1L530.8,243.1L527.5,243.1L527.5,246.3L524.2,246.3L521,246.3L521,249.6L517.7,249.6L514.4,249.6L511.2,249.6L511.2,252.9L507.9,252.9L504.6,252.9L504.6,256.1L501.4,256.1L498.1,256.1L498.1,252.9L494.8,252.9L494.8,249.6L491.5,249.6L491.5,246.3L488.3,246.3L488.3,249.6L485,249.6L485,252.9L485,256.1L481.7,256.1L481.7,259.4L478.5,259.4L478.5,262.7L478.5,265.9L475.2,265.9L475.2,269.2L471.9,269.2L471.9,272.5L471.9,275.8L468.7,275.8L468.7,279L471.9,279L471.9,282.3L471.9,285.6L475.2,285.6L475.2,288.8L478.5,288.8L478.5,292.1L478.5,295.4L481.7,295.4L481.7,298.6L485,298.6L485,301.9L485,305.2L488.3,305.2L488.3,308.5L488.3,311.7L485,311.7L485,315L485,318.3L485,321.5L481.7,321.5L481.7,324.8L481.7,328.1L481.7,331.3L478.5,331.3L478.5,334.6L478.5,337.9L481.7,337.9L485,337.9L485,341.1L488.3,341.1L491.5,341.1L494.8,341.1L494.8,344.4L498.1,344.4L501.4,344.4L504.6,344.4L504.6,347.7L507.9,347.7L511.2,347.7L511.2,344.4L511.2,341.1L511.2,337.9L511.2,334.6L511.2,331.3L511.2,328.1L511.2,324.8L511.2,321.5L511.2,318.3L511.2,315L511.2,311.7L511.2,308.5L511.2,305.2L511.2,301.9L511.2,298.6L514.4,298.6L517.7,298.6L521,298.6L521,295.4L524.2,295.4L524.2,292.1L527.5,292.1L527.5,288.8L530.8,288.8L530.8,285.6L534.1,285.6L534.1,282.3L537.3,282.3L537.3,279L540.6,279L540.6,275.8L540.6,272.5L543.9,272.5L543.9,269.2L543.9,265.9L543.9,262.7L543.9,259.4L547.1,259.4L547.1,256.1L547.1,252.9L547.1,249.6L547.1,246.3L550.4,246.3L550.4,243.1L550.4,239.8L550.4,236.5L547.1,236.5L543.9,236.5Z" fill-rule="evenodd" fill="#9aa0a8" fill-opacity="0.85" stroke="#cfd5de" stroke-width="1"/>
  <path d="M288.8,344.4L288.8,347.7L285.6,347.7L285.6,351L285.6,354.2L282.3,354.2L282.3,357.5L282.3,360.8L279,360.8L279,364L279,367.3L279,370.6L279,373.8L282.3,373.8L282.3,377.1L282.3,380.4L282.3,383.7L282.3,386.9L282.3,390.2L285.6,390.2L285.6,393.5L285.6,396.7L285.6,400L285.6,403.3L285.6,406.5L288.8,406.5L288.8,409.8L288.8,413.1L288.8,416.3L292.1,416.3L295.4,416.3L295.4,419.6L298.6,419.6L301.9,419.6L305.2,419.6L305.2,422.9L308.5,422.9L311.7,422.9L315,422.9L315,426.2L318.3,426.2L321.5,426.2L324.8,426.2L324.8,422.9L328.1,422.9L331.3,422.9L334.6,422.9L334.6,419.6L337.9,419.6L341.1,419.6L344.4,419.6L344.4,416.3L347.7,416.3L351,416.3L351,413.1L351,409.8L354.2,409.8L354.2,406.5L354.2,403.3L357.5,403.3L357.5,400L357.5,396.7L360.8,396.7L360.8,393.5L357.5,393.5L354.2,393.5L354.2,390.2L351,390.2L347.7,390.2L344.4,390.2L341.1,390.2L341.1,386.9L337.9,386.9L334.6,386.9L331.3,386.9L328.1,386.9L328.1,383.7L324.8,383.7L324.8,380.4L328.1,380.4L328.1,377.1L331.3,377.1L331.3,373.8L334.6,373.8L334.6,370.6L337.9,370.6L337.9,367.3L341.1,367.3L341.1,364L337.9,364L337.9,360.8L334.6,360.8L334.6,357.5L331.3,357.5L331.3,354.2L328.1,354.2L324.8,354.2L321.5,354.2L318.3,354.2L315,354.2L311.7,354.2L308.5,354.2L308.5,351L305.2,351L301.9,351L301.9,347.7L298.6,347.7L295.4,347.7L295.4,344.4L292.1,344.4L288.8,344.4Z" fill-rule="evenodd" fill="#9aa0a8" fill-opacity="0.85" stroke="#cfd5de" stroke-width="1"/>
  <path d="M409.8,449L409.8,445.8L406.5,445.8L403.3,445.8L403.3,442.5L400,442.5L396.7,442.5L396.7,439.2L393.5,439.2L393.5,442.5L393.5,445.8L390.2,445.8L390.2,449L390.2,452.3L390.2,455.6L390.2,458.9L386.9,458.9L386.9,462.1L386.9,465.4L386.9,468.7L386.9,471.9L383.7,471.9L383.7,475.2L380.4,475.2L380.4,471.9L377.1,471.9L377.1,468.7L373.8,468.7L373.8,465.4L370.6,465.4L370.6,462.1L367.3,462.1L367.3,458.9L364,458.9L364,462.1L360.8,462.1L360.8,465.4L357.5,465.4L357.5,468.7L354.2,468.7L354.2,471.9L354.2,475.2L354.2,478.5L354.2,481.7L354.2,485L354.2,488.3L354.2,491.5L351,491.5L351,494.8L351,498.1L347.7,498.1L347.7,501.4L347.7,504.6L344.4,504.6L344.4,507.9L344.4,511.2L347.7,511.2L347.7,514.4L351,514.4L354.2,514.4L354.2,517.7L357.5,517.7L360.8,517.7L360.8,521L364,521L367.3,521L370.6,521L373.8,521L373.8,517.7L377.1,517.7L380.4,517.7L383.7,517.7L386.9,517.7L390.2,517.7L390.2,514.4L393.5,514.4L396.7,514.4L400,514.4L403.3,514.4L406.5,514.4L406.5,511.2L409.8,511.2L413.1,511.2L416.3,511.2L416.3,507.9L416.3,504.6L419.6,504.6L419.6,501.4L419.6,498.1L419.6,494.8L422.9,494.8L422.9,491.5L422.9,488.3L422.9,485L426.2,485L426.2,481.7L426.2,478.5L426.2,475.2L422.9,475.2L422.9,471.9L422.9,468.7L422.9,465.4L419.6,465.4L419.6,462.1L419.6,458.9L419.6,455.6L416.3,455.6L416.3,452.3L416.3,449L413.1,449L409.8,449Z" fill-rule="evenodd" fill="#9aa0a8" fill-opacity="0.85" stroke="#cfd5de" stroke-width="1"/>
  <path d="M426.2,279L426.2,282.3L422.9,282.3L419.6,282.3L416.3,282.3L413.1,282.3L409.8,282.3L409.8,285.6L406.5,285.6L403.3,285.6L400,285.6L396.7,285.6L393.5,285.6L393.5,288.8L390.2,288.8L386.9,288.8L383.7,288.8L383.7,292.1L383.7,295.4L380.4,295.4L380.4,298.6L380.4,301.9L380.4,305.2L377.1,305.2L377.1,308.5L377.1,311.7L377.1,315L373.8,315L373.8,318.3L373.8,321.5L373.8,324.8L377.1,324.8L377.1,328.1L377.1,331.3L377.1,334.6L380.4,334.6L380.4,337.9L380.4,341.1L380.4,344.4L383.7,344.4L383.7,347.7L383.7,351L386.9,351L390.2,351L390.2,354.2L393.5,354.2L396.7,354.2L396.7,357.5L400,357.5L403.3,357.5L403.3,360.8L406.5,360.8L406.5,357.5L406.5,354.2L409.8,354.2L409.8,351L409.8,347.7L409.8,344.4L409.8,341.1L413.1,341.1L413.1,337.9L413.1,334.6L413.1,331.3L413.1,328.1L416.3,328.1L416.3,324.8L419.6,324.8L419.6,328.1L422.9,328.1L422.9,331.3L426.2,331.3L426.2,334.6L429.4,334.6L429.4,337.9L432.7,337.9L432.7,341.1L436,341.1L436,337.9L439.2,337.9L439.2,334.6L442.5,334.6L442.5,331.3L445.8,331.3L445.8,328.1L445.8,324.8L445.8,321.5L445.8,318.3L445.8,315L445.8,311.7L445.8,308.5L449,308.5L449,305.2L449,301.9L452.3,301.9L452.3,298.6L452.3,295.4L455.6,295.4L455.6,292.1L455.6,288.8L452.3,288.8L452.3,285.6L449,285.6L445.8,285.6L445.8,282.3L442.5,282.3L439.2,282.3L439.2,279L436,279L432.7,279L429.4,279L426.2,279Z" fill-rule="evenodd" fill="#9aa0a8" fill-opacity="0.85" stroke="#cfd5de" stroke-width="1"/>
  <path d="M465.4,377.1L465.4,380.4L462.1,380.4L458.9,380.4L455.6,380.4L455.6,383.7L452.3,383.7L449,383.7L449,386.9L449,390.2L445.8,390.2L445.8,393.5L445.8,396.7L442.5,396.7L442.5,400L442.5,403.3L439.2,403.3L439.2,406.5L442.5,406.5L445.8,406.5L445.8,409.8L449,409.8L452.3,409.8L455.6,409.8L458.9,409.8L458.9,413.1L462.1,413.1L465.4,413.1L468.7,413.1L471.9,413.1L471.9,416.3L475.2,416.3L475.2,419.6L471.9,419.6L471.9,422.9L468.7,422.9L468.7,426.2L465.4,426.2L465.4,429.4L462.1,429.4L462.1,432.7L458.9,432.7L458.9,436L462.1,436L462.1,439.2L465.4,439.2L465.4,442.5L468.7,442.5L468.7,445.8L471.9,445.8L475.2,445.8L478.5,445.8L481.7,445.8L485,445.8L488.3,445.8L491.5,445.8L491.5,449L494.8,449L498.1,449L498.1,452.3L501.4,452.3L504.6,452.3L504.6,455.6L507.9,455.6L511.2,455.6L511.2,452.3L514.4,452.3L514.4,449L514.4,445.8L517.7,445.8L517.7,442.5L517.7,439.2L521,439.2L521,436L521,432.7L521,429.4L521,426.2L517.7,426.2L517.7,422.9L517.7,419.6L517.7,416.3L517.7,413.1L517.7,409.8L514.4,409.8L514.4,406.5L514.4,403.3L514.4,400L514.4,396.7L514.4,393.5L511.2,393.5L511.2,390.2L511.2,386.9L511.2,383.7L507.9,383.7L504.6,383.7L504.6,380.4L501.4,380.4L498.1,380.4L494.8,380.4L494.8,377.1L491.5,377.1L488.3,377.1L485,377.1L485,373.8L481.7,373.8L478.5,373.8L475.2,373.8L475.2,377.1L471.9,377.1L468.7,377.1L465.4,377.1Z" fill-rule="evenodd" fill="#9aa0a8" fill-opacity="0.85" stroke="#cfd5de" stroke-width="1"/>
</svg>
