<svg xmlns="http://www.w3.org/2000/svg" width="800" height="800" viewBox="0 0 800 800">
  <rect width="800" height="800" fill="#1b1e24"/>
  <text x="24" y="790" fill="#7b828d" font-family="monospace" font-size="13">mame_i_shrunk_the_pvpers · cleaned base · 13 islands</text>
  <path d="M234.5,122.7L232.3,122.7L230.1,122.7L227.9,122.7L225.7,122.7L223.5,122.7L221.3,122.7L219.1,122.7L216.9,122.7L214.7,122.7L212.5,122.7L210.4,122.7L208.2,122.7L206,122.7L203.8,122.7L201.6,122.7L199.4,122.7L197.2,122.7L195,122.7L192.8,122.7L190.6,122.7L188.4,122.7L186.2,122.7L184,122.7L181.9,122.7L179.7,122.7L177.5,122.7L175.3,122.7L173.1,122.7L170.9,122.7L168.7,122.7L166.5,122.7L164.3,122.7L162.1,122.7L159.9,122.7L157.7,122.7L155.5,122.7L153.4,122.7L151.2,122.7L149,122.7L146.8,122.7L144.6,122.7L142.4,122.7L140.2,122.7L138,122.7L135.8,122.7L133.6,122.7L131.4,122.7L129.2,122.7L127,122.7L124.9,122.7L122.7,122.7L120.5,122.7L118.3,122.7L116.1,122.7L113.9,122.7L111.7,122.7L109.5,122.7L107.3,122.7L105.1,122.7L102.9,122.7L100.7,122.7L98.5,122.7L96.3,122.7L94.2,122.7L92,122.7L89.8,122.7L87.6,122.7L85.4,122.7L83.2,122.7L81,122.7L78.8,122.7L76.6,122.7L74.4,122.7L72.2,122.7L70,122.7L67.8,122.7L65.7,122.7L63.5,122.7L61.3,122.7L59.1,122.7L56.9,122.7L54.7,122.7L52.5,122.7L50.3,122.7L48.1,122.7L45.9,122.7L43.7,122.7L41.5,122.7L39.3,122.7L37.2,122.7L35,122.7L32.8,122.7L30.6,122.7L28.4,122.7L26.2,122.7L24,122.7L24,124.9L24,127L24,129.2L24,131.4L24,133.6L24,135.8L24,138L24,140.2L24,142.4L24,144.6L24,146.8L24,149L24,151.2L24,153.4L24,155.5L26.2,155.5L28.4,155.5L30.6,155.5L32.8,155.5L35,155.5L37.2,155.5L39.3,155.5L41.5,155.5L43.7,155.5L45.9,155.5L48.1,155.5L50.3,155.5L52.5,155.5L54.7,155.5L56.9,155.5L59.1,155.5L61.3,155.5L63.5,155.5L65.7,155.5L67.8,155.5L70,155.5L72.2,155.5L74.4,155.5L76.6,155.5L78.8,155.5L81,155.5L83.2,155.5L85.4,155.5L87.6,155.5L89.8,155.5L92,155.5L94.2,155.5L96.3,155.5L98.5,155.5L100.7,155.5L102.9,155.5L105.1,155.5L107.3,155.5L109.5,155.5L111.7,155.5L113.9,155.5L116.1,155.5L118.3,155.5L120.5,155.5L122.7,155.5L124.9,155.5L127,155.5L129.2,155.5L131.4,155.5L133.6,155.5L135.8,155.5L138,155.5L140.2,155.5L142.4,155.5L144.6,155.5L146.8,155.5L149,155.5L149,153.4L151.2,153.4L151.2,151.2L153.4,151.2L153.4,149L155.5,149L157.7,149L159.9,149L162.1,149L164.3,149L166.5,149L168.7,149L170.9,149L173.1,149L175.3,149L177.5,149L179.7,149L181.9,149L184,149L186.2,149L188.4,149L190.6,149L192.8,149L195,149L197.2,149L199.4,149L201.6,149L203.8,149L206,149L208.2,149L210.4,149L210.4,151.2L212.5,151.2L212.5,153.4L214.7,153.4L214.7,155.5L216.9,155.5L216.9,157.7L216.9,159.9L216.9,162.1L216.9,164.3L216.9,166.5L216.9,168.7L216.9,170.9L216.9,173.1L216.9,175.3L216.9,177.5L216.9,179.7L214.7,179.7L212.5,179.7L210.4,179.7L208.2,179.7L206,179.7L203.8,179.7L201.6,179.7L199.4,179.7L197.2,179.7L195,179.7L192.8,179.7L190.6,179.7L188.4,179.7L186.2,179.7L184,179.7L181.9,179.7L179.7,179.7L177.5,179.7L175.3,179.7L173.1,179.7L170.9,179.7L168.7,179.7L166.5,179.7L164.3,179.7L162.1,179.7L159.9,179.7L157.7,179.7L155.5,179.7L153.4,179.7L151.2,179.7L149,179.7L146.8,179.7L144.6,179.7L142.4,179.7L142.4,181.9L140.2,181.9L138,181.9L135.8,181.9L135.8,184L133.6,184L131.4,184L129.2,184L127,184L124.9,184L122.7,184L120.5,184L118.3,184L116.1,184L113.9,184L113.9,186.2L111.7,186.2L111.7,188.4L111.7,190.6L111.7,192.8L109.5,192.8L109.5,195L109.5,197.2L109.5,199.4L107.3,199.4L107.3,201.6L107.3,203.8L107.3,206L105.1,206L105.1,208.2L105.1,210.4L105.1,212.5L102.9,212.5L102.9,214.7L102.9,216.9L102.9,219.1L102.9,221.3L102.9,223.5L102.9,225.7L102.9,227.9L102.9,230.1L102.9,232.3L102.9,234.5L102.9,236.7L102.9,238.9L102.9,241L102.9,243.2L102.9,245.4L102.9,247.6L102.9,249.8L102.9,252L105.1,252L105.1,254.2L105.1,256.4L105.1,258.6L107.3,258.6L107.3,260.8L107.3,263L107.3,265.2L109.5,265.2L109.5,267.4L109.5,269.6L109.5,271.7L109.5,273.9L109.5,276.1L109.5,278.3L109.5,280.5L111.7,280.5L111.7,282.7L111.7,284.9L111.7,287.1L111.7,289.3L111.7,291.5L111.7,293.7L111.7,295.9L111.7,298.1L111.7,300.2L111.7,302.4L113.9,302.4L113.9,304.6L113.9,306.8L113.9,309L113.9,311.2L116.1,311.2L116.1,313.4L118.3,313.4L118.3,315.6L120.5,315.6L120.5,317.8L120.5,320L120.5,322.2L120.5,324.4L120.5,326.6L122.7,326.6L122.7,328.7L124.9,328.7L124.9,330.9L127,330.9L129.2,330.9L129.2,333.1L131.4,333.1L133.6,333.1L133.6,335.3L135.8,335.3L135.8,337.5L138,337.5L138,339.7L140.2,339.7L140.2,341.9L142.4,341.9L142.4,344.1L142.4,346.3L142.4,348.5L142.4,350.7L142.4,352.9L142.4,355.1L142.4,357.2L142.4,359.4L142.4,361.6L142.4,363.8L142.4,366L142.4,368.2L142.4,370.4L142.4,372.6L142.4,374.8L142.4,377L142.4,379.2L142.4,381.4L142.4,383.6L142.4,385.7L142.4,387.9L142.4,390.1L142.4,392.3L142.4,394.5L142.4,396.7L142.4,398.9L142.4,401.1L142.4,403.3L142.4,405.5L142.4,407.7L142.4,409.9L142.4,412.1L142.4,414.3L142.4,416.4L142.4,418.6L142.4,420.8L142.4,423L142.4,425.2L142.4,427.4L142.4,429.6L142.4,431.8L142.4,434L144.6,434L146.8,434L149,434L151.2,434L153.4,434L155.5,434L157.7,434L159.9,434L162.1,434L164.3,434L166.5,434L168.7,434L170.9,434L173.1,434L175.3,434L175.3,431.8L175.3,429.6L175.3,427.4L175.3,425.2L175.3,423L175.3,420.8L175.3,418.6L175.3,416.4L175.3,414.3L175.3,412.1L175.3,409.9L175.3,407.7L175.3,405.5L175.3,403.3L175.3,401.1L175.3,398.9L175.3,396.7L175.3,394.5L175.3,392.3L175.3,390.1L175.3,387.9L175.3,385.7L175.3,383.6L175.3,381.4L175.3,379.2L175.3,377L175.3,374.8L175.3,372.6L175.3,370.4L175.3,368.2L175.3,366L175.3,363.8L175.3,361.6L175.3,359.4L175.3,357.2L175.3,355.1L175.3,352.9L175.3,350.7L175.3,348.5L175.3,346.3L175.3,344.1L175.3,341.9L175.3,339.7L175.3,337.5L175.3,335.3L175.3,333.1L175.3,330.9L175.3,328.7L175.3,326.6L175.3,324.4L175.3,322.2L175.3,320L175.3,317.8L175.3,315.6L175.3,313.4L175.3,311.2L173.1,311.2L170.9,311.2L168.7,311.2L166.5,311.2L164.3,311.2L162.1,311.2L159.9,311.2L157.7,311.2L155.5,311.2L153.4,311.2L153.4,309L151.2,309L151.2,306.8L149,306.8L149,304.6L146.8,304.6L146.8,302.4L144.6,302.4L144.6,300.2L144.6,298.1L144.6,295.9L144.6,293.7L144.6,291.5L144.6,289.3L144.6,287.1L144.6,284.9L144.6,282.7L144.6,280.5L144.6,278.3L146.8,278.3L149,278.3L151.2,278.3L153.4,278.3L155.5,278.3L157.7,278.3L159.9,278.3L162.1,278.3L164.3,278.3L166.5,278.3L168.7,278.3L170.9,278.3L173.1,278.3L175.3,278.3L177.5,278.3L179.7,278.3L181.9,278.3L184,278.3L186.2,278.3L188.4,278.3L190.6,278.3L192.8,278.3L195,278.3L197.2,278.3L199.4,278.3L201.6,278.3L203.8,278.3L206,278.3L208.2,278.3L210.4,278.3L210.4,280.5L212.5,280.5L212.5,282.7L214.7,282.7L216.9,282.7L216.9,284.9L219.1,284.9L221.3,284.9L221.3,287.1L221.3,289.3L221.3,291.5L221.3,293.7L221.3,295.9L221.3,298.1L221.3,300.2L221.3,302.4L221.3,304.6L221.3,306.8L221.3,309L221.3,311.2L219.1,311.2L216.9,311.2L214.7,311.2L212.5,311.2L210.4,311.2L208.2,311.2L206,311.2L206,313.4L206,315.6L206,317.8L206,320L206,322.2L206,324.4L206,326.6L206,328.7L206,330.9L206,333.1L206,335.3L206,337.5L206,339.7L206,341.9L206,344.1L208.2,344.1L210.4,344.1L212.5,344.1L214.7,344.1L216.9,344.1L219.1,344.1L221.3,344.1L223.5,344.1L225.7,344.1L227.9,344.1L230.1,344.1L232.3,344.1L232.3,341.9L234.5,341.9L234.5,339.7L236.7,339.7L238.9,339.7L238.9,337.5L241,337.5L241,335.3L243.2,335.3L243.2,333.1L245.4,333.1L245.4,330.9L245.4,328.7L247.6,328.7L247.6,326.6L247.6,324.4L247.6,322.2L249.8,322.2L249.8,320L249.8,317.8L249.8,315.6L249.8,313.4L249.8,311.2L249.8,309L249.8,306.8L249.8,304.6L249.8,302.4L249.8,300.2L249.8,298.1L249.8,295.9L249.8,293.7L249.8,291.5L249.8,289.3L249.8,287.1L249.8,284.9L249.8,282.7L249.8,280.5L249.8,278.3L252,278.3L254.2,278.3L256.4,278.3L258.6,278.3L260.8,278.3L263,278.3L265.2,278.3L267.4,278.3L269.6,278.3L271.7,278.3L273.9,278.3L276.1,278.3L278.3,278.3L280.5,278.3L282.7,278.3L284.9,278.3L287.1,278.3L289.3,278.3L291.5,278.3L293.7,278.3L295.9,278.3L298.1,278.3L300.2,278.3L302.4,278.3L304.6,278.3L304.6,276.1L304.6,273.9L304.6,271.7L304.6,269.6L304.6,267.4L304.6,265.2L304.6,263L304.6,260.8L304.6,258.6L304.6,256.4L304.6,254.2L304.6,252L304.6,249.8L304.6,247.6L304.6,245.4L302.4,245.4L300.2,245.4L298.1,245.4L295.9,245.4L293.7,245.4L291.5,245.4L289.3,245.4L287.1,245.4L284.9,245.4L282.7,245.4L280.5,245.4L278.3,245.4L276.1,245.4L276.1,243.2L273.9,243.2L273.9,241L271.7,241L271.7,238.9L269.6,238.9L269.6,236.7L269.6,234.5L269.6,232.3L269.6,230.1L269.6,227.9L269.6,225.7L269.6,223.5L269.6,221.3L269.6,219.1L269.6,216.9L269.6,214.7L269.6,212.5L271.7,212.5L273.9,212.5L276.1,212.5L278.3,212.5L280.5,212.5L282.7,212.5L284.9,212.5L287.1,212.5L289.3,212.5L291.5,212.5L293.7,212.5L295.9,212.5L298.1,212.5L300.2,212.5L302.4,212.5L304.6,212.5L304.6,210.4L304.6,208.2L304.6,206L304.6,203.8L304.6,201.6L304.6,199.4L304.6,197.2L304.6,195L304.6,192.8L304.6,190.6L304.6,188.4L304.6,186.2L304.6,184L304.6,181.9L304.6,179.7L302.4,179.7L300.2,179.7L298.1,179.7L295.9,179.7L293.7,179.7L291.5,179.7L289.3,179.7L287.1,179.7L284.9,179.7L282.7,179.7L280.5,179.7L278.3,179.7L276.1,179.7L273.9,179.7L271.7,179.7L269.6,179.7L267.4,179.7L265.2,179.7L263,179.7L260.8,179.7L260.8,177.5L260.8,175.3L260.8,173.1L260.8,170.9L260.8,168.7L260.8,166.5L260.8,164.3L260.8,162.1L260.8,159.9L260.8,157.7L260.8,155.5L260.8,153.4L260.8,151.2L260.8,149L260.8,146.8L260.8,144.6L260.8,142.4L260.8,140.2L258.6,140.2L258.6,138L256.4,138L256.4,135.8L254.2,135.8L254.2,133.6L252,133.6L252,131.4L249.8,131.4L249.8,129.2L247.6,129.2L247.6,127L245.4,127L243.2,127L243.2,124.9L241,124.9L238.9,124.9L236.7,124.9L236.7,122.7L234.5,122.7ZM157.7,212.5L159.9,212.5L162.1,212.5L164.3,212.5L166.5,212.5L168.7,212.5L170.9,212.5L173.1,212.5L175.3,212.5L177.5,212.5L179.7,212.5L181.9,212.5L184,212.5L186.2,212.5L188.4,212.5L190.6,212.5L192.8,212.5L195,212.5L197.2,212.5L199.4,212.5L201.6,212.5L203.8,212.5L206,212.5L208.2,212.5L210.4,212.5L210.4,214.7L210.4,216.9L212.5,216.9L212.5,219.1L214.7,219.1L214.7,221.3L216.9,221.3L216.9,223.5L216.9,225.7L216.9,227.9L216.9,230.1L216.9,232.3L216.9,234.5L216.9,236.7L214.7,236.7L214.7,238.9L212.5,238.9L212.5,241L210.4,241L210.4,243.2L210.4,245.4L208.2,245.4L206,245.4L203.8,245.4L201.6,245.4L199.4,245.4L197.2,245.4L195,245.4L192.8,245.4L190.6,245.4L188.4,245.4L186.2,245.4L184,245.4L181.9,245.4L179.7,245.4L177.5,245.4L175.3,245.4L173.1,245.4L170.9,245.4L168.7,245.4L166.5,245.4L164.3,245.4L162.1,245.4L159.9,245.4L157.7,245.4L155.5,245.4L153.4,245.4L151.2,245.4L149,245.4L146.8,245.4L144.6,245.4L144.6,243.2L144.6,241L144.6,238.9L144.6,236.7L144.6,234.5L144.6,232.3L144.6,230.1L144.6,227.9L144.6,225.7L144.6,223.5L144.6,221.3L144.6,219.1L144.6,216.9L144.6,214.7L144.6,212.5L146.8,212.5L149,212.5L151.2,212.5L153.4,212.5L155.5,212.5L157.7,212.5Z" fill-rule="evenodd" fill="#9aa0a8" fill-opacity="0.85" stroke="#cfd5de" stroke-width="1"/>
  <path d="M646.6,309L644.5,309L642.3,309L640.1,309L637.9,309L635.7,309L633.5,309L631.3,309L629.1,309L626.9,309L624.7,309L622.5,309L620.3,309L618.1,309L616,309L613.8,309L611.6,309L609.4,309L607.2,309L605,309L602.8,309L600.6,309L598.4,309L596.2,309L594,309L591.8,309L589.6,309L589.6,306.8L587.5,306.8L587.5,304.6L585.3,304.6L585.3,302.4L583.1,302.4L583.1,300.2L583.1,298.1L583.1,295.9L583.1,293.7L583.1,291.5L583.1,289.3L583.1,287.1L583.1,284.9L583.1,282.7L583.1,280.5L583.1,278.3L585.3,278.3L587.5,278.3L589.6,278.3L591.8,278.3L594,278.3L596.2,278.3L598.4,278.3L600.6,278.3L602.8,278.3L605,278.3L607.2,278.3L609.4,278.3L611.6,278.3L613.8,278.3L616,278.3L618.1,278.3L620.3,278.3L622.5,278.3L624.7,278.3L626.9,278.3L629.1,278.3L631.3,278.3L633.5,278.3L635.7,278.3L637.9,278.3L640.1,278.3L642.3,278.3L644.5,278.3L646.6,278.3L648.8,278.3L651,278.3L653.2,278.3L655.4,278.3L657.6,278.3L657.6,276.1L659.8,276.1L662,276.1L664.2,276.1L664.2,273.9L666.4,273.9L668.6,273.9L670.8,273.9L673,273.9L675.1,273.9L677.3,273.9L679.5,273.9L681.7,273.9L683.9,273.9L686.1,273.9L686.1,271.7L688.3,271.7L688.3,269.6L688.3,267.4L688.3,265.2L690.5,265.2L690.5,263L690.5,260.8L690.5,258.6L692.7,258.6L692.7,256.4L692.7,254.2L692.7,252L694.9,252L694.9,249.8L694.9,247.6L694.9,245.4L697.1,245.4L697.1,243.2L697.1,241L697.1,238.9L697.1,236.7L697.1,234.5L697.1,232.3L697.1,230.1L697.1,227.9L697.1,225.7L697.1,223.5L697.1,221.3L697.1,219.1L697.1,216.9L697.1,214.7L697.1,212.5L697.1,210.4L697.1,208.2L697.1,206L694.9,206L694.9,203.8L694.9,201.6L694.9,199.4L692.7,199.4L692.7,197.2L692.7,195L692.7,192.8L690.5,192.8L690.5,190.6L690.5,188.4L690.5,186.2L690.5,184L690.5,181.9L690.5,179.7L690.5,177.5L688.3,177.5L688.3,175.3L688.3,173.1L688.3,170.9L688.3,168.7L688.3,166.5L688.3,164.3L688.3,162.1L688.3,159.9L688.3,157.7L688.3,155.5L686.1,155.5L686.1,153.4L686.1,151.2L686.1,149L686.1,146.8L683.9,146.8L683.9,144.6L681.7,144.6L681.7,142.4L679.5,142.4L679.5,140.2L679.5,138L679.5,135.8L679.5,133.6L679.5,131.4L677.3,131.4L677.3,129.2L675.1,129.2L675.1,127L673,127L670.8,127L670.8,124.9L668.6,124.9L666.4,124.9L666.4,122.7L664.2,122.7L664.2,120.5L662,120.5L662,118.3L659.8,118.3L659.8,116.1L657.6,116.1L657.6,113.9L657.6,111.7L657.6,109.5L657.6,107.3L657.6,105.1L657.6,102.9L657.6,100.7L657.6,98.5L657.6,96.3L657.6,94.2L657.6,92L657.6,89.8L657.6,87.6L657.6,85.4L657.6,83.2L657.6,81L657.6,78.8L657.6,76.6L657.6,74.4L657.6,72.2L657.6,70L657.6,67.8L657.6,65.7L657.6,63.5L657.6,61.3L657.6,59.1L657.6,56.9L657.6,54.7L657.6,52.5L657.6,50.3L657.6,48.1L657.6,45.9L657.6,43.7L657.6,41.5L657.6,39.3L657.6,37.2L657.6,35L657.6,32.8L657.6,30.6L657.6,28.4L657.6,26.2L657.6,24L655.4,24L653.2,24L651,24L648.8,24L646.6,24L644.5,24L642.3,24L640.1,24L637.9,24L635.7,24L633.5,24L631.3,24L629.1,24L626.9,24L624.7,24L624.7,26.2L624.7,28.4L624.7,30.6L624.7,32.8L624.7,35L624.7,37.2L624.7,39.3L624.7,41.5L624.7,43.7L624.7,45.9L624.7,48.1L624.7,50.3L624.7,52.5L624.7,54.7L624.7,56.9L624.7,59.1L624.7,61.3L624.7,63.5L624.7,65.7L624.7,67.8L624.7,70L624.7,72.2L624.7,74.4L624.7,76.6L624.7,78.8L624.7,81L624.7,83.2L624.7,85.4L624.7,87.6L624.7,89.8L624.7,92L624.7,94.2L624.7,96.3L624.7,98.5L624.7,100.7L624.7,102.9L624.7,105.1L624.7,107.3L624.7,109.5L624.7,111.7L624.7,113.9L624.7,116.1L624.7,118.3L624.7,120.5L624.7,122.7L624.7,124.9L624.7,127L624.7,129.2L624.7,131.4L624.7,133.6L624.7,135.8L624.7,138L624.7,140.2L624.7,142.4L624.7,144.6L624.7,146.8L626.9,146.8L629.1,146.8L631.3,146.8L633.5,146.8L635.7,146.8L637.9,146.8L640.1,146.8L642.3,146.8L644.5,146.8L646.6,146.8L646.6,149L648.8,149L648.8,151.2L651,151.2L651,153.4L653.2,153.4L653.2,155.5L655.4,155.5L655.4,157.7L655.4,159.9L655.4,162.1L655.4,164.3L655.4,166.5L655.4,168.7L655.4,170.9L655.4,173.1L655.4,175.3L655.4,177.5L655.4,179.7L653.2,179.7L651,179.7L648.8,179.7L646.6,179.7L644.5,179.7L642.3,179.7L640.1,179.7L637.9,179.7L635.7,179.7L633.5,179.7L631.3,179.7L629.1,179.7L626.9,179.7L624.7,179.7L622.5,179.7L620.3,179.7L618.1,179.7L616,179.7L613.8,179.7L611.6,179.7L609.4,179.7L607.2,179.7L605,179.7L602.8,179.7L600.6,179.7L598.4,179.7L596.2,179.7L594,179.7L591.8,179.7L589.6,179.7L589.6,177.5L587.5,177.5L587.5,175.3L585.3,175.3L583.1,175.3L583.1,173.1L580.9,173.1L578.7,173.1L578.7,170.9L578.7,168.7L578.7,166.5L578.7,164.3L578.7,162.1L578.7,159.9L578.7,157.7L578.7,155.5L578.7,153.4L578.7,151.2L578.7,149L578.7,146.8L580.9,146.8L583.1,146.8L585.3,146.8L587.5,146.8L589.6,146.8L591.8,146.8L594,146.8L594,144.6L594,142.4L594,140.2L594,138L594,135.8L594,133.6L594,131.4L594,129.2L594,127L594,124.9L594,122.7L594,120.5L594,118.3L594,116.1L594,113.9L591.8,113.9L589.6,113.9L587.5,113.9L585.3,113.9L583.1,113.9L580.9,113.9L578.7,113.9L576.5,113.9L574.3,113.9L572.1,113.9L569.9,113.9L567.7,113.9L567.7,116.1L565.5,116.1L565.5,118.3L563.3,118.3L561.1,118.3L561.1,120.5L559,120.5L559,122.7L556.8,122.7L556.8,124.9L554.6,124.9L554.6,127L554.6,129.2L552.4,129.2L552.4,131.4L552.4,133.6L552.4,135.8L550.2,135.8L550.2,138L550.2,140.2L550.2,142.4L550.2,144.6L550.2,146.8L550.2,149L550.2,151.2L550.2,153.4L550.2,155.5L550.2,157.7L550.2,159.9L550.2,162.1L550.2,164.3L550.2,166.5L550.2,168.7L550.2,170.9L550.2,173.1L550.2,175.3L550.2,177.5L550.2,179.7L548,179.7L545.8,179.7L543.6,179.7L541.4,179.7L539.2,179.7L537,179.7L534.8,179.7L532.6,179.7L530.4,179.7L528.3,179.7L526.1,179.7L523.9,179.7L521.7,179.7L519.5,179.7L517.3,179.7L515.1,179.7L512.9,179.7L510.7,179.7L508.5,179.7L506.3,179.7L504.1,179.7L501.9,179.7L499.8,179.7L497.6,179.7L495.4,179.7L495.4,181.9L495.4,184L495.4,186.2L495.4,188.4L495.4,190.6L495.4,192.8L495.4,195L495.4,197.2L495.4,199.4L495.4,201.6L495.4,203.8L495.4,206L495.4,208.2L495.4,210.4L495.4,212.5L497.6,212.5L499.8,212.5L501.9,212.5L504.1,212.5L506.3,212.5L508.5,212.5L510.7,212.5L512.9,212.5L515.1,212.5L517.3,212.5L519.5,212.5L521.7,212.5L523.9,212.5L523.9,214.7L526.1,214.7L526.1,216.9L528.3,216.9L528.3,219.1L530.4,219.1L530.4,221.3L530.4,223.5L530.4,225.7L530.4,227.9L530.4,230.1L530.4,232.3L530.4,234.5L530.4,236.7L530.4,238.9L530.4,241L530.4,243.2L530.4,245.4L528.3,245.4L526.1,245.4L523.9,245.4L521.7,245.4L519.5,245.4L517.3,245.4L515.1,245.4L512.9,245.4L510.7,245.4L508.5,245.4L506.3,245.4L504.1,245.4L501.9,245.4L499.8,245.4L497.6,245.4L495.4,245.4L495.4,247.6L495.4,249.8L495.4,252L495.4,254.2L495.4,256.4L495.4,258.6L495.4,260.8L495.4,263L495.4,265.2L495.4,267.4L495.4,269.6L495.4,271.7L495.4,273.9L495.4,276.1L495.4,278.3L497.6,278.3L499.8,278.3L501.9,278.3L504.1,278.3L506.3,278.3L508.5,278.3L510.7,278.3L512.9,278.3L515.1,278.3L517.3,278.3L519.5,278.3L521.7,278.3L523.9,278.3L526.1,278.3L528.3,278.3L530.4,278.3L532.6,278.3L534.8,278.3L537,278.3L539.2,278.3L539.2,280.5L539.2,282.7L539.2,284.9L539.2,287.1L539.2,289.3L539.2,291.5L539.2,293.7L539.2,295.9L539.2,298.1L539.2,300.2L539.2,302.4L539.2,304.6L539.2,306.8L539.2,309L539.2,311.2L539.2,313.4L539.2,315.6L539.2,317.8L541.4,317.8L541.4,320L543.6,320L543.6,322.2L545.8,322.2L545.8,324.4L548,324.4L548,326.6L550.2,326.6L550.2,328.7L552.4,328.7L552.4,330.9L554.6,330.9L556.8,330.9L556.8,333.1L559,333.1L561.1,333.1L563.3,333.1L563.3,335.3L565.5,335.3L567.7,335.3L569.9,335.3L572.1,335.3L574.3,335.3L576.5,335.3L578.7,335.3L580.9,335.3L583.1,335.3L585.3,335.3L587.5,335.3L589.6,335.3L591.8,335.3L594,335.3L596.2,335.3L598.4,335.3L600.6,335.3L602.8,335.3L605,335.3L607.2,335.3L609.4,335.3L611.6,335.3L613.8,335.3L616,335.3L618.1,335.3L620.3,335.3L622.5,335.3L624.7,335.3L626.9,335.3L629.1,335.3L631.3,335.3L633.5,335.3L635.7,335.3L637.9,335.3L640.1,335.3L642.3,335.3L644.5,335.3L646.6,335.3L648.8,335.3L651,335.3L653.2,335.3L655.4,335.3L657.6,335.3L659.8,335.3L662,335.3L664.2,335.3L666.4,335.3L668.6,335.3L670.8,335.3L673,335.3L675.1,335.3L677.3,335.3L679.5,335.3L681.7,335.3L683.9,335.3L686.1,335.3L688.3,335.3L690.5,335.3L692.7,335.3L694.9,335.3L697.1,335.3L699.3,335.3L701.5,335.3L703.7,335.3L705.8,335.3L708,335.3L710.2,335.3L712.4,335.3L714.6,335.3L716.8,335.3L719,335.3L721.2,335.3L723.4,335.3L725.6,335.3L727.8,335.3L730,335.3L732.2,335.3L734.3,335.3L736.5,335.3L738.7,335.3L740.9,335.3L743.1,335.3L745.3,335.3L747.5,335.3L749.7,335.3L751.9,335.3L754.1,335.3L756.3,335.3L758.5,335.3L760.7,335.3L762.8,335.3L765,335.3L767.2,335.3L769.4,335.3L771.6,335.3L773.8,335.3L776,335.3L776,333.1L776,330.9L776,328.7L776,326.6L776,324.4L776,322.2L776,320L776,317.8L776,315.6L776,313.4L776,311.2L776,309L776,306.8L776,304.6L776,302.4L773.8,302.4L771.6,302.4L769.4,302.4L767.2,302.4L765,302.4L762.8,302.4L760.7,302.4L758.5,302.4L756.3,302.4L754.1,302.4L751.9,302.4L749.7,302.4L747.5,302.4L745.3,302.4L743.1,302.4L740.9,302.4L738.7,302.4L736.5,302.4L734.3,302.4L732.2,302.4L730,302.4L727.8,302.4L725.6,302.4L723.4,302.4L721.2,302.4L719,302.4L716.8,302.4L714.6,302.4L712.4,302.4L710.2,302.4L708,302.4L705.8,302.4L703.7,302.4L701.5,302.4L699.3,302.4L697.1,302.4L694.9,302.4L692.7,302.4L690.5,302.4L688.3,302.4L686.1,302.4L683.9,302.4L681.7,302.4L679.5,302.4L677.3,302.4L675.1,302.4L673,302.4L670.8,302.4L668.6,302.4L666.4,302.4L664.2,302.4L662,302.4L659.8,302.4L657.6,302.4L655.4,302.4L653.2,302.4L651,302.4L651,304.6L648.8,304.6L648.8,306.8L646.6,306.8L646.6,309ZM651,245.4L648.8,245.4L646.6,245.4L644.5,245.4L642.3,245.4L640.1,245.4L637.9,245.4L635.7,245.4L633.5,245.4L631.3,245.4L629.1,245.4L626.9,245.4L624.7,245.4L622.5,245.4L620.3,245.4L618.1,245.4L616,245.4L613.8,245.4L611.6,245.4L609.4,245.4L607.2,245.4L605,245.4L602.8,245.4L600.6,245.4L598.4,245.4L596.2,245.4L594,245.4L591.8,245.4L589.6,245.4L589.6,243.2L589.6,241L587.5,241L587.5,238.9L585.3,238.9L585.3,236.7L583.1,236.7L583.1,234.5L583.1,232.3L583.1,230.1L583.1,227.9L583.1,225.7L583.1,223.5L583.1,221.3L585.3,221.3L585.3,219.1L587.5,219.1L587.5,216.9L589.6,216.9L589.6,214.7L589.6,212.5L591.8,212.5L594,212.5L596.2,212.5L598.4,212.5L600.6,212.5L602.8,212.5L605,212.5L607.2,212.5L609.4,212.5L611.6,212.5L613.8,212.5L616,212.5L618.1,212.5L620.3,212.5L622.5,212.5L624.7,212.5L626.9,212.5L629.1,212.5L631.3,212.5L633.5,212.5L635.7,212.5L637.9,212.5L640.1,212.5L642.3,212.5L644.5,212.5L646.6,212.5L648.8,212.5L651,212.5L653.2,212.5L655.4,212.5L655.4,214.7L655.4,216.9L655.4,219.1L655.4,221.3L655.4,223.5L655.4,225.7L655.4,227.9L655.4,230.1L655.4,232.3L655.4,234.5L655.4,236.7L655.4,238.9L655.4,241L655.4,243.2L655.4,245.4L653.2,245.4L651,245.4Z" fill-rule="evenodd" fill="#9aa0a8" fill-opacity="0.85" stroke="#cfd5de" stroke-width="1"/>
  <path d="M394.5,100.7L394.5,102.9L392.3,102.9L390.1,102.9L390.1,105.1L387.9,105.1L385.7,105.1L383.6,105.1L383.6,107.3L381.4,107.3L379.2,107.3L379.2,109.5L377,109.5L374.8,109.5L374.8,111.7L372.6,111.7L372.6,113.9L370.4,113.9L370.4,116.1L370.4,118.3L368.2,118.3L368.2,120.5L368.2,122.7L368.2,124.9L366,124.9L366,127L366,129.2L366,131.4L363.8,131.4L363.8,133.6L363.8,135.8L363.8,138L363.8,140.2L361.6,140.2L361.6,142.4L359.4,142.4L359.4,144.6L357.2,144.6L357.2,146.8L355.1,146.8L352.9,146.8L352.9,149L350.7,149L350.7,151.2L348.5,151.2L346.3,151.2L344.1,151.2L341.9,151.2L339.7,151.2L339.7,153.4L337.5,153.4L335.3,153.4L333.1,153.4L330.9,153.4L330.9,155.5L330.9,157.7L330.9,159.9L330.9,162.1L330.9,164.3L330.9,166.5L330.9,168.7L330.9,170.9L330.9,173.1L330.9,175.3L330.9,177.5L330.9,179.7L330.9,181.9L330.9,184L330.9,186.2L330.9,188.4L330.9,190.6L330.9,192.8L330.9,195L330.9,197.2L330.9,199.4L330.9,201.6L330.9,203.8L330.9,206L330.9,208.2L330.9,210.4L330.9,212.5L333.1,212.5L335.3,212.5L337.5,212.5L339.7,212.5L341.9,212.5L344.1,212.5L346.3,212.5L348.5,212.5L350.7,212.5L352.9,212.5L352.9,210.4L352.9,208.2L352.9,206L355.1,206L357.2,206L359.4,206L361.6,206L361.6,203.8L361.6,201.6L361.6,199.4L359.4,199.4L359.4,197.2L359.4,195L359.4,192.8L359.4,190.6L359.4,188.4L359.4,186.2L359.4,184L359.4,181.9L359.4,179.7L361.6,179.7L363.8,179.7L366,179.7L368.2,179.7L370.4,179.7L372.6,179.7L374.8,179.7L377,179.7L379.2,179.7L381.4,179.7L381.4,181.9L383.6,181.9L383.6,184L385.7,184L385.7,186.2L385.7,188.4L385.7,190.6L387.9,190.6L387.9,192.8L387.9,195L387.9,197.2L390.1,197.2L392.3,197.2L394.5,197.2L396.7,197.2L398.9,197.2L401.1,197.2L403.3,197.2L405.5,197.2L407.7,197.2L409.9,197.2L412.1,197.2L412.1,195L412.1,192.8L412.1,190.6L414.3,190.6L414.3,188.4L414.3,186.2L414.3,184L416.4,184L416.4,181.9L418.6,181.9L418.6,179.7L420.8,179.7L423,179.7L425.2,179.7L427.4,179.7L429.6,179.7L431.8,179.7L434,179.7L436.2,179.7L438.4,179.7L440.6,179.7L440.6,181.9L440.6,184L440.6,186.2L440.6,188.4L440.6,190.6L440.6,192.8L440.6,195L440.6,197.2L440.6,199.4L438.4,199.4L438.4,201.6L438.4,203.8L438.4,206L440.6,206L442.8,206L444.9,206L447.1,206L447.1,208.2L447.1,210.4L447.1,212.5L449.3,212.5L451.5,212.5L453.7,212.5L455.9,212.5L458.1,212.5L460.3,212.5L462.5,212.5L464.7,212.5L466.9,212.5L469.1,212.5L469.1,210.4L469.1,208.2L469.1,206L469.1,203.8L469.1,201.6L469.1,199.4L469.1,197.2L469.1,195L469.1,192.8L469.1,190.6L469.1,188.4L469.1,186.2L469.1,184L469.1,181.9L469.1,179.7L469.1,177.5L469.1,175.3L469.1,173.1L469.1,170.9L469.1,168.7L469.1,166.5L469.1,164.3L469.1,162.1L469.1,159.9L469.1,157.7L469.1,155.5L469.1,153.4L466.9,153.4L464.7,153.4L462.5,153.4L460.3,153.4L460.3,151.2L458.1,151.2L455.9,151.2L453.7,151.2L451.5,151.2L449.3,151.2L449.3,149L447.1,149L447.1,146.8L444.9,146.8L442.8,146.8L442.8,144.6L440.6,144.6L440.6,142.4L438.4,142.4L438.4,140.2L436.2,140.2L436.2,138L436.2,135.8L436.2,133.6L436.2,131.4L434,131.4L434,129.2L434,127L434,124.9L431.8,124.9L431.8,122.7L431.8,120.5L431.8,118.3L429.6,118.3L429.6,116.1L429.6,113.9L427.4,113.9L427.4,111.7L425.2,111.7L425.2,109.5L423,109.5L420.8,109.5L420.8,107.3L418.6,107.3L416.4,107.3L416.4,105.1L414.3,105.1L412.1,105.1L409.9,105.1L409.9,102.9L407.7,102.9L405.5,102.9L405.5,100.7L403.3,100.7L401.1,100.7L398.9,100.7L396.7,100.7L394.5,100.7Z" fill-rule="evenodd" fill="#9aa0a8" fill-opacity="0.85" stroke="#cfd5de" stroke-width="1"/>
  <path d="M330.9,245.4L330.9,247.6L330.9,249.8L330.9,252L330.9,254.2L330.9,256.4L330.9,258.6L330.9,260.8L330.9,263L330.9,265.2L330.9,267.4L330.9,269.6L330.9,271.7L330.9,273.9L330.9,276.1L330.9,278.3L330.9,280.5L330.9,282.7L330.9,284.9L330.9,287.1L330.9,289.3L330.9,291.5L330.9,293.7L330.9,295.9L330.9,298.1L330.9,300.2L330.9,302.4L330.9,304.6L333.1,304.6L335.3,304.6L337.5,304.6L339.7,304.6L339.7,306.8L341.9,306.8L344.1,306.8L346.3,306.8L348.5,306.8L350.7,306.8L350.7,309L352.9,309L352.9,311.2L355.1,311.2L357.2,311.2L357.2,313.4L359.4,313.4L359.4,315.6L361.6,315.6L361.6,317.8L363.8,317.8L363.8,320L363.8,322.2L363.8,324.4L363.8,326.6L366,326.6L366,328.7L366,330.9L366,333.1L368.2,333.1L368.2,335.3L368.2,337.5L368.2,339.7L370.4,339.7L370.4,341.9L370.4,344.1L372.6,344.1L372.6,346.3L374.8,346.3L374.8,348.5L377,348.5L379.2,348.5L379.2,350.7L381.4,350.7L383.6,350.7L383.6,352.9L385.7,352.9L387.9,352.9L390.1,352.9L390.1,355.1L392.3,355.1L394.5,355.1L394.5,357.2L396.7,357.2L398.9,357.2L401.1,357.2L403.3,357.2L405.5,357.2L405.5,355.1L407.7,355.1L409.9,355.1L409.9,352.9L412.1,352.9L414.3,352.9L416.4,352.9L416.4,350.7L418.6,350.7L420.8,350.7L420.8,348.5L423,348.5L425.2,348.5L425.2,346.3L427.4,346.3L427.4,344.1L429.6,344.1L429.6,341.9L429.6,339.7L431.8,339.7L431.8,337.5L431.8,335.3L431.8,333.1L434,333.1L434,330.9L434,328.7L434,326.6L436.2,326.6L436.2,324.4L436.2,322.2L436.2,320L436.2,317.8L438.4,317.8L438.4,315.6L440.6,315.6L440.6,313.4L442.8,313.4L442.8,311.2L444.9,311.2L447.1,311.2L447.1,309L449.3,309L449.3,306.8L451.5,306.8L453.7,306.8L455.9,306.8L458.1,306.8L460.3,306.8L460.3,304.6L462.5,304.6L464.7,304.6L466.9,304.6L469.1,304.6L469.1,302.4L469.1,300.2L469.1,298.1L469.1,295.9L469.1,293.7L469.1,291.5L469.1,289.3L469.1,287.1L469.1,284.9L469.1,282.7L469.1,280.5L469.1,278.3L469.1,276.1L469.1,273.9L469.1,271.7L469.1,269.6L469.1,267.4L469.1,265.2L469.1,263L469.1,260.8L469.1,258.6L469.1,256.4L469.1,254.2L469.1,252L469.1,249.8L469.1,247.6L469.1,245.4L466.9,245.4L464.7,245.4L462.5,245.4L460.3,245.4L458.1,245.4L455.9,245.4L453.7,245.4L451.5,245.4L449.3,245.4L447.1,245.4L447.1,247.6L447.1,249.8L447.1,252L444.9,252L442.8,252L440.6,252L438.4,252L438.4,254.2L438.4,256.4L438.4,258.6L440.6,258.6L440.6,260.8L440.6,263L440.6,265.2L440.6,267.4L440.6,269.6L440.6,271.7L440.6,273.9L440.6,276.1L440.6,278.3L438.4,278.3L436.2,278.3L434,278.3L431.8,278.3L429.6,278.3L427.4,278.3L425.2,278.3L423,278.3L420.8,278.3L418.6,278.3L418.6,276.1L416.4,276.1L416.4,273.9L414.3,273.9L414.3,271.7L414.3,269.6L414.3,267.4L412.1,267.4L412.1,265.2L412.1,263L412.1,260.8L409.9,260.8L407.7,260.8L405.5,260.8L403.3,260.8L401.1,260.8L398.9,260.8L396.7,260.8L394.5,260.8L392.3,260.8L390.1,260.8L387.9,260.8L387.9,263L387.9,265.2L387.9,267.4L385.7,267.4L385.7,269.6L385.7,271.7L385.7,273.9L383.6,273.9L383.6,276.1L381.4,276.1L381.4,278.3L379.2,278.3L377,278.3L374.8,278.3L372.6,278.3L370.4,278.3L368.2,278.3L366,278.3L363.8,278.3L361.6,278.3L359.4,278.3L359.4,276.1L359.4,273.9L359.4,271.7L359.4,269.6L359.4,267.4L359.4,265.2L359.4,263L359.4,260.8L359.4,258.6L361.6,258.6L361.6,256.4L361.6,254.2L361.6,252L359.4,252L357.2,252L355.1,252L352.9,252L352.9,249.8L352.9,247.6L352.9,245.4L350.7,245.4L348.5,245.4L346.3,245.4L344.1,245.4L341.9,245.4L339.7,245.4L337.5,245.4L335.3,245.4L333.1,245.4L330.9,245.4Z" fill-rule="evenodd" fill="#9aa0a8" fill-opacity="0.85" stroke="#cfd5de" stroke-width="1"/>
  <path d="M366,214.7L368.2,214.7L368.2,212.5L368.2,210.4L366,210.4L363.8,210.4L361.6,210.4L361.6,212.5L359.4,212.5L359.4,214.7L357.2,214.7L357.2,216.9L357.2,219.1L357.2,221.3L357.2,223.5L357.2,225.7L359.4,225.7L359.4,227.9L359.4,230.1L361.6,230.1L361.6,232.3L361.6,234.5L363.8,234.5L363.8,236.7L366,236.7L366,238.9L368.2,238.9L368.2,241L370.4,241L370.4,243.2L368.2,243.2L368.2,245.4L370.4,245.4L372.6,245.4L372.6,243.2L374.8,243.2L377,243.2L379.2,243.2L379.2,241L379.2,238.9L379.2,236.7L381.4,236.7L381.4,234.5L381.4,232.3L379.2,232.3L379.2,234.5L377,234.5L377,232.3L374.8,232.3L374.8,230.1L374.8,227.9L377,227.9L377,225.7L377,223.5L377,221.3L374.8,221.3L372.6,221.3L372.6,223.5L372.6,225.7L372.6,227.9L370.4,227.9L370.4,225.7L368.2,225.7L368.2,223.5L368.2,221.3L366,221.3L366,219.1L366,216.9L366,214.7Z" fill-rule="evenodd" fill="#9aa0a8" fill-opacity="0.85" stroke="#cfd5de" stroke-width="1"/>
  <path d="M434,236.7L434,238.9L434,241L434,243.2L431.8,243.2L431.8,245.4L431.8,247.6L434,247.6L436.2,247.6L438.4,247.6L438.4,245.4L440.6,245.4L440.6,243.2L442.8,243.2L442.8,241L442.8,238.9L442.8,236.7L442.8,234.5L442.8,232.3L440.6,232.3L440.6,230.1L440.6,227.9L438.4,227.9L438.4,225.7L438.4,223.5L436.2,223.5L436.2,221.3L434,221.3L434,219.1L431.8,219.1L431.8,216.9L429.6,216.9L429.6,214.7L431.8,214.7L431.8,212.5L429.6,212.5L427.4,212.5L427.4,214.7L425.2,214.7L423,214.7L420.8,214.7L420.8,216.9L420.8,219.1L420.8,221.3L418.6,221.3L418.6,223.5L418.6,225.7L420.8,225.7L420.8,223.5L423,223.5L423,225.7L425.2,225.7L425.2,227.9L425.2,230.1L423,230.1L423,232.3L423,234.5L423,236.7L425.2,236.7L427.4,236.7L427.4,234.5L427.4,232.3L427.4,230.1L429.6,230.1L429.6,232.3L431.8,232.3L431.8,234.5L431.8,236.7L434,236.7Z" fill-rule="evenodd" fill="#9aa0a8" fill-opacity="0.85" stroke="#cfd5de" stroke-width="1"/>
  <path d="M387.9,210.4L387.9,212.5L387.9,214.7L387.9,216.9L385.7,216.9L383.6,216.9L383.6,219.1L385.7,219.1L387.9,219.1L387.9,221.3L387.9,223.5L387.9,225.7L390.1,225.7L392.3,225.7L394.5,225.7L396.7,225.7L398.9,225.7L401.1,225.7L403.3,225.7L405.5,225.7L407.7,225.7L409.9,225.7L412.1,225.7L412.1,223.5L412.1,221.3L412.1,219.1L414.3,219.1L416.4,219.1L416.4,216.9L414.3,216.9L412.1,216.9L412.1,214.7L412.1,212.5L412.1,210.4L409.9,210.4L407.7,210.4L405.5,210.4L403.3,210.4L401.1,210.4L398.9,210.4L396.7,210.4L394.5,210.4L392.3,210.4L390.1,210.4L387.9,210.4Z" fill-rule="evenodd" fill="#9aa0a8" fill-opacity="0.85" stroke="#cfd5de" stroke-width="1"/>
  <path d="M387.9,232.3L387.9,234.5L387.9,236.7L387.9,238.9L385.7,238.9L383.6,238.9L383.6,241L385.7,241L387.9,241L387.9,243.2L387.9,245.4L387.9,247.6L390.1,247.6L392.3,247.6L394.5,247.6L396.7,247.6L398.9,247.6L401.1,247.6L403.3,247.6L405.5,247.6L407.7,247.6L409.9,247.6L412.1,247.6L412.1,245.4L412.1,243.2L412.1,241L414.3,241L416.4,241L416.4,238.9L414.3,238.9L412.1,238.9L412.1,236.7L412.1,234.5L412.1,232.3L409.9,232.3L407.7,232.3L405.5,232.3L403.3,232.3L401.1,232.3L398.9,232.3L396.7,232.3L394.5,232.3L392.3,232.3L390.1,232.3L387.9,232.3Z" fill-rule="evenodd" fill="#9aa0a8" fill-opacity="0.85" stroke="#cfd5de" stroke-width="1"/>
  <path d="M401.1,197.2L398.9,197.2L396.7,197.2L394.5,197.2L392.3,197.2L390.1,197.2L387.9,197.2L387.9,199.4L385.7,199.4L383.6,199.4L383.6,201.6L383.6,203.8L383.6,206L385.7,206L387.9,206L387.9,203.8L390.1,203.8L392.3,203.8L394.5,203.8L396.7,203.8L398.9,203.8L401.1,203.8L403.3,203.8L405.5,203.8L407.7,203.8L409.9,203.8L412.1,203.8L412.1,206L414.3,206L416.4,206L416.4,203.8L416.4,201.6L416.4,199.4L414.3,199.4L412.1,199.4L412.1,197.2L409.9,197.2L407.7,197.2L405.5,197.2L403.3,197.2L401.1,197.2Z" fill-rule="evenodd" fill="#9aa0a8" fill-opacity="0.85" stroke="#cfd5de" stroke-width="1"/>
  <path d="M383.6,252L383.6,254.2L383.6,256.4L383.6,258.6L385.7,258.6L387.9,258.6L387.9,260.8L390.1,260.8L392.3,260.8L394.5,260.8L396.7,260.8L398.9,260.8L401.1,260.8L403.3,260.8L405.5,260.8L407.7,260.8L409.9,260.8L412.1,260.8L412.1,258.6L414.3,258.6L416.4,258.6L416.4,256.4L416.4,254.2L416.4,252L414.3,252L412.1,252L412.1,254.2L409.9,254.2L407.7,254.2L405.5,254.2L403.3,254.2L401.1,254.2L398.9,254.2L396.7,254.2L394.5,254.2L392.3,254.2L390.1,254.2L387.9,254.2L387.9,252L385.7,252L383.6,252Z" fill-rule="evenodd" fill="#9aa0a8" fill-opacity="0.85" stroke="#cfd5de" stroke-width="1"/>
  <path d="M387.9,203.8L387.9,206L387.9,208.2L387.9,210.4L390.1,210.4L392.3,210.4L394.5,210.4L396.7,210.4L398.9,210.4L401.1,210.4L403.3,210.4L405.5,210.4L407.7,210.4L409.9,210.4L412.1,210.4L412.1,208.2L412.1,206L412.1,203.8L409.9,203.8L407.7,203.8L405.5,203.8L403.3,203.8L401.1,203.8L398.9,203.8L396.7,203.8L394.5,203.8L392.3,203.8L390.1,203.8L387.9,203.8Z" fill-rule="evenodd" fill="#9aa0a8" fill-opacity="0.85" stroke="#cfd5de" stroke-width="1"/>
  <path d="M387.9,225.7L387.9,227.9L387.9,230.1L387.9,232.3L390.1,232.3L392.3,232.3L394.5,232.3L396.7,232.3L398.9,232.3L401.1,232.3L403.3,232.3L405.5,232.3L407.7,232.3L409.9,232.3L412.1,232.3L412.1,230.1L412.1,227.9L412.1,225.7L409.9,225.7L407.7,225.7L405.5,225.7L403.3,225.7L401.1,225.7L398.9,225.7L396.7,225.7L394.5,225.7L392.3,225.7L390.1,225.7L387.9,225.7Z" fill-rule="evenodd" fill="#9aa0a8" fill-opacity="0.85" stroke="#cfd5de" stroke-width="1"/>
  <path d="M387.9,247.6L387.9,249.8L387.9,252L387.9,254.2L390.1,254.2L392.3,254.2L394.5,254.2L396.7,254.2L398.9,254.2L401.1,254.2L403.3,254.2L405.5,254.2L407.7,254.2L409.9,254.2L412.1,254.2L412.1,252L412.1,249.8L412.1,247.6L409.9,247.6L407.7,247.6L405.5,247.6L403.3,247.6L401.1,247.6L398.9,247.6L396.7,247.6L394.5,247.6L392.3,247.6L390.1,247.6L387.9,247.6Z" fill-rule="evenodd" fill="#9aa0a8" fill-opacity="0.85" stroke="#cfd5de" stroke-width="1"/>
</svg>
