<svg xmlns="http://www.w3.org/2000/svg" width="800" height="800" viewBox="0 0 800 800">
  <rect width="800" height="800" fill="#1b1e24"/>
  <text x="24" y="790" fill="#7b828d" font-family="monospace" font-size="13">pigland · cleaned base · 7 islands</text>
  <path d="M251.5,24L251.5,28.6L251.5,33.3L251.5,37.9L251.5,42.6L251.5,47.2L256.1,47.2L260.7,47.2L260.7,51.9L260.7,56.5L260.7,61.1L260.7,65.8L260.7,70.4L260.7,75.1L260.7,79.7L260.7,84.3L256.1,84.3L251.5,84.3L251.5,89L251.5,93.6L251.5,98.3L251.5,102.9L246.8,102.9L242.2,102.9L237.5,102.9L237.5,107.6L232.9,107.6L228.2,107.6L223.6,107.6L223.6,112.2L219,112.2L214.3,112.2L214.3,116.8L209.7,116.8L205,116.8L200.4,116.8L200.4,121.5L195.8,121.5L195.8,126.1L195.8,130.8L195.8,135.4L191.1,135.4L191.1,140L191.1,144.7L186.5,144.7L186.5,149.3L186.5,154L186.5,158.6L181.8,158.6L181.8,163.3L181.8,167.9L181.8,172.5L181.8,177.2L181.8,181.8L181.8,186.5L181.8,191.1L181.8,195.8L181.8,200.4L181.8,205L181.8,209.7L181.8,214.3L177.2,214.3L172.5,214.3L167.9,214.3L163.3,214.3L158.6,214.3L154,214.3L149.3,214.3L149.3,209.7L149.3,205L149.3,200.4L149.3,195.8L149.3,191.1L144.7,191.1L140,191.1L135.4,191.1L130.8,191.1L126.1,191.1L126.1,195.8L126.1,200.4L121.5,200.4L116.8,200.4L112.2,200.4L107.6,200.4L102.9,200.4L98.3,200.4L93.6,200.4L89,200.4L84.3,200.4L79.7,200.4L75.1,200.4L70.4,200.4L65.8,200.4L61.1,200.4L56.5,200.4L51.9,200.4L47.2,200.4L47.2,195.8L47.2,191.1L42.6,191.1L37.9,191.1L33.3,191.1L28.6,191.1L24,191.1L24,195.8L24,200.4L24,205L24,209.7L24,214.3L28.6,214.3L33.3,214.3L33.3,219L33.3,223.6L33.3,228.2L33.3,232.9L33.3,237.5L33.3,242.2L33.3,246.8L33.3,251.5L33.3,256.1L33.3,260.7L33.3,265.4L33.3,270L33.3,274.7L33.3,279.3L33.3,284L33.3,288.6L28.6,288.6L24,288.6L24,293.2L24,297.9L24,302.5L24,307.2L24,311.8L28.6,311.8L33.3,311.8L37.9,311.8L42.6,311.8L47.2,311.8L47.2,307.2L47.2,302.5L51.9,302.5L56.5,302.5L61.1,302.5L65.8,302.5L70.4,302.5L75.1,302.5L75.1,307.2L75.1,311.8L79.7,311.8L84.3,311.8L89,311.8L93.6,311.8L98.3,311.8L98.3,307.2L98.3,302.5L102.9,302.5L107.6,302.5L112.2,302.5L116.8,302.5L121.5,302.5L126.1,302.5L126.1,307.2L126.1,311.8L130.8,311.8L135.4,311.8L140,311.8L144.7,311.8L149.3,311.8L149.3,307.2L149.3,302.5L149.3,297.9L149.3,293.2L149.3,288.6L154,288.6L158.6,288.6L163.3,288.6L167.9,288.6L172.5,288.6L177.2,288.6L181.8,288.6L181.8,293.2L181.8,297.9L181.8,302.5L181.8,307.2L181.8,311.8L181.8,316.4L181.8,321.1L181.8,325.7L186.5,325.7L191.1,325.7L195.8,325.7L200.4,325.7L205,325.7L209.7,325.7L214.3,325.7L219,325.7L223.6,325.7L228.2,325.7L232.9,325.7L237.5,325.7L242.2,325.7L246.8,325.7L251.5,325.7L256.1,325.7L256.1,321.1L256.1,316.4L256.1,311.8L256.1,307.2L256.1,302.5L256.1,297.9L256.1,293.2L256.1,288.6L260.7,288.6L265.4,288.6L270,288.6L274.7,288.6L279.3,288.6L284,288.6L288.6,288.6L293.2,288.6L293.2,293.2L293.2,297.9L293.2,302.5L293.2,307.2L293.2,311.8L293.2,316.4L293.2,321.1L293.2,325.7L297.9,325.7L302.5,325.7L307.2,325.7L311.8,325.7L316.4,325.7L321.1,325.7L325.7,325.7L330.4,325.7L335,325.7L339.7,325.7L344.3,325.7L348.9,325.7L353.6,325.7L358.2,325.7L362.9,325.7L367.5,325.7L367.5,321.1L367.5,316.4L367.5,311.8L367.5,307.2L367.5,302.5L367.5,297.9L367.5,293.2L372.1,293.2L376.8,293.2L381.4,293.2L381.4,297.9L386.1,297.9L390.7,297.9L390.7,302.5L395.4,302.5L395.4,307.2L395.4,311.8L400,311.8L400,316.4L400,321.1L395.4,321.1L395.4,325.7L395.4,330.4L395.4,335L395.4,339.7L395.4,344.3L400,344.3L404.6,344.3L404.6,348.9L404.6,353.6L404.6,358.2L404.6,362.9L404.6,367.5L400,367.5L395.4,367.5L395.4,372.1L395.4,376.8L395.4,381.4L395.4,386.1L395.4,390.7L400,390.7L404.6,390.7L409.3,390.7L413.9,390.7L418.6,390.7L418.6,386.1L418.6,381.4L423.2,381.4L427.9,381.4L432.5,381.4L437.1,381.4L441.8,381.4L446.4,381.4L451.1,381.4L455.7,381.4L460.3,381.4L465,381.4L469.6,381.4L474.3,381.4L478.9,381.4L478.9,386.1L478.9,390.7L483.6,390.7L488.2,390.7L492.8,390.7L497.5,390.7L502.1,390.7L502.1,386.1L502.1,381.4L502.1,376.8L502.1,372.1L502.1,367.5L497.5,367.5L492.8,367.5L492.8,362.9L492.8,358.2L492.8,353.6L492.8,348.9L492.8,344.3L497.5,344.3L502.1,344.3L502.1,339.7L502.1,335L502.1,330.4L502.1,325.7L502.1,321.1L497.5,321.1L497.5,316.4L497.5,311.8L497.5,307.2L497.5,302.5L497.5,297.9L497.5,293.2L497.5,288.6L497.5,284L497.5,279.3L497.5,274.7L497.5,270L492.8,270L492.8,265.4L492.8,260.7L492.8,256.1L488.2,256.1L488.2,251.5L488.2,246.8L483.6,246.8L483.6,242.2L483.6,237.5L483.6,232.9L478.9,232.9L478.9,228.2L474.3,228.2L469.6,228.2L465,228.2L465,223.6L460.3,223.6L455.7,223.6L455.7,219L451.1,219L446.4,219L441.8,219L441.8,214.3L437.1,214.3L432.5,214.3L427.9,214.3L423.2,214.3L418.6,214.3L413.9,214.3L409.3,214.3L404.6,214.3L400,214.3L395.4,214.3L390.7,214.3L386.1,214.3L381.4,214.3L376.8,214.3L372.1,214.3L367.5,214.3L362.9,214.3L358.2,214.3L353.6,214.3L348.9,214.3L344.3,214.3L339.7,214.3L335,214.3L330.4,214.3L325.7,214.3L321.1,214.3L316.4,214.3L311.8,214.3L307.2,214.3L302.5,214.3L297.9,214.3L293.2,214.3L288.6,214.3L284,214.3L279.3,214.3L274.7,214.3L270,214.3L265.4,214.3L260.7,214.3L260.7,209.7L260.7,205L260.7,200.4L265.4,200.4L265.4,195.8L265.4,191.1L270,191.1L270,186.5L274.7,186.5L279.3,186.5L279.3,181.8L284,181.8L288.6,181.8L293.2,181.8L293.2,177.2L297.9,177.2L302.5,177.2L307.2,177.2L311.8,177.2L316.4,177.2L316.4,172.5L321.1,172.5L325.7,172.5L330.4,172.5L330.4,167.9L335,167.9L339.7,167.9L339.7,163.3L344.3,163.3L344.3,158.6L344.3,154L348.9,154L348.9,149.3L348.9,144.7L348.9,140L353.6,140L353.6,135.4L353.6,130.8L353.6,126.1L353.6,121.5L353.6,116.8L353.6,112.2L353.6,107.6L358.2,107.6L358.2,102.9L358.2,98.3L358.2,93.6L358.2,89L358.2,84.3L353.6,84.3L348.9,84.3L348.9,79.7L348.9,75.1L348.9,70.4L348.9,65.8L348.9,61.1L348.9,56.5L348.9,51.9L348.9,47.2L353.6,47.2L358.2,47.2L358.2,42.6L358.2,37.9L358.2,33.3L358.2,28.6L358.2,24L353.6,24L348.9,24L344.3,24L339.7,24L335,24L335,28.6L335,33.3L330.4,33.3L325.7,33.3L321.1,33.3L316.4,33.3L311.8,33.3L307.2,33.3L302.5,33.3L297.9,33.3L293.2,33.3L288.6,33.3L284,33.3L279.3,33.3L274.7,33.3L274.7,28.6L274.7,24L270,24L265.4,24L260.7,24L256.1,24L251.5,24Z" fill-rule="evenodd" fill="#9aa0a8" fill-opacity="0.85" stroke="#cfd5de" stroke-width="1"/>
  <path d="M502.1,413.9L502.1,409.3L497.5,409.3L492.8,409.3L488.2,409.3L483.6,409.3L478.9,409.3L478.9,413.9L478.9,418.6L474.3,418.6L469.6,418.6L465,418.6L460.3,418.6L455.7,418.6L451.1,418.6L446.4,418.6L441.8,418.6L437.1,418.6L432.5,418.6L427.9,418.6L423.2,418.6L418.6,418.6L418.6,413.9L418.6,409.3L413.9,409.3L409.3,409.3L404.6,409.3L400,409.3L395.4,409.3L395.4,413.9L395.4,418.6L395.4,423.2L395.4,427.9L395.4,432.5L400,432.5L404.6,432.5L404.6,437.1L404.6,441.8L404.6,446.4L404.6,451.1L404.6,455.7L400,455.7L395.4,455.7L395.4,460.3L395.4,465L395.4,469.6L395.4,474.3L395.4,478.9L400,478.9L400,483.6L400,488.2L395.4,488.2L395.4,492.8L395.4,497.5L390.7,497.5L390.7,502.1L386.1,502.1L381.4,502.1L381.4,506.8L376.8,506.8L372.1,506.8L367.5,506.8L367.5,502.1L367.5,497.5L367.5,492.8L367.5,488.2L367.5,483.6L367.5,478.9L367.5,474.3L362.9,474.3L358.2,474.3L353.6,474.3L348.9,474.3L344.3,474.3L339.7,474.3L335,474.3L330.4,474.3L325.7,474.3L321.1,474.3L316.4,474.3L311.8,474.3L307.2,474.3L302.5,474.3L297.9,474.3L293.2,474.3L293.2,478.9L293.2,483.6L293.2,488.2L293.2,492.8L293.2,497.5L293.2,502.1L293.2,506.8L293.2,511.4L288.6,511.4L284,511.4L279.3,511.4L274.7,511.4L270,511.4L265.4,511.4L260.7,511.4L256.1,511.4L256.1,506.8L256.1,502.1L256.1,497.5L256.1,492.8L256.1,488.2L256.1,483.6L256.1,478.9L256.1,474.3L251.5,474.3L246.8,474.3L242.2,474.3L237.5,474.3L232.9,474.3L228.2,474.3L223.6,474.3L219,474.3L214.3,474.3L209.7,474.3L205,474.3L200.4,474.3L195.8,474.3L191.1,474.3L186.5,474.3L181.8,474.3L181.8,478.9L181.8,483.6L181.8,488.2L181.8,492.8L181.8,497.5L181.8,502.1L181.8,506.8L181.8,511.4L177.2,511.4L172.5,511.4L167.9,511.4L163.3,511.4L158.6,511.4L154,511.4L149.3,511.4L149.3,506.8L149.3,502.1L149.3,497.5L149.3,492.8L149.3,488.2L144.7,488.2L140,488.2L135.4,488.2L130.8,488.2L126.1,488.2L126.1,492.8L126.1,497.5L121.5,497.5L116.8,497.5L112.2,497.5L107.6,497.5L102.9,497.5L98.3,497.5L98.3,492.8L98.3,488.2L93.6,488.2L89,488.2L84.3,488.2L79.7,488.2L75.1,488.2L75.1,492.8L75.1,497.5L70.4,497.5L65.8,497.5L61.1,497.5L56.5,497.5L51.9,497.5L47.2,497.5L47.2,492.8L47.2,488.2L42.6,488.2L37.9,488.2L33.3,488.2L28.6,488.2L24,488.2L24,492.8L24,497.5L24,502.1L24,506.8L24,511.4L28.6,511.4L33.3,511.4L33.3,516L33.3,520.7L33.3,525.3L33.3,530L33.3,534.6L33.3,539.3L33.3,543.9L33.3,548.5L33.3,553.2L33.3,557.8L33.3,562.5L33.3,567.1L33.3,571.8L33.3,576.4L33.3,581L33.3,585.7L28.6,585.7L24,585.7L24,590.3L24,595L24,599.6L24,604.2L24,608.9L28.6,608.9L33.3,608.9L37.9,608.9L42.6,608.9L47.2,608.9L47.2,604.2L47.2,599.6L51.9,599.6L56.5,599.6L61.1,599.6L65.8,599.6L70.4,599.6L75.1,599.6L79.7,599.6L84.3,599.6L89,599.6L93.6,599.6L98.3,599.6L102.9,599.6L107.6,599.6L112.2,599.6L116.8,599.6L121.5,599.6L126.1,599.6L126.1,604.2L126.1,608.9L130.8,608.9L135.4,608.9L140,608.9L144.7,608.9L149.3,608.9L149.3,604.2L149.3,599.6L149.3,595L149.3,590.3L149.3,585.7L154,585.7L158.6,585.7L163.3,585.7L167.9,585.7L172.5,585.7L177.2,585.7L181.8,585.7L181.8,590.3L181.8,595L181.8,599.6L181.8,604.2L181.8,608.9L181.8,613.5L181.8,618.2L181.8,622.8L181.8,627.5L181.8,632.1L181.8,636.7L181.8,641.4L186.5,641.4L186.5,646L186.5,650.7L186.5,655.3L191.1,655.3L191.1,660L191.1,664.6L195.8,664.6L195.8,669.2L195.8,673.9L195.8,678.5L200.4,678.5L200.4,683.2L205,683.2L209.7,683.2L214.3,683.2L214.3,687.8L219,687.8L223.6,687.8L223.6,692.4L228.2,692.4L232.9,692.4L237.5,692.4L237.5,697.1L242.2,697.1L246.8,697.1L251.5,697.1L251.5,701.7L251.5,706.4L251.5,711L251.5,715.7L256.1,715.7L260.7,715.7L260.7,720.3L260.7,724.9L260.7,729.6L260.7,734.2L260.7,738.9L260.7,743.5L260.7,748.1L260.7,752.8L256.1,752.8L251.5,752.8L251.5,757.4L251.5,762.1L251.5,766.7L251.5,771.4L251.5,776L256.1,776L260.7,776L265.4,776L270,776L274.7,776L274.7,771.4L274.7,766.7L279.3,766.7L284,766.7L288.6,766.7L293.2,766.7L297.9,766.7L302.5,766.7L307.2,766.7L311.8,766.7L316.4,766.7L321.1,766.7L325.7,766.7L330.4,766.7L335,766.7L335,771.4L335,776L339.7,776L344.3,776L348.9,776L353.6,776L358.2,776L358.2,771.4L358.2,766.7L358.2,762.1L358.2,757.4L358.2,752.8L353.6,752.8L348.9,752.8L348.9,748.1L348.9,743.5L348.9,738.9L348.9,734.2L348.9,729.6L348.9,724.9L348.9,720.3L348.9,715.7L353.6,715.7L358.2,715.7L358.2,711L358.2,706.4L358.2,701.7L358.2,697.1L358.2,692.4L353.6,692.4L353.6,687.8L353.6,683.2L353.6,678.5L353.6,673.9L353.6,669.2L353.6,664.6L353.6,660L348.9,660L348.9,655.3L348.9,650.7L348.9,646L344.3,646L344.3,641.4L344.3,636.7L339.7,636.7L339.7,632.1L335,632.1L330.4,632.1L330.4,627.5L325.7,627.5L321.1,627.5L316.4,627.5L316.4,622.8L311.8,622.8L307.2,622.8L302.5,622.8L297.9,622.8L293.2,622.8L293.2,618.2L288.6,618.2L284,618.2L279.3,618.2L279.3,613.5L274.7,613.5L270,613.5L270,608.9L265.4,608.9L265.4,604.2L265.4,599.6L260.7,599.6L260.7,595L260.7,590.3L260.7,585.7L265.4,585.7L270,585.7L274.7,585.7L279.3,585.7L284,585.7L288.6,585.7L293.2,585.7L297.9,585.7L302.5,585.7L307.2,585.7L311.8,585.7L316.4,585.7L321.1,585.7L325.7,585.7L330.4,585.7L335,585.7L339.7,585.7L344.3,585.7L348.9,585.7L353.6,585.7L358.2,585.7L362.9,585.7L367.5,585.7L372.1,585.7L376.8,585.7L381.4,585.7L386.1,585.7L390.7,585.7L395.4,585.7L400,585.7L404.6,585.7L409.3,585.7L413.9,585.7L418.6,585.7L423.2,585.7L427.9,585.7L432.5,585.7L437.1,585.7L441.8,585.7L441.8,581L446.4,581L451.1,581L455.7,581L455.7,576.4L460.3,576.4L465,576.4L465,571.8L469.6,571.8L474.3,571.8L478.9,571.8L478.9,567.1L483.6,567.1L483.6,562.5L483.6,557.8L483.6,553.2L488.2,553.2L488.2,548.5L488.2,543.9L492.8,543.9L492.8,539.3L492.8,534.6L492.8,530L497.5,530L497.5,525.3L497.5,520.7L497.5,516L497.5,511.4L497.5,506.8L497.5,502.1L497.5,497.5L497.5,492.8L497.5,488.2L497.5,483.6L497.5,478.9L502.1,478.9L502.1,474.3L502.1,469.6L502.1,465L502.1,460.3L502.1,455.7L497.5,455.7L492.8,455.7L492.8,451.1L492.8,446.4L492.8,441.8L492.8,437.1L492.8,432.5L497.5,432.5L502.1,432.5L502.1,427.9L502.1,423.2L502.1,418.6L502.1,413.9Z" fill-rule="evenodd" fill="#9aa0a8" fill-opacity="0.85" stroke="#cfd5de" stroke-width="1"/>
  <path d="M107.6,381.4L107.6,386.1L107.6,390.7L107.6,395.4L107.6,400L107.6,404.6L107.6,409.3L107.6,413.9L107.6,418.6L112.2,418.6L116.8,418.6L121.5,418.6L126.1,418.6L130.8,418.6L135.4,418.6L140,418.6L144.7,418.6L144.7,413.9L144.7,409.3L144.7,404.6L144.7,400L144.7,395.4L144.7,390.7L144.7,386.1L144.7,381.4L140,381.4L135.4,381.4L130.8,381.4L126.1,381.4L121.5,381.4L116.8,381.4L112.2,381.4L107.6,381.4Z" fill-rule="evenodd" fill="#9aa0a8" fill-opacity="0.85" stroke="#cfd5de" stroke-width="1"/>
  <path d="M274.7,28.6L274.7,33.3L279.3,33.3L284,33.3L288.6,33.3L293.2,33.3L297.9,33.3L302.5,33.3L307.2,33.3L311.8,33.3L316.4,33.3L321.1,33.3L325.7,33.3L330.4,33.3L335,33.3L335,28.6L330.4,28.6L325.7,28.6L321.1,28.6L316.4,28.6L311.8,28.6L307.2,28.6L302.5,28.6L297.9,28.6L293.2,28.6L288.6,28.6L284,28.6L279.3,28.6L274.7,28.6Z" fill-rule="evenodd" fill="#9aa0a8" fill-opacity="0.85" stroke="#cfd5de" stroke-width="1"/>
  <path d="M274.7,766.7L274.7,771.4L279.3,771.4L284,771.4L288.6,771.4L293.2,771.4L297.9,771.4L302.5,771.4L307.2,771.4L311.8,771.4L316.4,771.4L321.1,771.4L325.7,771.4L330.4,771.4L335,771.4L335,766.7L330.4,766.7L325.7,766.7L321.1,766.7L316.4,766.7L311.8,766.7L307.2,766.7L302.5,766.7L297.9,766.7L293.2,766.7L288.6,766.7L284,766.7L279.3,766.7L274.7,766.7Z" fill-rule="evenodd" fill="#9aa0a8" fill-opacity="0.85" stroke="#cfd5de" stroke-width="1"/>
  <path d="M418.6,381.4L418.6,386.1L423.2,386.1L427.9,386.1L432.5,386.1L437.1,386.1L441.8,386.1L446.4,386.1L451.1,386.1L455.7,386.1L460.3,386.1L465,386.1L469.6,386.1L474.3,386.1L478.9,386.1L478.9,381.4L474.3,381.4L469.6,381.4L465,381.4L460.3,381.4L455.7,381.4L451.1,381.4L446.4,381.4L441.8,381.4L437.1,381.4L432.5,381.4L427.9,381.4L423.2,381.4L418.6,381.4Z" fill-rule="evenodd" fill="#9aa0a8" fill-opacity="0.85" stroke="#cfd5de" stroke-width="1"/>
  <path d="M418.6,413.9L418.6,418.6L423.2,418.6L427.9,418.6L432.5,418.6L437.1,418.6L441.8,418.6L446.4,418.6L451.1,418.6L455.7,418.6L460.3,418.6L465,418.6L469.6,418.6L474.3,418.6L478.9,418.6L478.9,413.9L474.3,413.9L469.6,413.9L465,413.9L460.3,413.9L455.7,413.9L451.1,413.9L446.4,413.9L441.8,413.9L437.1,413.9L432.5,413.9L427.9,413.9L423.2,413.9L418.6,413.9Z" fill-rule="evenodd" fill="#9aa0a8" fill-opacity="0.85" stroke="#cfd5de" stroke-width="1"/>
</svg>
