<svg xmlns="http://www.w3.org/2000/svg" width="800" height="800" viewBox="0 0 800 800">
  <rect width="800" height="800" fill="#1b1e24"/>
  <text x="24" y="790" fill="#7b828d" font-family="monospace" font-size="13">ruedigers_octawool · cleaned base · 17 islands</text>
  <path d="M101.5,239.3L98.6,239.3L95.8,239.3L92.9,239.3L90,239.3L87.1,239.3L84.3,239.3L81.4,239.3L78.5,239.3L75.7,239.3L72.8,239.3L69.9,239.3L67.1,239.3L64.2,239.3L61.3,239.3L58.4,239.3L55.6,239.3L52.7,239.3L49.8,239.3L47,239.3L47,242.1L44.1,242.1L41.2,242.1L38.4,242.1L38.4,245L35.5,245L32.6,245L29.7,245L29.7,247.9L29.7,250.7L29.7,253.6L26.9,253.6L26.9,256.5L26.9,259.4L26.9,262.2L24,262.2L24,265.1L24,268L24,270.8L24,273.7L24,276.6L24,279.5L24,282.3L24,285.2L24,288.1L24,290.9L24,293.8L24,296.7L24,299.5L24,302.4L24,305.3L24,308.2L24,311L26.9,311L26.9,313.9L26.9,316.8L26.9,319.6L29.7,319.6L29.7,322.5L29.7,325.4L29.7,328.2L32.6,328.2L35.5,328.2L38.4,328.2L38.4,331.1L41.2,331.1L44.1,331.1L47,331.1L47,334L49.8,334L52.7,334L55.6,334L58.4,334L61.3,334L64.2,334L67.1,334L69.9,334L72.8,334L75.7,334L78.5,334L81.4,334L84.3,334L87.1,334L90,334L92.9,334L95.8,334L98.6,334L101.5,334L104.4,334L107.2,334L110.1,334L113,334L113,336.9L113,339.7L113,342.6L113,345.5L113,348.3L113,351.2L113,354.1L115.8,354.1L115.8,356.9L115.8,359.8L115.8,362.7L118.7,362.7L118.7,365.6L118.7,368.4L121.6,368.4L121.6,371.3L124.5,371.3L127.3,371.3L127.3,374.2L130.2,374.2L133.1,374.2L135.9,374.2L135.9,377L138.8,377L141.7,377L144.5,377L147.4,377L150.3,377L153.2,377L156,377L158.9,377L161.8,377L164.6,377L167.5,377L170.4,377L173.3,377L176.1,377L179,377L181.9,377L184.7,377L187.6,377L190.5,377L193.3,377L196.2,377L199.1,377L202,377L204.8,377L207.7,377L210.6,377L213.4,377L216.3,377L219.2,377L222,377L224.9,377L227.8,377L230.7,377L233.5,377L236.4,377L239.3,377L242.1,377L245,377L247.9,377L250.7,377L253.6,377L256.5,377L259.4,377L262.2,377L265.1,377L268,377L270.8,377L273.7,377L273.7,374.2L276.6,374.2L279.5,374.2L279.5,371.3L282.3,371.3L282.3,368.4L282.3,365.6L285.2,365.6L285.2,362.7L285.2,359.8L285.2,356.9L285.2,354.1L285.2,351.2L285.2,348.3L285.2,345.5L285.2,342.6L285.2,339.7L285.2,336.9L285.2,334L285.2,331.1L282.3,331.1L279.5,331.1L276.6,331.1L273.7,331.1L270.8,331.1L268,331.1L265.1,331.1L262.2,331.1L259.4,331.1L256.5,331.1L253.6,331.1L250.7,331.1L247.9,331.1L245,331.1L242.1,331.1L239.3,331.1L239.3,328.2L239.3,325.4L239.3,322.5L239.3,319.6L239.3,316.8L239.3,313.9L239.3,311L239.3,308.2L239.3,305.3L236.4,305.3L236.4,302.4L236.4,299.5L233.5,299.5L233.5,296.7L233.5,293.8L230.7,293.8L230.7,290.9L227.8,290.9L224.9,290.9L224.9,288.1L222,288.1L219.2,288.1L219.2,285.2L216.3,285.2L213.4,285.2L210.6,285.2L207.7,285.2L204.8,285.2L202,285.2L199.1,285.2L196.2,285.2L193.3,285.2L193.3,282.3L193.3,279.5L193.3,276.6L193.3,273.7L193.3,270.8L193.3,268L193.3,265.1L193.3,262.2L190.5,262.2L190.5,259.4L190.5,256.5L190.5,253.6L187.6,253.6L187.6,250.7L187.6,247.9L184.7,247.9L184.7,245L181.9,245L179,245L179,242.1L176.1,242.1L173.3,242.1L170.4,242.1L170.4,239.3L167.5,239.3L164.6,239.3L161.8,239.3L158.9,239.3L156,239.3L153.2,239.3L150.3,239.3L147.4,239.3L144.5,239.3L141.7,239.3L138.8,239.3L135.9,239.3L133.1,239.3L130.2,239.3L127.3,239.3L124.5,239.3L121.6,239.3L118.7,239.3L115.8,239.3L113,239.3L110.1,239.3L107.2,239.3L104.4,239.3L101.5,239.3Z" fill-rule="evenodd" fill="#9aa0a8" fill-opacity="0.85" stroke="#cfd5de" stroke-width="1"/>
  <path d="M273.7,425.8L273.7,423L270.8,423L268,423L265.1,423L262.2,423L259.4,423L256.5,423L253.6,423L250.7,423L247.9,423L245,423L242.1,423L239.3,423L236.4,423L233.5,423L230.7,423L227.8,423L224.9,423L222,423L219.2,423L216.3,423L213.4,423L210.6,423L207.7,423L204.8,423L202,423L199.1,423L196.2,423L193.3,423L190.5,423L187.6,423L184.7,423L181.9,423L179,423L176.1,423L173.3,423L170.4,423L167.5,423L164.6,423L161.8,423L158.9,423L156,423L153.2,423L150.3,423L147.4,423L144.5,423L141.7,423L138.8,423L135.9,423L135.9,425.8L133.1,425.8L130.2,425.8L127.3,425.8L127.3,428.7L124.5,428.7L121.6,428.7L121.6,431.6L118.7,431.6L118.7,434.4L118.7,437.3L115.8,437.3L115.8,440.2L115.8,443.1L115.8,445.9L113,445.9L113,448.8L113,451.7L113,454.5L113,457.4L113,460.3L113,463.1L113,466L110.1,466L107.2,466L104.4,466L101.5,466L98.6,466L95.8,466L92.9,466L90,466L87.1,466L84.3,466L81.4,466L78.5,466L75.7,466L72.8,466L69.9,466L67.1,466L64.2,466L61.3,466L58.4,466L55.6,466L52.7,466L49.8,466L47,466L47,468.9L44.1,468.9L41.2,468.9L38.4,468.9L38.4,471.8L35.5,471.8L32.6,471.8L29.7,471.8L29.7,474.6L29.7,477.5L29.7,480.4L26.9,480.4L26.9,483.2L26.9,486.1L26.9,489L24,489L24,491.8L24,494.7L24,497.6L24,500.5L24,503.3L24,506.2L24,509.1L24,511.9L24,514.8L24,517.7L24,520.5L24,523.4L24,526.3L24,529.2L24,532L24,534.9L24,537.8L26.9,537.8L26.9,540.6L26.9,543.5L26.9,546.4L29.7,546.4L29.7,549.3L29.7,552.1L29.7,555L32.6,555L35.5,555L38.4,555L38.4,557.9L41.2,557.9L44.1,557.9L47,557.9L47,560.7L49.8,560.7L52.7,560.7L55.6,560.7L58.4,560.7L61.3,560.7L64.2,560.7L67.1,560.7L69.9,560.7L72.8,560.7L75.7,560.7L78.5,560.7L81.4,560.7L84.3,560.7L87.1,560.7L90,560.7L92.9,560.7L95.8,560.7L98.6,560.7L101.5,560.7L104.4,560.7L107.2,560.7L110.1,560.7L113,560.7L115.8,560.7L118.7,560.7L121.6,560.7L124.5,560.7L127.3,560.7L130.2,560.7L133.1,560.7L135.9,560.7L138.8,560.7L141.7,560.7L144.5,560.7L147.4,560.7L150.3,560.7L153.2,560.7L156,560.7L158.9,560.7L161.8,560.7L164.6,560.7L167.5,560.7L170.4,560.7L170.4,557.9L173.3,557.9L176.1,557.9L179,557.9L179,555L181.9,555L184.7,555L184.7,552.1L187.6,552.1L187.6,549.3L187.6,546.4L190.5,546.4L190.5,543.5L190.5,540.6L190.5,537.8L193.3,537.8L193.3,534.9L193.3,532L193.3,529.2L193.3,526.3L193.3,523.4L193.3,520.5L193.3,517.7L193.3,514.8L196.2,514.8L199.1,514.8L202,514.8L204.8,514.8L207.7,514.8L210.6,514.8L213.4,514.8L216.3,514.8L219.2,514.8L219.2,511.9L222,511.9L224.9,511.9L224.9,509.1L227.8,509.1L230.7,509.1L230.7,506.2L233.5,506.2L233.5,503.3L233.5,500.5L236.4,500.5L236.4,497.6L236.4,494.7L239.3,494.7L239.3,491.8L239.3,489L239.3,486.1L239.3,483.2L239.3,480.4L239.3,477.5L239.3,474.6L239.3,471.8L239.3,468.9L242.1,468.9L245,468.9L247.9,468.9L250.7,468.9L253.6,468.9L256.5,468.9L259.4,468.9L262.2,468.9L265.1,468.9L268,468.9L270.8,468.9L273.7,468.9L276.6,468.9L279.5,468.9L282.3,468.9L285.2,468.9L285.2,466L285.2,463.1L285.2,460.3L285.2,457.4L285.2,454.5L285.2,451.7L285.2,448.8L285.2,445.9L285.2,443.1L285.2,440.2L285.2,437.3L285.2,434.4L282.3,434.4L282.3,431.6L282.3,428.7L279.5,428.7L279.5,425.8L276.6,425.8L273.7,425.8Z" fill-rule="evenodd" fill="#9aa0a8" fill-opacity="0.85" stroke="#cfd5de" stroke-width="1"/>
  <path d="M273.7,24L270.8,24L268,24L265.1,24L262.2,24L262.2,26.9L259.4,26.9L256.5,26.9L253.6,26.9L253.6,29.7L250.7,29.7L247.9,29.7L245,29.7L245,32.6L245,35.5L245,38.4L242.1,38.4L242.1,41.2L242.1,44.1L242.1,47L239.3,47L239.3,49.8L239.3,52.7L239.3,55.6L239.3,58.4L239.3,61.3L239.3,64.2L239.3,67.1L239.3,69.9L239.3,72.8L239.3,75.7L239.3,78.5L239.3,81.4L239.3,84.3L239.3,87.1L239.3,90L239.3,92.9L239.3,95.8L239.3,98.6L239.3,101.5L239.3,104.4L239.3,107.2L239.3,110.1L239.3,113L239.3,115.8L239.3,118.7L239.3,121.6L239.3,124.5L239.3,127.3L239.3,130.2L239.3,133.1L239.3,135.9L239.3,138.8L239.3,141.7L239.3,144.5L239.3,147.4L239.3,150.3L239.3,153.2L239.3,156L239.3,158.9L239.3,161.8L239.3,164.6L239.3,167.5L239.3,170.4L242.1,170.4L242.1,173.3L242.1,176.1L242.1,179L245,179L245,181.9L245,184.7L247.9,184.7L247.9,187.6L250.7,187.6L253.6,187.6L253.6,190.5L256.5,190.5L259.4,190.5L262.2,190.5L262.2,193.3L265.1,193.3L268,193.3L270.8,193.3L273.7,193.3L276.6,193.3L279.5,193.3L282.3,193.3L285.2,193.3L285.2,196.2L285.2,199.1L285.2,202L285.2,204.8L285.2,207.7L285.2,210.6L285.2,213.4L285.2,216.3L285.2,219.2L288.1,219.2L288.1,222L288.1,224.9L290.9,224.9L290.9,227.8L290.9,230.7L293.8,230.7L293.8,233.5L296.7,233.5L299.5,233.5L299.5,236.4L302.4,236.4L305.3,236.4L305.3,239.3L308.2,239.3L311,239.3L313.9,239.3L316.8,239.3L319.6,239.3L322.5,239.3L325.4,239.3L328.2,239.3L331.1,239.3L331.1,242.1L331.1,245L331.1,247.9L331.1,250.7L331.1,253.6L331.1,256.5L331.1,259.4L331.1,262.2L331.1,265.1L331.1,268L331.1,270.8L331.1,273.7L331.1,276.6L331.1,279.5L331.1,282.3L331.1,285.2L334,285.2L336.9,285.2L339.7,285.2L342.6,285.2L345.5,285.2L348.3,285.2L351.2,285.2L354.1,285.2L356.9,285.2L359.8,285.2L362.7,285.2L365.6,285.2L365.6,282.3L368.4,282.3L371.3,282.3L371.3,279.5L374.2,279.5L374.2,276.6L374.2,273.7L377,273.7L377,270.8L377,268L377,265.1L377,262.2L377,259.4L377,256.5L377,253.6L377,250.7L377,247.9L377,245L377,242.1L377,239.3L377,236.4L377,233.5L377,230.7L377,227.8L377,224.9L377,222L377,219.2L377,216.3L377,213.4L377,210.6L377,207.7L377,204.8L377,202L377,199.1L377,196.2L377,193.3L377,190.5L377,187.6L377,184.7L377,181.9L377,179L377,176.1L377,173.3L377,170.4L377,167.5L377,164.6L377,161.8L377,158.9L377,156L377,153.2L377,150.3L377,147.4L377,144.5L377,141.7L377,138.8L377,135.9L374.2,135.9L374.2,133.1L374.2,130.2L374.2,127.3L371.3,127.3L371.3,124.5L371.3,121.6L368.4,121.6L368.4,118.7L365.6,118.7L362.7,118.7L362.7,115.8L359.8,115.8L356.9,115.8L354.1,115.8L354.1,113L351.2,113L348.3,113L345.5,113L342.6,113L339.7,113L336.9,113L334,113L334,110.1L334,107.2L334,104.4L334,101.5L334,98.6L334,95.8L334,92.9L334,90L334,87.1L334,84.3L334,81.4L334,78.5L334,75.7L334,72.8L334,69.9L334,67.1L334,64.2L334,61.3L334,58.4L334,55.6L334,52.7L334,49.8L334,47L331.1,47L331.1,44.1L331.1,41.2L331.1,38.4L328.2,38.4L328.2,35.5L328.2,32.6L328.2,29.7L325.4,29.7L322.5,29.7L319.6,29.7L319.6,26.9L316.8,26.9L313.9,26.9L311,26.9L311,24L308.2,24L305.3,24L302.4,24L299.5,24L296.7,24L293.8,24L290.9,24L288.1,24L285.2,24L282.3,24L279.5,24L276.6,24L273.7,24Z" fill-rule="evenodd" fill="#9aa0a8" fill-opacity="0.85" stroke="#cfd5de" stroke-width="1"/>
  <path d="M356.9,514.8L354.1,514.8L351.2,514.8L348.3,514.8L345.5,514.8L342.6,514.8L339.7,514.8L336.9,514.8L334,514.8L331.1,514.8L331.1,517.7L331.1,520.5L331.1,523.4L331.1,526.3L331.1,529.2L331.1,532L331.1,534.9L331.1,537.8L331.1,540.6L331.1,543.5L331.1,546.4L331.1,549.3L331.1,552.1L331.1,555L331.1,557.9L331.1,560.7L328.2,560.7L325.4,560.7L322.5,560.7L319.6,560.7L316.8,560.7L313.9,560.7L311,560.7L308.2,560.7L305.3,560.7L305.3,563.6L302.4,563.6L299.5,563.6L299.5,566.5L296.7,566.5L293.8,566.5L293.8,569.3L290.9,569.3L290.9,572.2L290.9,575.1L288.1,575.1L288.1,578L288.1,580.8L285.2,580.8L285.2,583.7L285.2,586.6L285.2,589.4L285.2,592.3L285.2,595.2L285.2,598L285.2,600.9L285.2,603.8L285.2,606.7L282.3,606.7L279.5,606.7L276.6,606.7L273.7,606.7L270.8,606.7L268,606.7L265.1,606.7L262.2,606.7L262.2,609.5L259.4,609.5L256.5,609.5L253.6,609.5L253.6,612.4L250.7,612.4L247.9,612.4L247.9,615.3L245,615.3L245,618.1L245,621L242.1,621L242.1,623.9L242.1,626.7L242.1,629.6L239.3,629.6L239.3,632.5L239.3,635.4L239.3,638.2L239.3,641.1L239.3,644L239.3,646.8L239.3,649.7L239.3,652.6L239.3,655.5L239.3,658.3L239.3,661.2L239.3,664.1L239.3,666.9L239.3,669.8L239.3,672.7L239.3,675.5L239.3,678.4L239.3,681.3L239.3,684.2L239.3,687L239.3,689.9L239.3,692.8L239.3,695.6L239.3,698.5L239.3,701.4L239.3,704.2L239.3,707.1L239.3,710L239.3,712.9L239.3,715.7L239.3,718.6L239.3,721.5L239.3,724.3L239.3,727.2L239.3,730.1L239.3,732.9L239.3,735.8L239.3,738.7L239.3,741.6L239.3,744.4L239.3,747.3L239.3,750.2L239.3,753L242.1,753L242.1,755.9L242.1,758.8L242.1,761.6L245,761.6L245,764.5L245,767.4L245,770.3L247.9,770.3L250.7,770.3L253.6,770.3L253.6,773.1L256.5,773.1L259.4,773.1L262.2,773.1L262.2,776L265.1,776L268,776L270.8,776L273.7,776L276.6,776L279.5,776L282.3,776L285.2,776L288.1,776L290.9,776L293.8,776L296.7,776L299.5,776L302.4,776L305.3,776L308.2,776L311,776L311,773.1L313.9,773.1L316.8,773.1L319.6,773.1L319.6,770.3L322.5,770.3L325.4,770.3L328.2,770.3L328.2,767.4L328.2,764.5L328.2,761.6L331.1,761.6L331.1,758.8L331.1,755.9L331.1,753L334,753L334,750.2L334,747.3L334,744.4L334,741.6L334,738.7L334,735.8L334,732.9L334,730.1L334,727.2L334,724.3L334,721.5L334,718.6L334,715.7L334,712.9L334,710L334,707.1L334,704.2L334,701.4L334,698.5L334,695.6L334,692.8L334,689.9L334,687L336.9,687L339.7,687L342.6,687L345.5,687L348.3,687L351.2,687L354.1,687L354.1,684.2L356.9,684.2L359.8,684.2L362.7,684.2L362.7,681.3L365.6,681.3L368.4,681.3L368.4,678.4L371.3,678.4L371.3,675.5L371.3,672.7L374.2,672.7L374.2,669.8L374.2,666.9L374.2,664.1L377,664.1L377,661.2L377,658.3L377,655.5L377,652.6L377,649.7L377,646.8L377,644L377,641.1L377,638.2L377,635.4L377,632.5L377,629.6L377,626.7L377,623.9L377,621L377,618.1L377,615.3L377,612.4L377,609.5L377,606.7L377,603.8L377,600.9L377,598L377,595.2L377,592.3L377,589.4L377,586.6L377,583.7L377,580.8L377,578L377,575.1L377,572.2L377,569.3L377,566.5L377,563.6L377,560.7L377,557.9L377,555L377,552.1L377,549.3L377,546.4L377,543.5L377,540.6L377,537.8L377,534.9L377,532L377,529.2L377,526.3L374.2,526.3L374.2,523.4L374.2,520.5L371.3,520.5L371.3,517.7L368.4,517.7L365.6,517.7L365.6,514.8L362.7,514.8L359.8,514.8L356.9,514.8Z" fill-rule="evenodd" fill="#9aa0a8" fill-opacity="0.85" stroke="#cfd5de" stroke-width="1"/>
  <path d="M517.7,24L514.8,24L511.9,24L509.1,24L506.2,24L503.3,24L500.5,24L497.6,24L494.7,24L491.8,24L489,24L489,26.9L486.1,26.9L483.2,26.9L480.4,26.9L480.4,29.7L477.5,29.7L474.6,29.7L471.8,29.7L471.8,32.6L471.8,35.5L471.8,38.4L468.9,38.4L468.9,41.2L468.9,44.1L468.9,47L466,47L466,49.8L466,52.7L466,55.6L466,58.4L466,61.3L466,64.2L466,67.1L466,69.9L466,72.8L466,75.7L466,78.5L466,81.4L466,84.3L466,87.1L466,90L466,92.9L466,95.8L466,98.6L466,101.5L466,104.4L466,107.2L466,110.1L466,113L463.1,113L460.3,113L457.4,113L454.5,113L451.7,113L448.8,113L445.9,113L445.9,115.8L443.1,115.8L440.2,115.8L437.3,115.8L437.3,118.7L434.4,118.7L431.6,118.7L431.6,121.6L428.7,121.6L428.7,124.5L428.7,127.3L425.8,127.3L425.8,130.2L425.8,133.1L425.8,135.9L423,135.9L423,138.8L423,141.7L423,144.5L423,147.4L423,150.3L423,153.2L423,156L423,158.9L423,161.8L423,164.6L423,167.5L423,170.4L423,173.3L423,176.1L423,179L423,181.9L423,184.7L423,187.6L423,190.5L423,193.3L423,196.2L423,199.1L423,202L423,204.8L423,207.7L423,210.6L423,213.4L423,216.3L423,219.2L423,222L423,224.9L423,227.8L423,230.7L423,233.5L423,236.4L423,239.3L423,242.1L423,245L423,247.9L423,250.7L423,253.6L423,256.5L423,259.4L423,262.2L423,265.1L423,268L423,270.8L423,273.7L425.8,273.7L425.8,276.6L425.8,279.5L428.7,279.5L428.7,282.3L431.6,282.3L434.4,282.3L434.4,285.2L437.3,285.2L440.2,285.2L443.1,285.2L445.9,285.2L448.8,285.2L451.7,285.2L454.5,285.2L457.4,285.2L460.3,285.2L463.1,285.2L466,285.2L468.9,285.2L468.9,282.3L468.9,279.5L468.9,276.6L468.9,273.7L468.9,270.8L468.9,268L468.9,265.1L468.9,262.2L468.9,259.4L468.9,256.5L468.9,253.6L468.9,250.7L468.9,247.9L468.9,245L468.9,242.1L468.9,239.3L471.8,239.3L474.6,239.3L477.5,239.3L480.4,239.3L483.2,239.3L486.1,239.3L489,239.3L491.8,239.3L494.7,239.3L494.7,236.4L497.6,236.4L500.5,236.4L500.5,233.5L503.3,233.5L506.2,233.5L506.2,230.7L509.1,230.7L509.1,227.8L509.1,224.9L511.9,224.9L511.9,222L511.9,219.2L514.8,219.2L514.8,216.3L514.8,213.4L514.8,210.6L514.8,207.7L514.8,204.8L514.8,202L514.8,199.1L514.8,196.2L514.8,193.3L517.7,193.3L520.5,193.3L523.4,193.3L526.3,193.3L529.2,193.3L532,193.3L534.9,193.3L537.8,193.3L537.8,190.5L540.6,190.5L543.5,190.5L546.4,190.5L546.4,187.6L549.3,187.6L552.1,187.6L552.1,184.7L555,184.7L555,181.9L555,179L557.9,179L557.9,176.1L557.9,173.3L557.9,170.4L560.7,170.4L560.7,167.5L560.7,164.6L560.7,161.8L560.7,158.9L560.7,156L560.7,153.2L560.7,150.3L560.7,147.4L560.7,144.5L560.7,141.7L560.7,138.8L560.7,135.9L560.7,133.1L560.7,130.2L560.7,127.3L560.7,124.5L560.7,121.6L560.7,118.7L560.7,115.8L560.7,113L560.7,110.1L560.7,107.2L560.7,104.4L560.7,101.5L560.7,98.6L560.7,95.8L560.7,92.9L560.7,90L560.7,87.1L560.7,84.3L560.7,81.4L560.7,78.5L560.7,75.7L560.7,72.8L560.7,69.9L560.7,67.1L560.7,64.2L560.7,61.3L560.7,58.4L560.7,55.6L560.7,52.7L560.7,49.8L560.7,47L557.9,47L557.9,44.1L557.9,41.2L557.9,38.4L555,38.4L555,35.5L555,32.6L555,29.7L552.1,29.7L549.3,29.7L546.4,29.7L546.4,26.9L543.5,26.9L540.6,26.9L537.8,26.9L537.8,24L534.9,24L532,24L529.2,24L526.3,24L523.4,24L520.5,24L517.7,24Z" fill-rule="evenodd" fill="#9aa0a8" fill-opacity="0.85" stroke="#cfd5de" stroke-width="1"/>
  <path d="M454.5,514.8L451.7,514.8L448.8,514.8L445.9,514.8L443.1,514.8L440.2,514.8L437.3,514.8L434.4,514.8L434.4,517.7L431.6,517.7L428.7,517.7L428.7,520.5L425.8,520.5L425.8,523.4L425.8,526.3L423,526.3L423,529.2L423,532L423,534.9L423,537.8L423,540.6L423,543.5L423,546.4L423,549.3L423,552.1L423,555L423,557.9L423,560.7L423,563.6L423,566.5L423,569.3L423,572.2L423,575.1L423,578L423,580.8L423,583.7L423,586.6L423,589.4L423,592.3L423,595.2L423,598L423,600.9L423,603.8L423,606.7L423,609.5L423,612.4L423,615.3L423,618.1L423,621L423,623.9L423,626.7L423,629.6L423,632.5L423,635.4L423,638.2L423,641.1L423,644L423,646.8L423,649.7L423,652.6L423,655.5L423,658.3L423,661.2L423,664.1L425.8,664.1L425.8,666.9L425.8,669.8L425.8,672.7L428.7,672.7L428.7,675.5L428.7,678.4L431.6,678.4L431.6,681.3L434.4,681.3L437.3,681.3L437.3,684.2L440.2,684.2L443.1,684.2L445.9,684.2L445.9,687L448.8,687L451.7,687L454.5,687L457.4,687L460.3,687L463.1,687L466,687L466,689.9L466,692.8L466,695.6L466,698.5L466,701.4L466,704.2L466,707.1L466,710L466,712.9L466,715.7L466,718.6L466,721.5L466,724.3L466,727.2L466,730.1L466,732.9L466,735.8L466,738.7L466,741.6L466,744.4L466,747.3L466,750.2L466,753L468.9,753L468.9,755.9L468.9,758.8L468.9,761.6L471.8,761.6L471.8,764.5L471.8,767.4L471.8,770.3L474.6,770.3L477.5,770.3L480.4,770.3L480.4,773.1L483.2,773.1L486.1,773.1L489,773.1L489,776L491.8,776L494.7,776L497.6,776L500.5,776L503.3,776L506.2,776L509.1,776L511.9,776L514.8,776L517.7,776L520.5,776L523.4,776L526.3,776L529.2,776L532,776L534.9,776L537.8,776L537.8,773.1L540.6,773.1L543.5,773.1L546.4,773.1L546.4,770.3L549.3,770.3L552.1,770.3L555,770.3L555,767.4L555,764.5L555,761.6L557.9,761.6L557.9,758.8L557.9,755.9L557.9,753L560.7,753L560.7,750.2L560.7,747.3L560.7,744.4L560.7,741.6L560.7,738.7L560.7,735.8L560.7,732.9L560.7,730.1L560.7,727.2L560.7,724.3L560.7,721.5L560.7,718.6L560.7,715.7L560.7,712.9L560.7,710L560.7,707.1L560.7,704.2L560.7,701.4L560.7,698.5L560.7,695.6L560.7,692.8L560.7,689.9L560.7,687L560.7,684.2L560.7,681.3L560.7,678.4L560.7,675.5L560.7,672.7L560.7,669.8L560.7,666.9L560.7,664.1L560.7,661.2L560.7,658.3L560.7,655.5L560.7,652.6L560.7,649.7L560.7,646.8L560.7,644L560.7,641.1L560.7,638.2L560.7,635.4L560.7,632.5L560.7,629.6L557.9,629.6L557.9,626.7L557.9,623.9L557.9,621L555,621L555,618.1L555,615.3L552.1,615.3L552.1,612.4L549.3,612.4L546.4,612.4L546.4,609.5L543.5,609.5L540.6,609.5L537.8,609.5L537.8,606.7L534.9,606.7L532,606.7L529.2,606.7L526.3,606.7L523.4,606.7L520.5,606.7L517.7,606.7L514.8,606.7L514.8,603.8L514.8,600.9L514.8,598L514.8,595.2L514.8,592.3L514.8,589.4L514.8,586.6L514.8,583.7L514.8,580.8L511.9,580.8L511.9,578L511.9,575.1L509.1,575.1L509.1,572.2L509.1,569.3L506.2,569.3L506.2,566.5L503.3,566.5L500.5,566.5L500.5,563.6L497.6,563.6L494.7,563.6L494.7,560.7L491.8,560.7L489,560.7L486.1,560.7L483.2,560.7L480.4,560.7L477.5,560.7L474.6,560.7L471.8,560.7L468.9,560.7L468.9,557.9L468.9,555L468.9,552.1L468.9,549.3L468.9,546.4L468.9,543.5L468.9,540.6L468.9,537.8L468.9,534.9L468.9,532L468.9,529.2L468.9,526.3L468.9,523.4L468.9,520.5L468.9,517.7L468.9,514.8L466,514.8L463.1,514.8L460.3,514.8L457.4,514.8L454.5,514.8Z" fill-rule="evenodd" fill="#9aa0a8" fill-opacity="0.85" stroke="#cfd5de" stroke-width="1"/>
  <path d="M698.5,239.3L695.6,239.3L692.8,239.3L689.9,239.3L687,239.3L684.2,239.3L681.3,239.3L678.4,239.3L675.5,239.3L672.7,239.3L669.8,239.3L666.9,239.3L664.1,239.3L661.2,239.3L658.3,239.3L655.5,239.3L652.6,239.3L649.7,239.3L646.8,239.3L644,239.3L641.1,239.3L638.2,239.3L635.4,239.3L632.5,239.3L629.6,239.3L629.6,242.1L626.7,242.1L623.9,242.1L621,242.1L621,245L618.1,245L615.3,245L615.3,247.9L612.4,247.9L612.4,250.7L612.4,253.6L609.5,253.6L609.5,256.5L609.5,259.4L609.5,262.2L606.7,262.2L606.7,265.1L606.7,268L606.7,270.8L606.7,273.7L606.7,276.6L606.7,279.5L606.7,282.3L606.7,285.2L603.8,285.2L600.9,285.2L598,285.2L595.2,285.2L592.3,285.2L589.4,285.2L586.6,285.2L583.7,285.2L580.8,285.2L580.8,288.1L578,288.1L575.1,288.1L575.1,290.9L572.2,290.9L569.3,290.9L569.3,293.8L566.5,293.8L566.5,296.7L566.5,299.5L563.6,299.5L563.6,302.4L563.6,305.3L560.7,305.3L560.7,308.2L560.7,311L560.7,313.9L560.7,316.8L560.7,319.6L560.7,322.5L560.7,325.4L560.7,328.2L560.7,331.1L557.9,331.1L555,331.1L552.1,331.1L549.3,331.1L546.4,331.1L543.5,331.1L540.6,331.1L537.8,331.1L534.9,331.1L532,331.1L529.2,331.1L526.3,331.1L523.4,331.1L520.5,331.1L517.7,331.1L514.8,331.1L514.8,334L514.8,336.9L514.8,339.7L514.8,342.6L514.8,345.5L514.8,348.3L514.8,351.2L514.8,354.1L514.8,356.9L514.8,359.8L514.8,362.7L514.8,365.6L517.7,365.6L517.7,368.4L517.7,371.3L520.5,371.3L520.5,374.2L523.4,374.2L526.3,374.2L526.3,377L529.2,377L532,377L534.9,377L537.8,377L540.6,377L543.5,377L546.4,377L549.3,377L552.1,377L555,377L557.9,377L560.7,377L563.6,377L566.5,377L569.3,377L572.2,377L575.1,377L578,377L580.8,377L583.7,377L586.6,377L589.4,377L592.3,377L595.2,377L598,377L600.9,377L603.8,377L606.7,377L609.5,377L612.4,377L615.3,377L618.1,377L621,377L623.9,377L626.7,377L629.6,377L632.5,377L635.4,377L638.2,377L641.1,377L644,377L646.8,377L649.7,377L652.6,377L655.5,377L658.3,377L661.2,377L664.1,377L664.1,374.2L666.9,374.2L669.8,374.2L672.7,374.2L672.7,371.3L675.5,371.3L678.4,371.3L678.4,368.4L681.3,368.4L681.3,365.6L681.3,362.7L684.2,362.7L684.2,359.8L684.2,356.9L684.2,354.1L687,354.1L687,351.2L687,348.3L687,345.5L687,342.6L687,339.7L687,336.9L687,334L689.9,334L692.8,334L695.6,334L698.5,334L701.4,334L704.2,334L707.1,334L710,334L712.9,334L715.7,334L718.6,334L721.5,334L724.3,334L727.2,334L730.1,334L732.9,334L735.8,334L738.7,334L741.6,334L744.4,334L747.3,334L750.2,334L753,334L753,331.1L755.9,331.1L758.8,331.1L761.6,331.1L761.6,328.2L764.5,328.2L767.4,328.2L770.3,328.2L770.3,325.4L770.3,322.5L770.3,319.6L773.1,319.6L773.1,316.8L773.1,313.9L773.1,311L776,311L776,308.2L776,305.3L776,302.4L776,299.5L776,296.7L776,293.8L776,290.9L776,288.1L776,285.2L776,282.3L776,279.5L776,276.6L776,273.7L776,270.8L776,268L776,265.1L776,262.2L773.1,262.2L773.1,259.4L773.1,256.5L773.1,253.6L770.3,253.6L770.3,250.7L770.3,247.9L770.3,245L767.4,245L764.5,245L761.6,245L761.6,242.1L758.8,242.1L755.9,242.1L753,242.1L753,239.3L750.2,239.3L747.3,239.3L744.4,239.3L741.6,239.3L738.7,239.3L735.8,239.3L732.9,239.3L730.1,239.3L727.2,239.3L724.3,239.3L721.5,239.3L718.6,239.3L715.7,239.3L712.9,239.3L710,239.3L707.1,239.3L704.2,239.3L701.4,239.3L698.5,239.3Z" fill-rule="evenodd" fill="#9aa0a8" fill-opacity="0.85" stroke="#cfd5de" stroke-width="1"/>
  <path d="M580.8,423L578,423L575.1,423L572.2,423L569.3,423L566.5,423L563.6,423L560.7,423L557.9,423L555,423L552.1,423L549.3,423L546.4,423L543.5,423L540.6,423L537.8,423L534.9,423L532,423L529.2,423L526.3,423L526.3,425.8L523.4,425.8L520.5,425.8L520.5,428.7L517.7,428.7L517.7,431.6L517.7,434.4L514.8,434.4L514.8,437.3L514.8,440.2L514.8,443.1L514.8,445.9L514.8,448.8L514.8,451.7L514.8,454.5L514.8,457.4L514.8,460.3L514.8,463.1L514.8,466L514.8,468.9L517.7,468.9L520.5,468.9L523.4,468.9L526.3,468.9L529.2,468.9L532,468.9L534.9,468.9L537.8,468.9L540.6,468.9L543.5,468.9L546.4,468.9L549.3,468.9L552.1,468.9L555,468.9L557.9,468.9L560.7,468.9L560.7,471.8L560.7,474.6L560.7,477.5L560.7,480.4L560.7,483.2L560.7,486.1L560.7,489L560.7,491.8L560.7,494.7L563.6,494.7L563.6,497.6L563.6,500.5L566.5,500.5L566.5,503.3L566.5,506.2L569.3,506.2L569.3,509.1L572.2,509.1L575.1,509.1L575.1,511.9L578,511.9L580.8,511.9L580.8,514.8L583.7,514.8L586.6,514.8L589.4,514.8L592.3,514.8L595.2,514.8L598,514.8L600.9,514.8L603.8,514.8L606.7,514.8L606.7,517.7L606.7,520.5L606.7,523.4L606.7,526.3L606.7,529.2L606.7,532L606.7,534.9L606.7,537.8L609.5,537.8L609.5,540.6L609.5,543.5L609.5,546.4L612.4,546.4L612.4,549.3L612.4,552.1L615.3,552.1L615.3,555L618.1,555L621,555L621,557.9L623.9,557.9L626.7,557.9L629.6,557.9L629.6,560.7L632.5,560.7L635.4,560.7L638.2,560.7L641.1,560.7L644,560.7L646.8,560.7L649.7,560.7L652.6,560.7L655.5,560.7L658.3,560.7L661.2,560.7L664.1,560.7L666.9,560.7L669.8,560.7L672.7,560.7L675.5,560.7L678.4,560.7L681.3,560.7L684.2,560.7L687,560.7L689.9,560.7L692.8,560.7L695.6,560.7L698.5,560.7L701.4,560.7L704.2,560.7L707.1,560.7L710,560.7L712.9,560.7L715.7,560.7L718.6,560.7L721.5,560.7L724.3,560.7L727.2,560.7L730.1,560.7L732.9,560.7L735.8,560.7L738.7,560.7L741.6,560.7L744.4,560.7L747.3,560.7L750.2,560.7L753,560.7L753,557.9L755.9,557.9L758.8,557.9L761.6,557.9L761.6,555L764.5,555L767.4,555L770.3,555L770.3,552.1L770.3,549.3L770.3,546.4L773.1,546.4L773.1,543.5L773.1,540.6L773.1,537.8L776,537.8L776,534.9L776,532L776,529.2L776,526.3L776,523.4L776,520.5L776,517.7L776,514.8L776,511.9L776,509.1L776,506.2L776,503.3L776,500.5L776,497.6L776,494.7L776,491.8L776,489L773.1,489L773.1,486.1L773.1,483.2L773.1,480.4L770.3,480.4L770.3,477.5L770.3,474.6L770.3,471.8L767.4,471.8L764.5,471.8L761.6,471.8L761.6,468.9L758.8,468.9L755.9,468.9L753,468.9L753,466L750.2,466L747.3,466L744.4,466L741.6,466L738.7,466L735.8,466L732.9,466L730.1,466L727.2,466L724.3,466L721.5,466L718.6,466L715.7,466L712.9,466L710,466L707.1,466L704.2,466L701.4,466L698.5,466L695.6,466L692.8,466L689.9,466L687,466L687,463.1L687,460.3L687,457.4L687,454.5L687,451.7L687,448.8L687,445.9L684.2,445.9L684.2,443.1L684.2,440.2L684.2,437.3L681.3,437.3L681.3,434.4L681.3,431.6L678.4,431.6L678.4,428.7L675.5,428.7L672.7,428.7L672.7,425.8L669.8,425.8L666.9,425.8L664.1,425.8L664.1,423L661.2,423L658.3,423L655.5,423L652.6,423L649.7,423L646.8,423L644,423L641.1,423L638.2,423L635.4,423L632.5,423L629.6,423L626.7,423L623.9,423L621,423L618.1,423L615.3,423L612.4,423L609.5,423L606.7,423L603.8,423L600.9,423L598,423L595.2,423L592.3,423L589.4,423L586.6,423L583.7,423L580.8,423Z" fill-rule="evenodd" fill="#9aa0a8" fill-opacity="0.85" stroke="#cfd5de" stroke-width="1"/>
  <path d="M382.8,311L382.8,313.9L379.9,313.9L379.9,316.8L379.9,319.6L377,319.6L377,322.5L377,325.4L377,328.2L377,331.1L377,334L377,336.9L377,339.7L377,342.6L377,345.5L377,348.3L377,351.2L377,354.1L377,356.9L377,359.8L377,362.7L377,365.6L377,368.4L377,371.3L377,374.2L377,377L374.2,377L371.3,377L368.4,377L365.6,377L362.7,377L359.8,377L356.9,377L354.1,377L351.2,377L348.3,377L345.5,377L342.6,377L339.7,377L336.9,377L334,377L331.1,377L328.2,377L325.4,377L322.5,377L319.6,377L319.6,379.9L316.8,379.9L313.9,379.9L313.9,382.8L311,382.8L311,385.6L311,388.5L308.2,388.5L308.2,391.4L308.2,394.3L308.2,397.1L308.2,400L308.2,402.9L308.2,405.7L308.2,408.6L308.2,411.5L311,411.5L311,414.4L311,417.2L313.9,417.2L313.9,420.1L316.8,420.1L319.6,420.1L319.6,423L322.5,423L325.4,423L328.2,423L331.1,423L334,423L336.9,423L339.7,423L342.6,423L345.5,423L348.3,423L351.2,423L354.1,423L356.9,423L359.8,423L362.7,423L365.6,423L368.4,423L371.3,423L374.2,423L377,423L377,425.8L377,428.7L377,431.6L377,434.4L377,437.3L377,440.2L377,443.1L377,445.9L377,448.8L377,451.7L377,454.5L377,457.4L377,460.3L377,463.1L377,466L377,468.9L377,471.8L377,474.6L377,477.5L377,480.4L379.9,480.4L379.9,483.2L379.9,486.1L382.8,486.1L382.8,489L385.6,489L388.5,489L388.5,491.8L391.4,491.8L394.3,491.8L397.1,491.8L400,491.8L402.9,491.8L405.7,491.8L408.6,491.8L411.5,491.8L411.5,489L414.4,489L417.2,489L417.2,486.1L420.1,486.1L420.1,483.2L420.1,480.4L423,480.4L423,477.5L423,474.6L423,471.8L423,468.9L423,466L423,463.1L423,460.3L423,457.4L423,454.5L423,451.7L423,448.8L423,445.9L423,443.1L423,440.2L423,437.3L423,434.4L423,431.6L423,428.7L423,425.8L423,423L425.8,423L428.7,423L431.6,423L434.4,423L437.3,423L440.2,423L443.1,423L445.9,423L448.8,423L451.7,423L454.5,423L457.4,423L460.3,423L463.1,423L466,423L468.9,423L471.8,423L474.6,423L477.5,423L480.4,423L480.4,420.1L483.2,420.1L486.1,420.1L486.1,417.2L489,417.2L489,414.4L489,411.5L491.8,411.5L491.8,408.6L491.8,405.7L491.8,402.9L491.8,400L491.8,397.1L491.8,394.3L491.8,391.4L491.8,388.5L489,388.5L489,385.6L489,382.8L486.1,382.8L486.1,379.9L483.2,379.9L480.4,379.9L480.4,377L477.5,377L474.6,377L471.8,377L468.9,377L466,377L463.1,377L460.3,377L457.4,377L454.5,377L451.7,377L448.8,377L445.9,377L443.1,377L440.2,377L437.3,377L434.4,377L431.6,377L428.7,377L425.8,377L423,377L423,374.2L423,371.3L423,368.4L423,365.6L423,362.7L423,359.8L423,356.9L423,354.1L423,351.2L423,348.3L423,345.5L423,342.6L423,339.7L423,336.9L423,334L423,331.1L423,328.2L423,325.4L423,322.5L423,319.6L420.1,319.6L420.1,316.8L420.1,313.9L417.2,313.9L417.2,311L414.4,311L411.5,311L411.5,308.2L408.6,308.2L405.7,308.2L402.9,308.2L400,308.2L397.1,308.2L394.3,308.2L391.4,308.2L388.5,308.2L388.5,311L385.6,311L382.8,311Z" fill-rule="evenodd" fill="#9aa0a8" fill-opacity="0.85" stroke="#cfd5de" stroke-width="1"/>
  <path d="M342.6,308.2L339.7,308.2L336.9,308.2L334,308.2L331.1,308.2L331.1,311L328.2,311L325.4,311L322.5,311L322.5,313.9L319.6,313.9L316.8,313.9L316.8,316.8L313.9,316.8L313.9,319.6L313.9,322.5L311,322.5L311,325.4L311,328.2L311,331.1L308.2,331.1L308.2,334L308.2,336.9L308.2,339.7L308.2,342.6L308.2,345.5L308.2,348.3L308.2,351.2L308.2,354.1L311,354.1L313.9,354.1L316.8,354.1L319.6,354.1L322.5,354.1L325.4,354.1L328.2,354.1L331.1,354.1L334,354.1L336.9,354.1L339.7,354.1L342.6,354.1L345.5,354.1L348.3,354.1L351.2,354.1L354.1,354.1L354.1,351.2L354.1,348.3L354.1,345.5L354.1,342.6L354.1,339.7L354.1,336.9L354.1,334L354.1,331.1L354.1,328.2L354.1,325.4L354.1,322.5L354.1,319.6L354.1,316.8L354.1,313.9L354.1,311L354.1,308.2L351.2,308.2L348.3,308.2L345.5,308.2L342.6,308.2Z" fill-rule="evenodd" fill="#9aa0a8" fill-opacity="0.85" stroke="#cfd5de" stroke-width="1"/>
  <path d="M308.2,445.9L308.2,448.8L308.2,451.7L308.2,454.5L308.2,457.4L308.2,460.3L308.2,463.1L308.2,466L308.2,468.9L311,468.9L311,471.8L311,474.6L311,477.5L313.9,477.5L313.9,480.4L313.9,483.2L316.8,483.2L316.8,486.1L319.6,486.1L322.5,486.1L322.5,489L325.4,489L328.2,489L331.1,489L331.1,491.8L334,491.8L336.9,491.8L339.7,491.8L342.6,491.8L345.5,491.8L348.3,491.8L351.2,491.8L354.1,491.8L354.1,489L354.1,486.1L354.1,483.2L354.1,480.4L354.1,477.5L354.1,474.6L354.1,471.8L354.1,468.9L354.1,466L354.1,463.1L354.1,460.3L354.1,457.4L354.1,454.5L354.1,451.7L354.1,448.8L354.1,445.9L351.2,445.9L348.3,445.9L345.5,445.9L342.6,445.9L339.7,445.9L336.9,445.9L334,445.9L331.1,445.9L328.2,445.9L325.4,445.9L322.5,445.9L319.6,445.9L316.8,445.9L313.9,445.9L311,445.9L308.2,445.9Z" fill-rule="evenodd" fill="#9aa0a8" fill-opacity="0.85" stroke="#cfd5de" stroke-width="1"/>
  <path d="M445.9,308.2L445.9,311L445.9,313.9L445.9,316.8L445.9,319.6L445.9,322.5L445.9,325.4L445.9,328.2L445.9,331.1L445.9,334L445.9,336.9L445.9,339.7L445.9,342.6L445.9,345.5L445.9,348.3L445.9,351.2L445.9,354.1L448.8,354.1L451.7,354.1L454.5,354.1L457.4,354.1L460.3,354.1L463.1,354.1L466,354.1L468.9,354.1L471.8,354.1L474.6,354.1L477.5,354.1L480.4,354.1L483.2,354.1L486.1,354.1L489,354.1L491.8,354.1L491.8,351.2L491.8,348.3L491.8,345.5L491.8,342.6L491.8,339.7L491.8,336.9L491.8,334L491.8,331.1L489,331.1L489,328.2L489,325.4L489,322.5L486.1,322.5L486.1,319.6L486.1,316.8L483.2,316.8L483.2,313.9L480.4,313.9L477.5,313.9L477.5,311L474.6,311L471.8,311L468.9,311L468.9,308.2L466,308.2L463.1,308.2L460.3,308.2L457.4,308.2L454.5,308.2L451.7,308.2L448.8,308.2L445.9,308.2Z" fill-rule="evenodd" fill="#9aa0a8" fill-opacity="0.85" stroke="#cfd5de" stroke-width="1"/>
  <path d="M491.8,466L491.8,463.1L491.8,460.3L491.8,457.4L491.8,454.5L491.8,451.7L491.8,448.8L491.8,445.9L489,445.9L486.1,445.9L483.2,445.9L480.4,445.9L477.5,445.9L474.6,445.9L471.8,445.9L468.9,445.9L466,445.9L463.1,445.9L460.3,445.9L457.4,445.9L454.5,445.9L451.7,445.9L448.8,445.9L445.9,445.9L445.9,448.8L445.9,451.7L445.9,454.5L445.9,457.4L445.9,460.3L445.9,463.1L445.9,466L445.9,468.9L445.9,471.8L445.9,474.6L445.9,477.5L445.9,480.4L445.9,483.2L445.9,486.1L445.9,489L445.9,491.8L448.8,491.8L451.7,491.8L454.5,491.8L457.4,491.8L460.3,491.8L463.1,491.8L466,491.8L468.9,491.8L468.9,489L471.8,489L474.6,489L477.5,489L477.5,486.1L480.4,486.1L483.2,486.1L483.2,483.2L486.1,483.2L486.1,480.4L486.1,477.5L489,477.5L489,474.6L489,471.8L489,468.9L491.8,468.9L491.8,466Z" fill-rule="evenodd" fill="#9aa0a8" fill-opacity="0.85" stroke="#cfd5de" stroke-width="1"/>
  <path d="M308.2,265.1L308.2,262.2L305.3,262.2L302.4,262.2L299.5,262.2L296.7,262.2L293.8,262.2L290.9,262.2L288.1,262.2L285.2,262.2L285.2,265.1L282.3,265.1L279.5,265.1L276.6,265.1L276.6,268L273.7,268L270.8,268L270.8,270.8L268,270.8L268,273.7L268,276.6L265.1,276.6L265.1,279.5L265.1,282.3L265.1,285.2L262.2,285.2L262.2,288.1L262.2,290.9L262.2,293.8L262.2,296.7L262.2,299.5L262.2,302.4L262.2,305.3L262.2,308.2L265.1,308.2L268,308.2L270.8,308.2L273.7,308.2L276.6,308.2L279.5,308.2L282.3,308.2L285.2,308.2L285.2,305.3L288.1,305.3L290.9,305.3L293.8,305.3L293.8,302.4L296.7,302.4L299.5,302.4L299.5,299.5L302.4,299.5L302.4,296.7L302.4,293.8L305.3,293.8L305.3,290.9L305.3,288.1L305.3,285.2L308.2,285.2L308.2,282.3L308.2,279.5L308.2,276.6L308.2,273.7L308.2,270.8L308.2,268L308.2,265.1Z" fill-rule="evenodd" fill="#9aa0a8" fill-opacity="0.85" stroke="#cfd5de" stroke-width="1"/>
  <path d="M262.2,491.8L262.2,494.7L262.2,497.6L262.2,500.5L262.2,503.3L262.2,506.2L262.2,509.1L262.2,511.9L262.2,514.8L265.1,514.8L265.1,517.7L265.1,520.5L265.1,523.4L268,523.4L268,526.3L268,529.2L270.8,529.2L270.8,532L273.7,532L276.6,532L276.6,534.9L279.5,534.9L282.3,534.9L285.2,534.9L285.2,537.8L288.1,537.8L290.9,537.8L293.8,537.8L296.7,537.8L299.5,537.8L302.4,537.8L305.3,537.8L308.2,537.8L308.2,534.9L308.2,532L308.2,529.2L308.2,526.3L308.2,523.4L308.2,520.5L308.2,517.7L308.2,514.8L305.3,514.8L305.3,511.9L305.3,509.1L305.3,506.2L302.4,506.2L302.4,503.3L302.4,500.5L299.5,500.5L299.5,497.6L296.7,497.6L293.8,497.6L293.8,494.7L290.9,494.7L288.1,494.7L285.2,494.7L285.2,491.8L282.3,491.8L279.5,491.8L276.6,491.8L273.7,491.8L270.8,491.8L268,491.8L265.1,491.8L262.2,491.8Z" fill-rule="evenodd" fill="#9aa0a8" fill-opacity="0.85" stroke="#cfd5de" stroke-width="1"/>
  <path d="M491.8,262.2L491.8,265.1L491.8,268L491.8,270.8L491.8,273.7L491.8,276.6L491.8,279.5L491.8,282.3L491.8,285.2L494.7,285.2L494.7,288.1L494.7,290.9L494.7,293.8L497.6,293.8L497.6,296.7L497.6,299.5L500.5,299.5L500.5,302.4L503.3,302.4L506.2,302.4L506.2,305.3L509.1,305.3L511.9,305.3L514.8,305.3L514.8,308.2L517.7,308.2L520.5,308.2L523.4,308.2L526.3,308.2L529.2,308.2L532,308.2L534.9,308.2L537.8,308.2L537.8,305.3L537.8,302.4L537.8,299.5L537.8,296.7L537.8,293.8L537.8,290.9L537.8,288.1L537.8,285.2L534.9,285.2L534.9,282.3L534.9,279.5L534.9,276.6L532,276.6L532,273.7L532,270.8L529.2,270.8L529.2,268L526.3,268L523.4,268L523.4,265.1L520.5,265.1L517.7,265.1L514.8,265.1L514.8,262.2L511.9,262.2L509.1,262.2L506.2,262.2L503.3,262.2L500.5,262.2L497.6,262.2L494.7,262.2L491.8,262.2Z" fill-rule="evenodd" fill="#9aa0a8" fill-opacity="0.85" stroke="#cfd5de" stroke-width="1"/>
  <path d="M537.8,494.7L537.8,491.8L534.9,491.8L532,491.8L529.2,491.8L526.3,491.8L523.4,491.8L520.5,491.8L517.7,491.8L514.8,491.8L514.8,494.7L511.9,494.7L509.1,494.7L506.2,494.7L506.2,497.6L503.3,497.6L500.5,497.6L500.5,500.5L497.6,500.5L497.6,503.3L497.6,506.2L494.7,506.2L494.7,509.1L494.7,511.9L494.7,514.8L491.8,514.8L491.8,517.7L491.8,520.5L491.8,523.4L491.8,526.3L491.8,529.2L491.8,532L491.8,534.9L491.8,537.8L494.7,537.8L497.6,537.8L500.5,537.8L503.3,537.8L506.2,537.8L509.1,537.8L511.9,537.8L514.8,537.8L514.8,534.9L517.7,534.9L520.5,534.9L523.4,534.9L523.4,532L526.3,532L529.2,532L529.2,529.2L532,529.2L532,526.3L532,523.4L534.9,523.4L534.9,520.5L534.9,517.7L534.9,514.8L537.8,514.8L537.8,511.9L537.8,509.1L537.8,506.2L537.8,503.3L537.8,500.5L537.8,497.6L537.8,494.7Z" fill-rule="evenodd" fill="#9aa0a8" fill-opacity="0.85" stroke="#cfd5de" stroke-width="1"/>
</svg>
